G04 #@! TF.GenerationSoftware,KiCad,Pcbnew,8.0.9-8.0.9-0~ubuntu22.04.1*
G04 #@! TF.CreationDate,2025-05-11T08:50:37+10:00*
G04 #@! TF.ProjectId,Generic_Front_Panel,47656e65-7269-4635-9f46-726f6e745f50,rev?*
G04 #@! TF.SameCoordinates,Original*
G04 #@! TF.FileFunction,Legend,Top*
G04 #@! TF.FilePolarity,Positive*
%FSLAX46Y46*%
G04 Gerber Fmt 4.6, Leading zero omitted, Abs format (unit mm)*
G04 Created by KiCad (PCBNEW 8.0.9-8.0.9-0~ubuntu22.04.1) date 2025-05-11 08:50:37*
%MOMM*%
%LPD*%
G01*
G04 APERTURE LIST*
%ADD10C,0.150000*%
%ADD11C,0.120000*%
G04 APERTURE END LIST*
D10*
X177824762Y-86243390D02*
X177729524Y-86195771D01*
X177729524Y-86195771D02*
X177681905Y-86148152D01*
X177681905Y-86148152D02*
X177634286Y-86052914D01*
X177634286Y-86052914D02*
X177634286Y-86005295D01*
X177634286Y-86005295D02*
X177681905Y-85910057D01*
X177681905Y-85910057D02*
X177729524Y-85862438D01*
X177729524Y-85862438D02*
X177824762Y-85814819D01*
X177824762Y-85814819D02*
X178015238Y-85814819D01*
X178015238Y-85814819D02*
X178110476Y-85862438D01*
X178110476Y-85862438D02*
X178158095Y-85910057D01*
X178158095Y-85910057D02*
X178205714Y-86005295D01*
X178205714Y-86005295D02*
X178205714Y-86052914D01*
X178205714Y-86052914D02*
X178158095Y-86148152D01*
X178158095Y-86148152D02*
X178110476Y-86195771D01*
X178110476Y-86195771D02*
X178015238Y-86243390D01*
X178015238Y-86243390D02*
X177824762Y-86243390D01*
X177824762Y-86243390D02*
X177729524Y-86291009D01*
X177729524Y-86291009D02*
X177681905Y-86338628D01*
X177681905Y-86338628D02*
X177634286Y-86433866D01*
X177634286Y-86433866D02*
X177634286Y-86624342D01*
X177634286Y-86624342D02*
X177681905Y-86719580D01*
X177681905Y-86719580D02*
X177729524Y-86767200D01*
X177729524Y-86767200D02*
X177824762Y-86814819D01*
X177824762Y-86814819D02*
X178015238Y-86814819D01*
X178015238Y-86814819D02*
X178110476Y-86767200D01*
X178110476Y-86767200D02*
X178158095Y-86719580D01*
X178158095Y-86719580D02*
X178205714Y-86624342D01*
X178205714Y-86624342D02*
X178205714Y-86433866D01*
X178205714Y-86433866D02*
X178158095Y-86338628D01*
X178158095Y-86338628D02*
X178110476Y-86291009D01*
X178110476Y-86291009D02*
X178015238Y-86243390D01*
X227521428Y-86291009D02*
X227664285Y-86338628D01*
X227664285Y-86338628D02*
X227711904Y-86386247D01*
X227711904Y-86386247D02*
X227759523Y-86481485D01*
X227759523Y-86481485D02*
X227759523Y-86624342D01*
X227759523Y-86624342D02*
X227711904Y-86719580D01*
X227711904Y-86719580D02*
X227664285Y-86767200D01*
X227664285Y-86767200D02*
X227569047Y-86814819D01*
X227569047Y-86814819D02*
X227188095Y-86814819D01*
X227188095Y-86814819D02*
X227188095Y-85814819D01*
X227188095Y-85814819D02*
X227521428Y-85814819D01*
X227521428Y-85814819D02*
X227616666Y-85862438D01*
X227616666Y-85862438D02*
X227664285Y-85910057D01*
X227664285Y-85910057D02*
X227711904Y-86005295D01*
X227711904Y-86005295D02*
X227711904Y-86100533D01*
X227711904Y-86100533D02*
X227664285Y-86195771D01*
X227664285Y-86195771D02*
X227616666Y-86243390D01*
X227616666Y-86243390D02*
X227521428Y-86291009D01*
X227521428Y-86291009D02*
X227188095Y-86291009D01*
X106711905Y-50254819D02*
X106711905Y-51064342D01*
X106711905Y-51064342D02*
X106759524Y-51159580D01*
X106759524Y-51159580D02*
X106807143Y-51207200D01*
X106807143Y-51207200D02*
X106902381Y-51254819D01*
X106902381Y-51254819D02*
X107092857Y-51254819D01*
X107092857Y-51254819D02*
X107188095Y-51207200D01*
X107188095Y-51207200D02*
X107235714Y-51159580D01*
X107235714Y-51159580D02*
X107283333Y-51064342D01*
X107283333Y-51064342D02*
X107283333Y-50254819D01*
X108283333Y-51254819D02*
X107711905Y-51254819D01*
X107997619Y-51254819D02*
X107997619Y-50254819D01*
X107997619Y-50254819D02*
X107902381Y-50397676D01*
X107902381Y-50397676D02*
X107807143Y-50492914D01*
X107807143Y-50492914D02*
X107711905Y-50540533D01*
X109235714Y-51254819D02*
X108664286Y-51254819D01*
X108950000Y-51254819D02*
X108950000Y-50254819D01*
X108950000Y-50254819D02*
X108854762Y-50397676D01*
X108854762Y-50397676D02*
X108759524Y-50492914D01*
X108759524Y-50492914D02*
X108664286Y-50540533D01*
X227116667Y-101054819D02*
X227783333Y-101054819D01*
X227783333Y-101054819D02*
X227354762Y-102054819D01*
X210725714Y-71051009D02*
X211059047Y-71051009D01*
X211201904Y-71574819D02*
X210725714Y-71574819D01*
X210725714Y-71574819D02*
X210725714Y-70574819D01*
X210725714Y-70574819D02*
X211201904Y-70574819D01*
X210701905Y-86529104D02*
X211178095Y-86529104D01*
X210606667Y-86814819D02*
X210940000Y-85814819D01*
X210940000Y-85814819D02*
X211273333Y-86814819D01*
X194668095Y-101054819D02*
X194191905Y-101054819D01*
X194191905Y-101054819D02*
X194144286Y-101531009D01*
X194144286Y-101531009D02*
X194191905Y-101483390D01*
X194191905Y-101483390D02*
X194287143Y-101435771D01*
X194287143Y-101435771D02*
X194525238Y-101435771D01*
X194525238Y-101435771D02*
X194620476Y-101483390D01*
X194620476Y-101483390D02*
X194668095Y-101531009D01*
X194668095Y-101531009D02*
X194715714Y-101626247D01*
X194715714Y-101626247D02*
X194715714Y-101864342D01*
X194715714Y-101864342D02*
X194668095Y-101959580D01*
X194668095Y-101959580D02*
X194620476Y-102007200D01*
X194620476Y-102007200D02*
X194525238Y-102054819D01*
X194525238Y-102054819D02*
X194287143Y-102054819D01*
X194287143Y-102054819D02*
X194191905Y-102007200D01*
X194191905Y-102007200D02*
X194144286Y-101959580D01*
X95281905Y-50254819D02*
X95281905Y-51064342D01*
X95281905Y-51064342D02*
X95329524Y-51159580D01*
X95329524Y-51159580D02*
X95377143Y-51207200D01*
X95377143Y-51207200D02*
X95472381Y-51254819D01*
X95472381Y-51254819D02*
X95662857Y-51254819D01*
X95662857Y-51254819D02*
X95758095Y-51207200D01*
X95758095Y-51207200D02*
X95805714Y-51159580D01*
X95805714Y-51159580D02*
X95853333Y-51064342D01*
X95853333Y-51064342D02*
X95853333Y-50254819D01*
X96853333Y-51254819D02*
X96281905Y-51254819D01*
X96567619Y-51254819D02*
X96567619Y-50254819D01*
X96567619Y-50254819D02*
X96472381Y-50397676D01*
X96472381Y-50397676D02*
X96377143Y-50492914D01*
X96377143Y-50492914D02*
X96281905Y-50540533D01*
X97472381Y-50254819D02*
X97567619Y-50254819D01*
X97567619Y-50254819D02*
X97662857Y-50302438D01*
X97662857Y-50302438D02*
X97710476Y-50350057D01*
X97710476Y-50350057D02*
X97758095Y-50445295D01*
X97758095Y-50445295D02*
X97805714Y-50635771D01*
X97805714Y-50635771D02*
X97805714Y-50873866D01*
X97805714Y-50873866D02*
X97758095Y-51064342D01*
X97758095Y-51064342D02*
X97710476Y-51159580D01*
X97710476Y-51159580D02*
X97662857Y-51207200D01*
X97662857Y-51207200D02*
X97567619Y-51254819D01*
X97567619Y-51254819D02*
X97472381Y-51254819D01*
X97472381Y-51254819D02*
X97377143Y-51207200D01*
X97377143Y-51207200D02*
X97329524Y-51159580D01*
X97329524Y-51159580D02*
X97281905Y-51064342D01*
X97281905Y-51064342D02*
X97234286Y-50873866D01*
X97234286Y-50873866D02*
X97234286Y-50635771D01*
X97234286Y-50635771D02*
X97281905Y-50445295D01*
X97281905Y-50445295D02*
X97329524Y-50350057D01*
X97329524Y-50350057D02*
X97377143Y-50302438D01*
X97377143Y-50302438D02*
X97472381Y-50254819D01*
X211130476Y-101054819D02*
X210940000Y-101054819D01*
X210940000Y-101054819D02*
X210844762Y-101102438D01*
X210844762Y-101102438D02*
X210797143Y-101150057D01*
X210797143Y-101150057D02*
X210701905Y-101292914D01*
X210701905Y-101292914D02*
X210654286Y-101483390D01*
X210654286Y-101483390D02*
X210654286Y-101864342D01*
X210654286Y-101864342D02*
X210701905Y-101959580D01*
X210701905Y-101959580D02*
X210749524Y-102007200D01*
X210749524Y-102007200D02*
X210844762Y-102054819D01*
X210844762Y-102054819D02*
X211035238Y-102054819D01*
X211035238Y-102054819D02*
X211130476Y-102007200D01*
X211130476Y-102007200D02*
X211178095Y-101959580D01*
X211178095Y-101959580D02*
X211225714Y-101864342D01*
X211225714Y-101864342D02*
X211225714Y-101626247D01*
X211225714Y-101626247D02*
X211178095Y-101531009D01*
X211178095Y-101531009D02*
X211130476Y-101483390D01*
X211130476Y-101483390D02*
X211035238Y-101435771D01*
X211035238Y-101435771D02*
X210844762Y-101435771D01*
X210844762Y-101435771D02*
X210749524Y-101483390D01*
X210749524Y-101483390D02*
X210701905Y-101531009D01*
X210701905Y-101531009D02*
X210654286Y-101626247D01*
X144068809Y-48079819D02*
X144068809Y-47079819D01*
X144068809Y-47079819D02*
X144449761Y-47079819D01*
X144449761Y-47079819D02*
X144544999Y-47127438D01*
X144544999Y-47127438D02*
X144592618Y-47175057D01*
X144592618Y-47175057D02*
X144640237Y-47270295D01*
X144640237Y-47270295D02*
X144640237Y-47413152D01*
X144640237Y-47413152D02*
X144592618Y-47508390D01*
X144592618Y-47508390D02*
X144544999Y-47556009D01*
X144544999Y-47556009D02*
X144449761Y-47603628D01*
X144449761Y-47603628D02*
X144068809Y-47603628D01*
X145211666Y-48079819D02*
X145116428Y-48032200D01*
X145116428Y-48032200D02*
X145068809Y-47984580D01*
X145068809Y-47984580D02*
X145021190Y-47889342D01*
X145021190Y-47889342D02*
X145021190Y-47603628D01*
X145021190Y-47603628D02*
X145068809Y-47508390D01*
X145068809Y-47508390D02*
X145116428Y-47460771D01*
X145116428Y-47460771D02*
X145211666Y-47413152D01*
X145211666Y-47413152D02*
X145354523Y-47413152D01*
X145354523Y-47413152D02*
X145449761Y-47460771D01*
X145449761Y-47460771D02*
X145497380Y-47508390D01*
X145497380Y-47508390D02*
X145544999Y-47603628D01*
X145544999Y-47603628D02*
X145544999Y-47889342D01*
X145544999Y-47889342D02*
X145497380Y-47984580D01*
X145497380Y-47984580D02*
X145449761Y-48032200D01*
X145449761Y-48032200D02*
X145354523Y-48079819D01*
X145354523Y-48079819D02*
X145211666Y-48079819D01*
X145878333Y-47413152D02*
X146068809Y-48079819D01*
X146068809Y-48079819D02*
X146259285Y-47603628D01*
X146259285Y-47603628D02*
X146449761Y-48079819D01*
X146449761Y-48079819D02*
X146640237Y-47413152D01*
X147402142Y-48032200D02*
X147306904Y-48079819D01*
X147306904Y-48079819D02*
X147116428Y-48079819D01*
X147116428Y-48079819D02*
X147021190Y-48032200D01*
X147021190Y-48032200D02*
X146973571Y-47936961D01*
X146973571Y-47936961D02*
X146973571Y-47556009D01*
X146973571Y-47556009D02*
X147021190Y-47460771D01*
X147021190Y-47460771D02*
X147116428Y-47413152D01*
X147116428Y-47413152D02*
X147306904Y-47413152D01*
X147306904Y-47413152D02*
X147402142Y-47460771D01*
X147402142Y-47460771D02*
X147449761Y-47556009D01*
X147449761Y-47556009D02*
X147449761Y-47651247D01*
X147449761Y-47651247D02*
X146973571Y-47746485D01*
X147878333Y-48079819D02*
X147878333Y-47413152D01*
X147878333Y-47603628D02*
X147925952Y-47508390D01*
X147925952Y-47508390D02*
X147973571Y-47460771D01*
X147973571Y-47460771D02*
X148068809Y-47413152D01*
X148068809Y-47413152D02*
X148164047Y-47413152D01*
X192991904Y-56239580D02*
X192944285Y-56287200D01*
X192944285Y-56287200D02*
X192801428Y-56334819D01*
X192801428Y-56334819D02*
X192706190Y-56334819D01*
X192706190Y-56334819D02*
X192563333Y-56287200D01*
X192563333Y-56287200D02*
X192468095Y-56191961D01*
X192468095Y-56191961D02*
X192420476Y-56096723D01*
X192420476Y-56096723D02*
X192372857Y-55906247D01*
X192372857Y-55906247D02*
X192372857Y-55763390D01*
X192372857Y-55763390D02*
X192420476Y-55572914D01*
X192420476Y-55572914D02*
X192468095Y-55477676D01*
X192468095Y-55477676D02*
X192563333Y-55382438D01*
X192563333Y-55382438D02*
X192706190Y-55334819D01*
X192706190Y-55334819D02*
X192801428Y-55334819D01*
X192801428Y-55334819D02*
X192944285Y-55382438D01*
X192944285Y-55382438D02*
X192991904Y-55430057D01*
X193420476Y-56334819D02*
X193420476Y-55334819D01*
X193420476Y-55334819D02*
X193753809Y-56049104D01*
X193753809Y-56049104D02*
X194087142Y-55334819D01*
X194087142Y-55334819D02*
X194087142Y-56334819D01*
X194563333Y-56334819D02*
X194563333Y-55334819D01*
X194563333Y-55334819D02*
X194801428Y-55334819D01*
X194801428Y-55334819D02*
X194944285Y-55382438D01*
X194944285Y-55382438D02*
X195039523Y-55477676D01*
X195039523Y-55477676D02*
X195087142Y-55572914D01*
X195087142Y-55572914D02*
X195134761Y-55763390D01*
X195134761Y-55763390D02*
X195134761Y-55906247D01*
X195134761Y-55906247D02*
X195087142Y-56096723D01*
X195087142Y-56096723D02*
X195039523Y-56191961D01*
X195039523Y-56191961D02*
X194944285Y-56287200D01*
X194944285Y-56287200D02*
X194801428Y-56334819D01*
X194801428Y-56334819D02*
X194563333Y-56334819D01*
X195515714Y-55430057D02*
X195563333Y-55382438D01*
X195563333Y-55382438D02*
X195658571Y-55334819D01*
X195658571Y-55334819D02*
X195896666Y-55334819D01*
X195896666Y-55334819D02*
X195991904Y-55382438D01*
X195991904Y-55382438D02*
X196039523Y-55430057D01*
X196039523Y-55430057D02*
X196087142Y-55525295D01*
X196087142Y-55525295D02*
X196087142Y-55620533D01*
X196087142Y-55620533D02*
X196039523Y-55763390D01*
X196039523Y-55763390D02*
X195468095Y-56334819D01*
X195468095Y-56334819D02*
X196087142Y-56334819D01*
X227116667Y-116294819D02*
X227735714Y-116294819D01*
X227735714Y-116294819D02*
X227402381Y-116675771D01*
X227402381Y-116675771D02*
X227545238Y-116675771D01*
X227545238Y-116675771D02*
X227640476Y-116723390D01*
X227640476Y-116723390D02*
X227688095Y-116771009D01*
X227688095Y-116771009D02*
X227735714Y-116866247D01*
X227735714Y-116866247D02*
X227735714Y-117104342D01*
X227735714Y-117104342D02*
X227688095Y-117199580D01*
X227688095Y-117199580D02*
X227640476Y-117247200D01*
X227640476Y-117247200D02*
X227545238Y-117294819D01*
X227545238Y-117294819D02*
X227259524Y-117294819D01*
X227259524Y-117294819D02*
X227164286Y-117247200D01*
X227164286Y-117247200D02*
X227116667Y-117199580D01*
X177652381Y-116294819D02*
X177747619Y-116294819D01*
X177747619Y-116294819D02*
X177842857Y-116342438D01*
X177842857Y-116342438D02*
X177890476Y-116390057D01*
X177890476Y-116390057D02*
X177938095Y-116485295D01*
X177938095Y-116485295D02*
X177985714Y-116675771D01*
X177985714Y-116675771D02*
X177985714Y-116913866D01*
X177985714Y-116913866D02*
X177938095Y-117104342D01*
X177938095Y-117104342D02*
X177890476Y-117199580D01*
X177890476Y-117199580D02*
X177842857Y-117247200D01*
X177842857Y-117247200D02*
X177747619Y-117294819D01*
X177747619Y-117294819D02*
X177652381Y-117294819D01*
X177652381Y-117294819D02*
X177557143Y-117247200D01*
X177557143Y-117247200D02*
X177509524Y-117199580D01*
X177509524Y-117199580D02*
X177461905Y-117104342D01*
X177461905Y-117104342D02*
X177414286Y-116913866D01*
X177414286Y-116913866D02*
X177414286Y-116675771D01*
X177414286Y-116675771D02*
X177461905Y-116485295D01*
X177461905Y-116485295D02*
X177509524Y-116390057D01*
X177509524Y-116390057D02*
X177557143Y-116342438D01*
X177557143Y-116342438D02*
X177652381Y-116294819D01*
X226311904Y-56334819D02*
X225978571Y-55858628D01*
X225740476Y-56334819D02*
X225740476Y-55334819D01*
X225740476Y-55334819D02*
X226121428Y-55334819D01*
X226121428Y-55334819D02*
X226216666Y-55382438D01*
X226216666Y-55382438D02*
X226264285Y-55430057D01*
X226264285Y-55430057D02*
X226311904Y-55525295D01*
X226311904Y-55525295D02*
X226311904Y-55668152D01*
X226311904Y-55668152D02*
X226264285Y-55763390D01*
X226264285Y-55763390D02*
X226216666Y-55811009D01*
X226216666Y-55811009D02*
X226121428Y-55858628D01*
X226121428Y-55858628D02*
X225740476Y-55858628D01*
X227121428Y-56287200D02*
X227026190Y-56334819D01*
X227026190Y-56334819D02*
X226835714Y-56334819D01*
X226835714Y-56334819D02*
X226740476Y-56287200D01*
X226740476Y-56287200D02*
X226692857Y-56191961D01*
X226692857Y-56191961D02*
X226692857Y-55811009D01*
X226692857Y-55811009D02*
X226740476Y-55715771D01*
X226740476Y-55715771D02*
X226835714Y-55668152D01*
X226835714Y-55668152D02*
X227026190Y-55668152D01*
X227026190Y-55668152D02*
X227121428Y-55715771D01*
X227121428Y-55715771D02*
X227169047Y-55811009D01*
X227169047Y-55811009D02*
X227169047Y-55906247D01*
X227169047Y-55906247D02*
X226692857Y-56001485D01*
X227550000Y-56287200D02*
X227645238Y-56334819D01*
X227645238Y-56334819D02*
X227835714Y-56334819D01*
X227835714Y-56334819D02*
X227930952Y-56287200D01*
X227930952Y-56287200D02*
X227978571Y-56191961D01*
X227978571Y-56191961D02*
X227978571Y-56144342D01*
X227978571Y-56144342D02*
X227930952Y-56049104D01*
X227930952Y-56049104D02*
X227835714Y-56001485D01*
X227835714Y-56001485D02*
X227692857Y-56001485D01*
X227692857Y-56001485D02*
X227597619Y-55953866D01*
X227597619Y-55953866D02*
X227550000Y-55858628D01*
X227550000Y-55858628D02*
X227550000Y-55811009D01*
X227550000Y-55811009D02*
X227597619Y-55715771D01*
X227597619Y-55715771D02*
X227692857Y-55668152D01*
X227692857Y-55668152D02*
X227835714Y-55668152D01*
X227835714Y-55668152D02*
X227930952Y-55715771D01*
X228788095Y-56287200D02*
X228692857Y-56334819D01*
X228692857Y-56334819D02*
X228502381Y-56334819D01*
X228502381Y-56334819D02*
X228407143Y-56287200D01*
X228407143Y-56287200D02*
X228359524Y-56191961D01*
X228359524Y-56191961D02*
X228359524Y-55811009D01*
X228359524Y-55811009D02*
X228407143Y-55715771D01*
X228407143Y-55715771D02*
X228502381Y-55668152D01*
X228502381Y-55668152D02*
X228692857Y-55668152D01*
X228692857Y-55668152D02*
X228788095Y-55715771D01*
X228788095Y-55715771D02*
X228835714Y-55811009D01*
X228835714Y-55811009D02*
X228835714Y-55906247D01*
X228835714Y-55906247D02*
X228359524Y-56001485D01*
X229121429Y-55668152D02*
X229502381Y-55668152D01*
X229264286Y-55334819D02*
X229264286Y-56191961D01*
X229264286Y-56191961D02*
X229311905Y-56287200D01*
X229311905Y-56287200D02*
X229407143Y-56334819D01*
X229407143Y-56334819D02*
X229502381Y-56334819D01*
X71628095Y-50254819D02*
X71628095Y-51064342D01*
X71628095Y-51064342D02*
X71675714Y-51159580D01*
X71675714Y-51159580D02*
X71723333Y-51207200D01*
X71723333Y-51207200D02*
X71818571Y-51254819D01*
X71818571Y-51254819D02*
X72009047Y-51254819D01*
X72009047Y-51254819D02*
X72104285Y-51207200D01*
X72104285Y-51207200D02*
X72151904Y-51159580D01*
X72151904Y-51159580D02*
X72199523Y-51064342D01*
X72199523Y-51064342D02*
X72199523Y-50254819D01*
X73151904Y-50254819D02*
X72675714Y-50254819D01*
X72675714Y-50254819D02*
X72628095Y-50731009D01*
X72628095Y-50731009D02*
X72675714Y-50683390D01*
X72675714Y-50683390D02*
X72770952Y-50635771D01*
X72770952Y-50635771D02*
X73009047Y-50635771D01*
X73009047Y-50635771D02*
X73104285Y-50683390D01*
X73104285Y-50683390D02*
X73151904Y-50731009D01*
X73151904Y-50731009D02*
X73199523Y-50826247D01*
X73199523Y-50826247D02*
X73199523Y-51064342D01*
X73199523Y-51064342D02*
X73151904Y-51159580D01*
X73151904Y-51159580D02*
X73104285Y-51207200D01*
X73104285Y-51207200D02*
X73009047Y-51254819D01*
X73009047Y-51254819D02*
X72770952Y-51254819D01*
X72770952Y-51254819D02*
X72675714Y-51207200D01*
X72675714Y-51207200D02*
X72628095Y-51159580D01*
X194715714Y-117294819D02*
X194144286Y-117294819D01*
X194430000Y-117294819D02*
X194430000Y-116294819D01*
X194430000Y-116294819D02*
X194334762Y-116437676D01*
X194334762Y-116437676D02*
X194239524Y-116532914D01*
X194239524Y-116532914D02*
X194144286Y-116580533D01*
X176681904Y-56239580D02*
X176634285Y-56287200D01*
X176634285Y-56287200D02*
X176491428Y-56334819D01*
X176491428Y-56334819D02*
X176396190Y-56334819D01*
X176396190Y-56334819D02*
X176253333Y-56287200D01*
X176253333Y-56287200D02*
X176158095Y-56191961D01*
X176158095Y-56191961D02*
X176110476Y-56096723D01*
X176110476Y-56096723D02*
X176062857Y-55906247D01*
X176062857Y-55906247D02*
X176062857Y-55763390D01*
X176062857Y-55763390D02*
X176110476Y-55572914D01*
X176110476Y-55572914D02*
X176158095Y-55477676D01*
X176158095Y-55477676D02*
X176253333Y-55382438D01*
X176253333Y-55382438D02*
X176396190Y-55334819D01*
X176396190Y-55334819D02*
X176491428Y-55334819D01*
X176491428Y-55334819D02*
X176634285Y-55382438D01*
X176634285Y-55382438D02*
X176681904Y-55430057D01*
X177110476Y-56334819D02*
X177110476Y-55334819D01*
X177110476Y-55334819D02*
X177443809Y-56049104D01*
X177443809Y-56049104D02*
X177777142Y-55334819D01*
X177777142Y-55334819D02*
X177777142Y-56334819D01*
X178253333Y-56334819D02*
X178253333Y-55334819D01*
X178253333Y-55334819D02*
X178491428Y-55334819D01*
X178491428Y-55334819D02*
X178634285Y-55382438D01*
X178634285Y-55382438D02*
X178729523Y-55477676D01*
X178729523Y-55477676D02*
X178777142Y-55572914D01*
X178777142Y-55572914D02*
X178824761Y-55763390D01*
X178824761Y-55763390D02*
X178824761Y-55906247D01*
X178824761Y-55906247D02*
X178777142Y-56096723D01*
X178777142Y-56096723D02*
X178729523Y-56191961D01*
X178729523Y-56191961D02*
X178634285Y-56287200D01*
X178634285Y-56287200D02*
X178491428Y-56334819D01*
X178491428Y-56334819D02*
X178253333Y-56334819D01*
X179777142Y-56334819D02*
X179205714Y-56334819D01*
X179491428Y-56334819D02*
X179491428Y-55334819D01*
X179491428Y-55334819D02*
X179396190Y-55477676D01*
X179396190Y-55477676D02*
X179300952Y-55572914D01*
X179300952Y-55572914D02*
X179205714Y-55620533D01*
X194168095Y-71574819D02*
X194168095Y-70574819D01*
X194168095Y-70574819D02*
X194406190Y-70574819D01*
X194406190Y-70574819D02*
X194549047Y-70622438D01*
X194549047Y-70622438D02*
X194644285Y-70717676D01*
X194644285Y-70717676D02*
X194691904Y-70812914D01*
X194691904Y-70812914D02*
X194739523Y-71003390D01*
X194739523Y-71003390D02*
X194739523Y-71146247D01*
X194739523Y-71146247D02*
X194691904Y-71336723D01*
X194691904Y-71336723D02*
X194644285Y-71431961D01*
X194644285Y-71431961D02*
X194549047Y-71527200D01*
X194549047Y-71527200D02*
X194406190Y-71574819D01*
X194406190Y-71574819D02*
X194168095Y-71574819D01*
X194239524Y-86814819D02*
X194430000Y-86814819D01*
X194430000Y-86814819D02*
X194525238Y-86767200D01*
X194525238Y-86767200D02*
X194572857Y-86719580D01*
X194572857Y-86719580D02*
X194668095Y-86576723D01*
X194668095Y-86576723D02*
X194715714Y-86386247D01*
X194715714Y-86386247D02*
X194715714Y-86005295D01*
X194715714Y-86005295D02*
X194668095Y-85910057D01*
X194668095Y-85910057D02*
X194620476Y-85862438D01*
X194620476Y-85862438D02*
X194525238Y-85814819D01*
X194525238Y-85814819D02*
X194334762Y-85814819D01*
X194334762Y-85814819D02*
X194239524Y-85862438D01*
X194239524Y-85862438D02*
X194191905Y-85910057D01*
X194191905Y-85910057D02*
X194144286Y-86005295D01*
X194144286Y-86005295D02*
X194144286Y-86243390D01*
X194144286Y-86243390D02*
X194191905Y-86338628D01*
X194191905Y-86338628D02*
X194239524Y-86386247D01*
X194239524Y-86386247D02*
X194334762Y-86433866D01*
X194334762Y-86433866D02*
X194525238Y-86433866D01*
X194525238Y-86433866D02*
X194620476Y-86386247D01*
X194620476Y-86386247D02*
X194668095Y-86338628D01*
X194668095Y-86338628D02*
X194715714Y-86243390D01*
X118141905Y-50254819D02*
X118141905Y-51064342D01*
X118141905Y-51064342D02*
X118189524Y-51159580D01*
X118189524Y-51159580D02*
X118237143Y-51207200D01*
X118237143Y-51207200D02*
X118332381Y-51254819D01*
X118332381Y-51254819D02*
X118522857Y-51254819D01*
X118522857Y-51254819D02*
X118618095Y-51207200D01*
X118618095Y-51207200D02*
X118665714Y-51159580D01*
X118665714Y-51159580D02*
X118713333Y-51064342D01*
X118713333Y-51064342D02*
X118713333Y-50254819D01*
X119713333Y-51254819D02*
X119141905Y-51254819D01*
X119427619Y-51254819D02*
X119427619Y-50254819D01*
X119427619Y-50254819D02*
X119332381Y-50397676D01*
X119332381Y-50397676D02*
X119237143Y-50492914D01*
X119237143Y-50492914D02*
X119141905Y-50540533D01*
X120094286Y-50350057D02*
X120141905Y-50302438D01*
X120141905Y-50302438D02*
X120237143Y-50254819D01*
X120237143Y-50254819D02*
X120475238Y-50254819D01*
X120475238Y-50254819D02*
X120570476Y-50302438D01*
X120570476Y-50302438D02*
X120618095Y-50350057D01*
X120618095Y-50350057D02*
X120665714Y-50445295D01*
X120665714Y-50445295D02*
X120665714Y-50540533D01*
X120665714Y-50540533D02*
X120618095Y-50683390D01*
X120618095Y-50683390D02*
X120046667Y-51254819D01*
X120046667Y-51254819D02*
X120665714Y-51254819D01*
X178229523Y-71479580D02*
X178181904Y-71527200D01*
X178181904Y-71527200D02*
X178039047Y-71574819D01*
X178039047Y-71574819D02*
X177943809Y-71574819D01*
X177943809Y-71574819D02*
X177800952Y-71527200D01*
X177800952Y-71527200D02*
X177705714Y-71431961D01*
X177705714Y-71431961D02*
X177658095Y-71336723D01*
X177658095Y-71336723D02*
X177610476Y-71146247D01*
X177610476Y-71146247D02*
X177610476Y-71003390D01*
X177610476Y-71003390D02*
X177658095Y-70812914D01*
X177658095Y-70812914D02*
X177705714Y-70717676D01*
X177705714Y-70717676D02*
X177800952Y-70622438D01*
X177800952Y-70622438D02*
X177943809Y-70574819D01*
X177943809Y-70574819D02*
X178039047Y-70574819D01*
X178039047Y-70574819D02*
X178181904Y-70622438D01*
X178181904Y-70622438D02*
X178229523Y-70670057D01*
X209701904Y-56239580D02*
X209654285Y-56287200D01*
X209654285Y-56287200D02*
X209511428Y-56334819D01*
X209511428Y-56334819D02*
X209416190Y-56334819D01*
X209416190Y-56334819D02*
X209273333Y-56287200D01*
X209273333Y-56287200D02*
X209178095Y-56191961D01*
X209178095Y-56191961D02*
X209130476Y-56096723D01*
X209130476Y-56096723D02*
X209082857Y-55906247D01*
X209082857Y-55906247D02*
X209082857Y-55763390D01*
X209082857Y-55763390D02*
X209130476Y-55572914D01*
X209130476Y-55572914D02*
X209178095Y-55477676D01*
X209178095Y-55477676D02*
X209273333Y-55382438D01*
X209273333Y-55382438D02*
X209416190Y-55334819D01*
X209416190Y-55334819D02*
X209511428Y-55334819D01*
X209511428Y-55334819D02*
X209654285Y-55382438D01*
X209654285Y-55382438D02*
X209701904Y-55430057D01*
X210130476Y-56334819D02*
X210130476Y-55334819D01*
X210130476Y-55334819D02*
X210463809Y-56049104D01*
X210463809Y-56049104D02*
X210797142Y-55334819D01*
X210797142Y-55334819D02*
X210797142Y-56334819D01*
X211273333Y-56334819D02*
X211273333Y-55334819D01*
X211273333Y-55334819D02*
X211511428Y-55334819D01*
X211511428Y-55334819D02*
X211654285Y-55382438D01*
X211654285Y-55382438D02*
X211749523Y-55477676D01*
X211749523Y-55477676D02*
X211797142Y-55572914D01*
X211797142Y-55572914D02*
X211844761Y-55763390D01*
X211844761Y-55763390D02*
X211844761Y-55906247D01*
X211844761Y-55906247D02*
X211797142Y-56096723D01*
X211797142Y-56096723D02*
X211749523Y-56191961D01*
X211749523Y-56191961D02*
X211654285Y-56287200D01*
X211654285Y-56287200D02*
X211511428Y-56334819D01*
X211511428Y-56334819D02*
X211273333Y-56334819D01*
X212178095Y-55334819D02*
X212797142Y-55334819D01*
X212797142Y-55334819D02*
X212463809Y-55715771D01*
X212463809Y-55715771D02*
X212606666Y-55715771D01*
X212606666Y-55715771D02*
X212701904Y-55763390D01*
X212701904Y-55763390D02*
X212749523Y-55811009D01*
X212749523Y-55811009D02*
X212797142Y-55906247D01*
X212797142Y-55906247D02*
X212797142Y-56144342D01*
X212797142Y-56144342D02*
X212749523Y-56239580D01*
X212749523Y-56239580D02*
X212701904Y-56287200D01*
X212701904Y-56287200D02*
X212606666Y-56334819D01*
X212606666Y-56334819D02*
X212320952Y-56334819D01*
X212320952Y-56334819D02*
X212225714Y-56287200D01*
X212225714Y-56287200D02*
X212178095Y-56239580D01*
X60198095Y-50254819D02*
X60198095Y-51064342D01*
X60198095Y-51064342D02*
X60245714Y-51159580D01*
X60245714Y-51159580D02*
X60293333Y-51207200D01*
X60293333Y-51207200D02*
X60388571Y-51254819D01*
X60388571Y-51254819D02*
X60579047Y-51254819D01*
X60579047Y-51254819D02*
X60674285Y-51207200D01*
X60674285Y-51207200D02*
X60721904Y-51159580D01*
X60721904Y-51159580D02*
X60769523Y-51064342D01*
X60769523Y-51064342D02*
X60769523Y-50254819D01*
X61674285Y-50588152D02*
X61674285Y-51254819D01*
X61436190Y-50207200D02*
X61198095Y-50921485D01*
X61198095Y-50921485D02*
X61817142Y-50921485D01*
X178110476Y-101388152D02*
X178110476Y-102054819D01*
X177872381Y-101007200D02*
X177634286Y-101721485D01*
X177634286Y-101721485D02*
X178253333Y-101721485D01*
X227592857Y-71051009D02*
X227259524Y-71051009D01*
X227259524Y-71574819D02*
X227259524Y-70574819D01*
X227259524Y-70574819D02*
X227735714Y-70574819D01*
X83058095Y-50254819D02*
X83058095Y-51064342D01*
X83058095Y-51064342D02*
X83105714Y-51159580D01*
X83105714Y-51159580D02*
X83153333Y-51207200D01*
X83153333Y-51207200D02*
X83248571Y-51254819D01*
X83248571Y-51254819D02*
X83439047Y-51254819D01*
X83439047Y-51254819D02*
X83534285Y-51207200D01*
X83534285Y-51207200D02*
X83581904Y-51159580D01*
X83581904Y-51159580D02*
X83629523Y-51064342D01*
X83629523Y-51064342D02*
X83629523Y-50254819D01*
X84534285Y-50254819D02*
X84343809Y-50254819D01*
X84343809Y-50254819D02*
X84248571Y-50302438D01*
X84248571Y-50302438D02*
X84200952Y-50350057D01*
X84200952Y-50350057D02*
X84105714Y-50492914D01*
X84105714Y-50492914D02*
X84058095Y-50683390D01*
X84058095Y-50683390D02*
X84058095Y-51064342D01*
X84058095Y-51064342D02*
X84105714Y-51159580D01*
X84105714Y-51159580D02*
X84153333Y-51207200D01*
X84153333Y-51207200D02*
X84248571Y-51254819D01*
X84248571Y-51254819D02*
X84439047Y-51254819D01*
X84439047Y-51254819D02*
X84534285Y-51207200D01*
X84534285Y-51207200D02*
X84581904Y-51159580D01*
X84581904Y-51159580D02*
X84629523Y-51064342D01*
X84629523Y-51064342D02*
X84629523Y-50826247D01*
X84629523Y-50826247D02*
X84581904Y-50731009D01*
X84581904Y-50731009D02*
X84534285Y-50683390D01*
X84534285Y-50683390D02*
X84439047Y-50635771D01*
X84439047Y-50635771D02*
X84248571Y-50635771D01*
X84248571Y-50635771D02*
X84153333Y-50683390D01*
X84153333Y-50683390D02*
X84105714Y-50731009D01*
X84105714Y-50731009D02*
X84058095Y-50826247D01*
X210654286Y-116390057D02*
X210701905Y-116342438D01*
X210701905Y-116342438D02*
X210797143Y-116294819D01*
X210797143Y-116294819D02*
X211035238Y-116294819D01*
X211035238Y-116294819D02*
X211130476Y-116342438D01*
X211130476Y-116342438D02*
X211178095Y-116390057D01*
X211178095Y-116390057D02*
X211225714Y-116485295D01*
X211225714Y-116485295D02*
X211225714Y-116580533D01*
X211225714Y-116580533D02*
X211178095Y-116723390D01*
X211178095Y-116723390D02*
X210606667Y-117294819D01*
X210606667Y-117294819D02*
X211225714Y-117294819D01*
D11*
G04 #@! TO.C,SW4*
X171690000Y-80250000D02*
X171690000Y-82760000D01*
X171690000Y-80250000D02*
X183910000Y-80250000D01*
X171690000Y-85060000D02*
X171690000Y-87660000D01*
X171690000Y-89960000D02*
X171690000Y-92470000D01*
X183910000Y-80250000D02*
X183910000Y-82760000D01*
X183910000Y-85060000D02*
X183910000Y-87660000D01*
X183910000Y-89960000D02*
X183910000Y-92470000D01*
X183910000Y-92470000D02*
X171690000Y-92470000D01*
X181350000Y-86360000D02*
G75*
G02*
X174250000Y-86360000I-3550000J0D01*
G01*
X174250000Y-86360000D02*
G75*
G02*
X181350000Y-86360000I3550000J0D01*
G01*
G04 #@! TO.C,SW19*
X221220000Y-80250000D02*
X221220000Y-82760000D01*
X221220000Y-80250000D02*
X233440000Y-80250000D01*
X221220000Y-85060000D02*
X221220000Y-87660000D01*
X221220000Y-89960000D02*
X221220000Y-92470000D01*
X233440000Y-80250000D02*
X233440000Y-82760000D01*
X233440000Y-85060000D02*
X233440000Y-87660000D01*
X233440000Y-89960000D02*
X233440000Y-92470000D01*
X233440000Y-92470000D02*
X221220000Y-92470000D01*
X230880000Y-86360000D02*
G75*
G02*
X223780000Y-86360000I-3550000J0D01*
G01*
X223780000Y-86360000D02*
G75*
G02*
X230880000Y-86360000I3550000J0D01*
G01*
G04 #@! TO.C,U11*
X102487500Y-49300000D02*
X102487500Y-52800000D01*
X102867500Y-48925000D02*
X112907500Y-48925000D01*
X102867500Y-67915000D02*
X102867500Y-48925000D01*
X112907500Y-48925000D02*
X112907500Y-67915000D01*
X112907500Y-67915000D02*
X102867500Y-67915000D01*
G04 #@! TO.C,SW18*
X221220000Y-95490000D02*
X221220000Y-98000000D01*
X221220000Y-95490000D02*
X233440000Y-95490000D01*
X221220000Y-100300000D02*
X221220000Y-102900000D01*
X221220000Y-105200000D02*
X221220000Y-107710000D01*
X233440000Y-95490000D02*
X233440000Y-98000000D01*
X233440000Y-100300000D02*
X233440000Y-102900000D01*
X233440000Y-105200000D02*
X233440000Y-107710000D01*
X233440000Y-107710000D02*
X221220000Y-107710000D01*
X230880000Y-101600000D02*
G75*
G02*
X223780000Y-101600000I-3550000J0D01*
G01*
X223780000Y-101600000D02*
G75*
G02*
X230880000Y-101600000I3550000J0D01*
G01*
G04 #@! TO.C,SW15*
X204710000Y-65010000D02*
X204710000Y-67520000D01*
X204710000Y-65010000D02*
X216930000Y-65010000D01*
X204710000Y-69820000D02*
X204710000Y-72420000D01*
X204710000Y-74720000D02*
X204710000Y-77230000D01*
X216930000Y-65010000D02*
X216930000Y-67520000D01*
X216930000Y-69820000D02*
X216930000Y-72420000D01*
X216930000Y-74720000D02*
X216930000Y-77230000D01*
X216930000Y-77230000D02*
X204710000Y-77230000D01*
X214370000Y-71120000D02*
G75*
G02*
X207270000Y-71120000I-3550000J0D01*
G01*
X207270000Y-71120000D02*
G75*
G02*
X214370000Y-71120000I3550000J0D01*
G01*
G04 #@! TO.C,SW14*
X204710000Y-80250000D02*
X204710000Y-82760000D01*
X204710000Y-80250000D02*
X216930000Y-80250000D01*
X204710000Y-85060000D02*
X204710000Y-87660000D01*
X204710000Y-89960000D02*
X204710000Y-92470000D01*
X216930000Y-80250000D02*
X216930000Y-82760000D01*
X216930000Y-85060000D02*
X216930000Y-87660000D01*
X216930000Y-89960000D02*
X216930000Y-92470000D01*
X216930000Y-92470000D02*
X204710000Y-92470000D01*
X214370000Y-86360000D02*
G75*
G02*
X207270000Y-86360000I-3550000J0D01*
G01*
X207270000Y-86360000D02*
G75*
G02*
X214370000Y-86360000I3550000J0D01*
G01*
G04 #@! TO.C,SW8*
X188200000Y-95490000D02*
X188200000Y-98000000D01*
X188200000Y-95490000D02*
X200420000Y-95490000D01*
X188200000Y-100300000D02*
X188200000Y-102900000D01*
X188200000Y-105200000D02*
X188200000Y-107710000D01*
X200420000Y-95490000D02*
X200420000Y-98000000D01*
X200420000Y-100300000D02*
X200420000Y-102900000D01*
X200420000Y-105200000D02*
X200420000Y-107710000D01*
X200420000Y-107710000D02*
X188200000Y-107710000D01*
X197860000Y-101600000D02*
G75*
G02*
X190760000Y-101600000I-3550000J0D01*
G01*
X190760000Y-101600000D02*
G75*
G02*
X197860000Y-101600000I3550000J0D01*
G01*
G04 #@! TO.C,U10*
X90852500Y-49300000D02*
X90852500Y-52800000D01*
X91232500Y-48925000D02*
X101272500Y-48925000D01*
X91232500Y-67915000D02*
X91232500Y-48925000D01*
X101272500Y-48925000D02*
X101272500Y-67915000D01*
X101272500Y-67915000D02*
X91232500Y-67915000D01*
G04 #@! TO.C,SW13*
X204710000Y-95490000D02*
X204710000Y-98000000D01*
X204710000Y-95490000D02*
X216930000Y-95490000D01*
X204710000Y-100300000D02*
X204710000Y-102900000D01*
X204710000Y-105200000D02*
X204710000Y-107710000D01*
X216930000Y-95490000D02*
X216930000Y-98000000D01*
X216930000Y-100300000D02*
X216930000Y-102900000D01*
X216930000Y-105200000D02*
X216930000Y-107710000D01*
X216930000Y-107710000D02*
X204710000Y-107710000D01*
X214370000Y-101600000D02*
G75*
G02*
X207270000Y-101600000I-3550000J0D01*
G01*
X207270000Y-101600000D02*
G75*
G02*
X214370000Y-101600000I3550000J0D01*
G01*
G04 #@! TO.C,D1*
X143485000Y-50525000D02*
X143485000Y-53615000D01*
X143485000Y-50525170D02*
G75*
G02*
X149035000Y-52069952I2560000J-1544830D01*
G01*
X149035000Y-52070048D02*
G75*
G02*
X143485000Y-53614830I-2990000J48D01*
G01*
X148545000Y-52070000D02*
G75*
G02*
X143545000Y-52070000I-2500000J0D01*
G01*
X143545000Y-52070000D02*
G75*
G02*
X148545000Y-52070000I2500000J0D01*
G01*
G04 #@! TO.C,SW11*
X188000000Y-49690000D02*
X188000000Y-52200000D01*
X188000000Y-49690000D02*
X200220000Y-49690000D01*
X188000000Y-54500000D02*
X188000000Y-57100000D01*
X188000000Y-59400000D02*
X188000000Y-61910000D01*
X200220000Y-49690000D02*
X200220000Y-52200000D01*
X200220000Y-54500000D02*
X200220000Y-57100000D01*
X200220000Y-59400000D02*
X200220000Y-61910000D01*
X200220000Y-61910000D02*
X188000000Y-61910000D01*
X197660000Y-55800000D02*
G75*
G02*
X190560000Y-55800000I-3550000J0D01*
G01*
X190560000Y-55800000D02*
G75*
G02*
X197660000Y-55800000I3550000J0D01*
G01*
G04 #@! TO.C,SW17*
X221220000Y-110730000D02*
X221220000Y-113240000D01*
X221220000Y-110730000D02*
X233440000Y-110730000D01*
X221220000Y-115540000D02*
X221220000Y-118140000D01*
X221220000Y-120440000D02*
X221220000Y-122950000D01*
X233440000Y-110730000D02*
X233440000Y-113240000D01*
X233440000Y-115540000D02*
X233440000Y-118140000D01*
X233440000Y-120440000D02*
X233440000Y-122950000D01*
X233440000Y-122950000D02*
X221220000Y-122950000D01*
X230880000Y-116840000D02*
G75*
G02*
X223780000Y-116840000I-3550000J0D01*
G01*
X223780000Y-116840000D02*
G75*
G02*
X230880000Y-116840000I3550000J0D01*
G01*
G04 #@! TO.C,SW2*
X171490000Y-110650000D02*
X171490000Y-113160000D01*
X171490000Y-110650000D02*
X183710000Y-110650000D01*
X171490000Y-115460000D02*
X171490000Y-118060000D01*
X171490000Y-120360000D02*
X171490000Y-122870000D01*
X183710000Y-110650000D02*
X183710000Y-113160000D01*
X183710000Y-115460000D02*
X183710000Y-118060000D01*
X183710000Y-120360000D02*
X183710000Y-122870000D01*
X183710000Y-122870000D02*
X171490000Y-122870000D01*
X181150000Y-116760000D02*
G75*
G02*
X174050000Y-116760000I-3550000J0D01*
G01*
X174050000Y-116760000D02*
G75*
G02*
X181150000Y-116760000I3550000J0D01*
G01*
G04 #@! TO.C,SW1*
X221320000Y-49810000D02*
X221320000Y-52320000D01*
X221320000Y-49810000D02*
X233540000Y-49810000D01*
X221320000Y-54620000D02*
X221320000Y-57220000D01*
X221320000Y-59520000D02*
X221320000Y-62030000D01*
X233540000Y-49810000D02*
X233540000Y-52320000D01*
X233540000Y-54620000D02*
X233540000Y-57220000D01*
X233540000Y-59520000D02*
X233540000Y-62030000D01*
X233540000Y-62030000D02*
X221320000Y-62030000D01*
X230980000Y-55920000D02*
G75*
G02*
X223880000Y-55920000I-3550000J0D01*
G01*
X223880000Y-55920000D02*
G75*
G02*
X230980000Y-55920000I3550000J0D01*
G01*
G04 #@! TO.C,U5*
X67582500Y-49300000D02*
X67582500Y-52800000D01*
X67962500Y-48925000D02*
X78002500Y-48925000D01*
X67962500Y-67915000D02*
X67962500Y-48925000D01*
X78002500Y-48925000D02*
X78002500Y-67915000D01*
X78002500Y-67915000D02*
X67962500Y-67915000D01*
G04 #@! TO.C,SW7*
X188200000Y-110730000D02*
X188200000Y-113240000D01*
X188200000Y-110730000D02*
X200420000Y-110730000D01*
X188200000Y-115540000D02*
X188200000Y-118140000D01*
X188200000Y-120440000D02*
X188200000Y-122950000D01*
X200420000Y-110730000D02*
X200420000Y-113240000D01*
X200420000Y-115540000D02*
X200420000Y-118140000D01*
X200420000Y-120440000D02*
X200420000Y-122950000D01*
X200420000Y-122950000D02*
X188200000Y-122950000D01*
X197860000Y-116840000D02*
G75*
G02*
X190760000Y-116840000I-3550000J0D01*
G01*
X190760000Y-116840000D02*
G75*
G02*
X197860000Y-116840000I3550000J0D01*
G01*
G04 #@! TO.C,SW6*
X171690000Y-49770000D02*
X171690000Y-52280000D01*
X171690000Y-49770000D02*
X183910000Y-49770000D01*
X171690000Y-54580000D02*
X171690000Y-57180000D01*
X171690000Y-59480000D02*
X171690000Y-61990000D01*
X183910000Y-49770000D02*
X183910000Y-52280000D01*
X183910000Y-54580000D02*
X183910000Y-57180000D01*
X183910000Y-59480000D02*
X183910000Y-61990000D01*
X183910000Y-61990000D02*
X171690000Y-61990000D01*
X181350000Y-55880000D02*
G75*
G02*
X174250000Y-55880000I-3550000J0D01*
G01*
X174250000Y-55880000D02*
G75*
G02*
X181350000Y-55880000I3550000J0D01*
G01*
G04 #@! TO.C,SW10*
X188200000Y-65010000D02*
X188200000Y-67520000D01*
X188200000Y-65010000D02*
X200420000Y-65010000D01*
X188200000Y-69820000D02*
X188200000Y-72420000D01*
X188200000Y-74720000D02*
X188200000Y-77230000D01*
X200420000Y-65010000D02*
X200420000Y-67520000D01*
X200420000Y-69820000D02*
X200420000Y-72420000D01*
X200420000Y-74720000D02*
X200420000Y-77230000D01*
X200420000Y-77230000D02*
X188200000Y-77230000D01*
X197860000Y-71120000D02*
G75*
G02*
X190760000Y-71120000I-3550000J0D01*
G01*
X190760000Y-71120000D02*
G75*
G02*
X197860000Y-71120000I3550000J0D01*
G01*
G04 #@! TO.C,SW9*
X188200000Y-80250000D02*
X188200000Y-82760000D01*
X188200000Y-80250000D02*
X200420000Y-80250000D01*
X188200000Y-85060000D02*
X188200000Y-87660000D01*
X188200000Y-89960000D02*
X188200000Y-92470000D01*
X200420000Y-80250000D02*
X200420000Y-82760000D01*
X200420000Y-85060000D02*
X200420000Y-87660000D01*
X200420000Y-89960000D02*
X200420000Y-92470000D01*
X200420000Y-92470000D02*
X188200000Y-92470000D01*
X197860000Y-86360000D02*
G75*
G02*
X190760000Y-86360000I-3550000J0D01*
G01*
X190760000Y-86360000D02*
G75*
G02*
X197860000Y-86360000I3550000J0D01*
G01*
G04 #@! TO.C,U12*
X114122500Y-49300000D02*
X114122500Y-52800000D01*
X114502500Y-48925000D02*
X124542500Y-48925000D01*
X114502500Y-67915000D02*
X114502500Y-48925000D01*
X124542500Y-48925000D02*
X124542500Y-67915000D01*
X124542500Y-67915000D02*
X114502500Y-67915000D01*
G04 #@! TO.C,SW5*
X171690000Y-65010000D02*
X171690000Y-67520000D01*
X171690000Y-65010000D02*
X183910000Y-65010000D01*
X171690000Y-69820000D02*
X171690000Y-72420000D01*
X171690000Y-74720000D02*
X171690000Y-77230000D01*
X183910000Y-65010000D02*
X183910000Y-67520000D01*
X183910000Y-69820000D02*
X183910000Y-72420000D01*
X183910000Y-74720000D02*
X183910000Y-77230000D01*
X183910000Y-77230000D02*
X171690000Y-77230000D01*
X181350000Y-71120000D02*
G75*
G02*
X174250000Y-71120000I-3550000J0D01*
G01*
X174250000Y-71120000D02*
G75*
G02*
X181350000Y-71120000I3550000J0D01*
G01*
G04 #@! TO.C,SW16*
X204710000Y-49770000D02*
X204710000Y-52280000D01*
X204710000Y-49770000D02*
X216930000Y-49770000D01*
X204710000Y-54580000D02*
X204710000Y-57180000D01*
X204710000Y-59480000D02*
X204710000Y-61990000D01*
X216930000Y-49770000D02*
X216930000Y-52280000D01*
X216930000Y-54580000D02*
X216930000Y-57180000D01*
X216930000Y-59480000D02*
X216930000Y-61990000D01*
X216930000Y-61990000D02*
X204710000Y-61990000D01*
X214370000Y-55880000D02*
G75*
G02*
X207270000Y-55880000I-3550000J0D01*
G01*
X207270000Y-55880000D02*
G75*
G02*
X214370000Y-55880000I3550000J0D01*
G01*
G04 #@! TO.C,U4*
X55947500Y-49300000D02*
X55947500Y-52800000D01*
X56327500Y-48925000D02*
X66367500Y-48925000D01*
X56327500Y-67915000D02*
X56327500Y-48925000D01*
X66367500Y-48925000D02*
X66367500Y-67915000D01*
X66367500Y-67915000D02*
X56327500Y-67915000D01*
G04 #@! TO.C,SW3*
X171690000Y-95490000D02*
X171690000Y-98000000D01*
X171690000Y-95490000D02*
X183910000Y-95490000D01*
X171690000Y-100300000D02*
X171690000Y-102900000D01*
X171690000Y-105200000D02*
X171690000Y-107710000D01*
X183910000Y-95490000D02*
X183910000Y-98000000D01*
X183910000Y-100300000D02*
X183910000Y-102900000D01*
X183910000Y-105200000D02*
X183910000Y-107710000D01*
X183910000Y-107710000D02*
X171690000Y-107710000D01*
X181350000Y-101600000D02*
G75*
G02*
X174250000Y-101600000I-3550000J0D01*
G01*
X174250000Y-101600000D02*
G75*
G02*
X181350000Y-101600000I3550000J0D01*
G01*
G04 #@! TO.C,SW20*
X221220000Y-65010000D02*
X221220000Y-67520000D01*
X221220000Y-65010000D02*
X233440000Y-65010000D01*
X221220000Y-69820000D02*
X221220000Y-72420000D01*
X221220000Y-74720000D02*
X221220000Y-77230000D01*
X233440000Y-65010000D02*
X233440000Y-67520000D01*
X233440000Y-69820000D02*
X233440000Y-72420000D01*
X233440000Y-74720000D02*
X233440000Y-77230000D01*
X233440000Y-77230000D02*
X221220000Y-77230000D01*
X230880000Y-71120000D02*
G75*
G02*
X223780000Y-71120000I-3550000J0D01*
G01*
X223780000Y-71120000D02*
G75*
G02*
X230880000Y-71120000I3550000J0D01*
G01*
G04 #@! TO.C,U6*
X79217500Y-49300000D02*
X79217500Y-52800000D01*
X79597500Y-48925000D02*
X89637500Y-48925000D01*
X79597500Y-67915000D02*
X79597500Y-48925000D01*
X89637500Y-48925000D02*
X89637500Y-67915000D01*
X89637500Y-67915000D02*
X79597500Y-67915000D01*
G04 #@! TO.C,SW12*
X204710000Y-110730000D02*
X204710000Y-113240000D01*
X204710000Y-110730000D02*
X216930000Y-110730000D01*
X204710000Y-115540000D02*
X204710000Y-118140000D01*
X204710000Y-120440000D02*
X204710000Y-122950000D01*
X216930000Y-110730000D02*
X216930000Y-113240000D01*
X216930000Y-115540000D02*
X216930000Y-118140000D01*
X216930000Y-120440000D02*
X216930000Y-122950000D01*
X216930000Y-122950000D02*
X204710000Y-122950000D01*
X214370000Y-116840000D02*
G75*
G02*
X207270000Y-116840000I-3550000J0D01*
G01*
X207270000Y-116840000D02*
G75*
G02*
X214370000Y-116840000I3550000J0D01*
G01*
G04 #@! TD*
M02*
