G04 #@! TF.GenerationSoftware,KiCad,Pcbnew,8.0.9-8.0.9-0~ubuntu22.04.1*
G04 #@! TF.CreationDate,2025-05-11T08:50:37+10:00*
G04 #@! TF.ProjectId,Generic_Front_Panel,47656e65-7269-4635-9f46-726f6e745f50,rev?*
G04 #@! TF.SameCoordinates,Original*
G04 #@! TF.FileFunction,Soldermask,Bot*
G04 #@! TF.FilePolarity,Negative*
%FSLAX46Y46*%
G04 Gerber Fmt 4.6, Leading zero omitted, Abs format (unit mm)*
G04 Created by KiCad (PCBNEW 8.0.9-8.0.9-0~ubuntu22.04.1) date 2025-05-11 08:50:37*
%MOMM*%
%LPD*%
G01*
G04 APERTURE LIST*
G04 Aperture macros list*
%AMFreePoly0*
4,1,19,0.500000,-0.750000,0.000000,-0.750000,0.000000,-0.744911,-0.071157,-0.744911,-0.207708,-0.704816,-0.327430,-0.627875,-0.420627,-0.520320,-0.479746,-0.390866,-0.500000,-0.250000,-0.500000,0.250000,-0.479746,0.390866,-0.420627,0.520320,-0.327430,0.627875,-0.207708,0.704816,-0.071157,0.744911,0.000000,0.744911,0.000000,0.750000,0.500000,0.750000,0.500000,-0.750000,0.500000,-0.750000,
$1*%
%AMFreePoly1*
4,1,19,0.000000,0.744911,0.071157,0.744911,0.207708,0.704816,0.327430,0.627875,0.420627,0.520320,0.479746,0.390866,0.500000,0.250000,0.500000,-0.250000,0.479746,-0.390866,0.420627,-0.520320,0.327430,-0.627875,0.207708,-0.704816,0.071157,-0.744911,0.000000,-0.744911,0.000000,-0.750000,-0.500000,-0.750000,-0.500000,0.750000,0.000000,0.750000,0.000000,0.744911,0.000000,0.744911,
$1*%
G04 Aperture macros list end*
%ADD10O,3.200000X1.900000*%
%ADD11R,1.500000X1.500000*%
%ADD12C,1.500000*%
%ADD13C,3.000000*%
%ADD14R,1.800000X1.800000*%
%ADD15C,1.800000*%
%ADD16FreePoly0,180.000000*%
%ADD17FreePoly1,180.000000*%
%ADD18R,1.600000X1.600000*%
%ADD19O,1.600000X1.600000*%
%ADD20C,1.600000*%
%ADD21R,1.700000X1.700000*%
%ADD22O,1.700000X1.700000*%
G04 APERTURE END LIST*
D10*
G04 #@! TO.C,SW4*
X171550000Y-83860000D03*
X184050000Y-83860000D03*
X171550000Y-88860000D03*
X184050000Y-88860000D03*
G04 #@! TD*
G04 #@! TO.C,SW19*
X221080000Y-83860000D03*
X233580000Y-83860000D03*
X221080000Y-88860000D03*
X233580000Y-88860000D03*
G04 #@! TD*
D11*
G04 #@! TO.C,U11*
X104077500Y-50800000D03*
D12*
X104077500Y-53340000D03*
X104077500Y-55880000D03*
X104077500Y-58420000D03*
X104077500Y-60960000D03*
X104077500Y-63500000D03*
X104077500Y-66040000D03*
X111697500Y-66040000D03*
X111697500Y-63500000D03*
X111697500Y-60960000D03*
X111697500Y-58420000D03*
X111697500Y-55880000D03*
X111697500Y-53340000D03*
X111697500Y-50800000D03*
G04 #@! TD*
D10*
G04 #@! TO.C,SW18*
X221080000Y-99100000D03*
X233580000Y-99100000D03*
X221080000Y-104100000D03*
X233580000Y-104100000D03*
G04 #@! TD*
G04 #@! TO.C,SW15*
X204570000Y-68620000D03*
X217070000Y-68620000D03*
X204570000Y-73620000D03*
X217070000Y-73620000D03*
G04 #@! TD*
G04 #@! TO.C,SW14*
X204570000Y-83860000D03*
X217070000Y-83860000D03*
X204570000Y-88860000D03*
X217070000Y-88860000D03*
G04 #@! TD*
G04 #@! TO.C,SW8*
X188060000Y-99100000D03*
X200560000Y-99100000D03*
X188060000Y-104100000D03*
X200560000Y-104100000D03*
G04 #@! TD*
D13*
G04 #@! TO.C,H5*
X145732500Y-86995000D03*
G04 #@! TD*
D11*
G04 #@! TO.C,U10*
X92442500Y-50800000D03*
D12*
X92442500Y-53340000D03*
X92442500Y-55880000D03*
X92442500Y-58420000D03*
X92442500Y-60960000D03*
X92442500Y-63500000D03*
X92442500Y-66040000D03*
X100062500Y-66040000D03*
X100062500Y-63500000D03*
X100062500Y-60960000D03*
X100062500Y-58420000D03*
X100062500Y-55880000D03*
X100062500Y-53340000D03*
X100062500Y-50800000D03*
G04 #@! TD*
D10*
G04 #@! TO.C,SW13*
X204570000Y-99100000D03*
X217070000Y-99100000D03*
X204570000Y-104100000D03*
X217070000Y-104100000D03*
G04 #@! TD*
D14*
G04 #@! TO.C,D1*
X144775000Y-52070000D03*
D15*
X147315000Y-52070000D03*
G04 #@! TD*
D10*
G04 #@! TO.C,SW11*
X187860000Y-53300000D03*
X200360000Y-53300000D03*
X187860000Y-58300000D03*
X200360000Y-58300000D03*
G04 #@! TD*
G04 #@! TO.C,SW17*
X221080000Y-114340000D03*
X233580000Y-114340000D03*
X221080000Y-119340000D03*
X233580000Y-119340000D03*
G04 #@! TD*
G04 #@! TO.C,SW2*
X171350000Y-114260000D03*
X183850000Y-114260000D03*
X171350000Y-119260000D03*
X183850000Y-119260000D03*
G04 #@! TD*
G04 #@! TO.C,SW1*
X221180000Y-53420000D03*
X233680000Y-53420000D03*
X221180000Y-58420000D03*
X233680000Y-58420000D03*
G04 #@! TD*
D11*
G04 #@! TO.C,U5*
X69172500Y-50800000D03*
D12*
X69172500Y-53340000D03*
X69172500Y-55880000D03*
X69172500Y-58420000D03*
X69172500Y-60960000D03*
X69172500Y-63500000D03*
X69172500Y-66040000D03*
X76792500Y-66040000D03*
X76792500Y-63500000D03*
X76792500Y-60960000D03*
X76792500Y-58420000D03*
X76792500Y-55880000D03*
X76792500Y-53340000D03*
X76792500Y-50800000D03*
G04 #@! TD*
D10*
G04 #@! TO.C,SW7*
X188060000Y-114340000D03*
X200560000Y-114340000D03*
X188060000Y-119340000D03*
X200560000Y-119340000D03*
G04 #@! TD*
G04 #@! TO.C,SW6*
X171550000Y-53380000D03*
X184050000Y-53380000D03*
X171550000Y-58380000D03*
X184050000Y-58380000D03*
G04 #@! TD*
D13*
G04 #@! TO.C,H3*
X239395000Y-128270000D03*
G04 #@! TD*
D10*
G04 #@! TO.C,SW10*
X188060000Y-68620000D03*
X200560000Y-68620000D03*
X188060000Y-73620000D03*
X200560000Y-73620000D03*
G04 #@! TD*
D13*
G04 #@! TO.C,H2*
X239395000Y-45720000D03*
G04 #@! TD*
D10*
G04 #@! TO.C,SW9*
X188060000Y-83860000D03*
X200560000Y-83860000D03*
X188060000Y-88860000D03*
X200560000Y-88860000D03*
G04 #@! TD*
D13*
G04 #@! TO.C,H1*
X52070000Y-45720000D03*
G04 #@! TD*
D11*
G04 #@! TO.C,U12*
X115712500Y-50800000D03*
D12*
X115712500Y-53340000D03*
X115712500Y-55880000D03*
X115712500Y-58420000D03*
X115712500Y-60960000D03*
X115712500Y-63500000D03*
X115712500Y-66040000D03*
X123332500Y-66040000D03*
X123332500Y-63500000D03*
X123332500Y-60960000D03*
X123332500Y-58420000D03*
X123332500Y-55880000D03*
X123332500Y-53340000D03*
X123332500Y-50800000D03*
G04 #@! TD*
D10*
G04 #@! TO.C,SW5*
X171550000Y-68620000D03*
X184050000Y-68620000D03*
X171550000Y-73620000D03*
X184050000Y-73620000D03*
G04 #@! TD*
G04 #@! TO.C,SW16*
X204570000Y-53380000D03*
X217070000Y-53380000D03*
X204570000Y-58380000D03*
X217070000Y-58380000D03*
G04 #@! TD*
D11*
G04 #@! TO.C,U4*
X57537500Y-50800000D03*
D12*
X57537500Y-53340000D03*
X57537500Y-55880000D03*
X57537500Y-58420000D03*
X57537500Y-60960000D03*
X57537500Y-63500000D03*
X57537500Y-66040000D03*
X65157500Y-66040000D03*
X65157500Y-63500000D03*
X65157500Y-60960000D03*
X65157500Y-58420000D03*
X65157500Y-55880000D03*
X65157500Y-53340000D03*
X65157500Y-50800000D03*
G04 #@! TD*
D10*
G04 #@! TO.C,SW3*
X171550000Y-99100000D03*
X184050000Y-99100000D03*
X171550000Y-104100000D03*
X184050000Y-104100000D03*
G04 #@! TD*
G04 #@! TO.C,SW20*
X221080000Y-68620000D03*
X233580000Y-68620000D03*
X221080000Y-73620000D03*
X233580000Y-73620000D03*
G04 #@! TD*
D11*
G04 #@! TO.C,U6*
X80807500Y-50800000D03*
D12*
X80807500Y-53340000D03*
X80807500Y-55880000D03*
X80807500Y-58420000D03*
X80807500Y-60960000D03*
X80807500Y-63500000D03*
X80807500Y-66040000D03*
X88427500Y-66040000D03*
X88427500Y-63500000D03*
X88427500Y-60960000D03*
X88427500Y-58420000D03*
X88427500Y-55880000D03*
X88427500Y-53340000D03*
X88427500Y-50800000D03*
G04 #@! TD*
D10*
G04 #@! TO.C,SW12*
X204570000Y-114340000D03*
X217070000Y-114340000D03*
X204570000Y-119340000D03*
X217070000Y-119340000D03*
G04 #@! TD*
D13*
G04 #@! TO.C,H4*
X52070000Y-128270000D03*
G04 #@! TD*
D16*
G04 #@! TO.C,JP3*
X153065000Y-84455000D03*
D17*
X151765000Y-84455000D03*
G04 #@! TD*
D18*
G04 #@! TO.C,RN6*
X123175000Y-107950000D03*
D19*
X120635000Y-107950000D03*
X118095000Y-107950000D03*
X115555000Y-107950000D03*
X113015000Y-107950000D03*
X110475000Y-107950000D03*
X107935000Y-107950000D03*
X105395000Y-107950000D03*
X105395000Y-100330000D03*
X107935000Y-100330000D03*
X110475000Y-100330000D03*
X113015000Y-100330000D03*
X115555000Y-100330000D03*
X118095000Y-100330000D03*
X120635000Y-100330000D03*
X123175000Y-100330000D03*
G04 #@! TD*
D18*
G04 #@! TO.C,U2*
X75565000Y-120650000D03*
D19*
X73025000Y-120650000D03*
X70485000Y-120650000D03*
X67945000Y-120650000D03*
X65405000Y-120650000D03*
X62865000Y-120650000D03*
X60325000Y-120650000D03*
X57785000Y-120650000D03*
X57785000Y-113030000D03*
X60325000Y-113030000D03*
X62865000Y-113030000D03*
X65405000Y-113030000D03*
X67945000Y-113030000D03*
X70485000Y-113030000D03*
X73025000Y-113030000D03*
X75565000Y-113030000D03*
G04 #@! TD*
D20*
G04 #@! TO.C,C7*
X158115000Y-104060000D03*
X158115000Y-99060000D03*
G04 #@! TD*
D18*
G04 #@! TO.C,RN2*
X75565000Y-107950000D03*
D19*
X73025000Y-107950000D03*
X70485000Y-107950000D03*
X67945000Y-107950000D03*
X65405000Y-107950000D03*
X62865000Y-107950000D03*
X60325000Y-107950000D03*
X57785000Y-107950000D03*
X57785000Y-100330000D03*
X60325000Y-100330000D03*
X62865000Y-100330000D03*
X65405000Y-100330000D03*
X67945000Y-100330000D03*
X70485000Y-100330000D03*
X73025000Y-100330000D03*
X75565000Y-100330000D03*
G04 #@! TD*
D18*
G04 #@! TO.C,U9*
X123175000Y-120650000D03*
D19*
X120635000Y-120650000D03*
X118095000Y-120650000D03*
X115555000Y-120650000D03*
X113015000Y-120650000D03*
X110475000Y-120650000D03*
X107935000Y-120650000D03*
X105395000Y-120650000D03*
X105395000Y-113030000D03*
X107935000Y-113030000D03*
X110475000Y-113030000D03*
X113015000Y-113030000D03*
X115555000Y-113030000D03*
X118095000Y-113030000D03*
X120635000Y-113030000D03*
X123175000Y-113030000D03*
G04 #@! TD*
D20*
G04 #@! TO.C,C3*
X128270000Y-88940000D03*
X128270000Y-93940000D03*
G04 #@! TD*
D18*
G04 #@! TO.C,D6*
X163830000Y-52070000D03*
D19*
X163830000Y-59690000D03*
G04 #@! TD*
D16*
G04 #@! TO.C,JP1*
X153065000Y-93345000D03*
D17*
X151765000Y-93345000D03*
G04 #@! TD*
D21*
G04 #@! TO.C,J1*
X170180000Y-127635000D03*
D22*
X167640000Y-127635000D03*
X165100000Y-127635000D03*
X162560000Y-127635000D03*
X160020000Y-127635000D03*
X157480000Y-127635000D03*
X154940000Y-127635000D03*
X152400000Y-127635000D03*
X149860000Y-127635000D03*
X147320000Y-127635000D03*
X144780000Y-127635000D03*
X142240000Y-127635000D03*
X139700000Y-127635000D03*
X137160000Y-127635000D03*
X134620000Y-127635000D03*
X132080000Y-127635000D03*
X129540000Y-127635000D03*
X127000000Y-127635000D03*
X124460000Y-127635000D03*
X121920000Y-127635000D03*
G04 #@! TD*
D18*
G04 #@! TO.C,U8*
X123190000Y-95240000D03*
D19*
X120650000Y-95240000D03*
X118110000Y-95240000D03*
X115570000Y-95240000D03*
X113030000Y-95240000D03*
X110490000Y-95240000D03*
X107950000Y-95240000D03*
X105410000Y-95240000D03*
X105410000Y-87620000D03*
X107950000Y-87620000D03*
X110490000Y-87620000D03*
X113030000Y-87620000D03*
X115570000Y-87620000D03*
X118110000Y-87620000D03*
X120650000Y-87620000D03*
X123190000Y-87620000D03*
G04 #@! TD*
D18*
G04 #@! TO.C,RN1*
X75565000Y-82550000D03*
D19*
X73025000Y-82550000D03*
X70485000Y-82550000D03*
X67945000Y-82550000D03*
X65405000Y-82550000D03*
X62865000Y-82550000D03*
X60325000Y-82550000D03*
X57785000Y-82550000D03*
X57785000Y-74930000D03*
X60325000Y-74930000D03*
X62865000Y-74930000D03*
X65405000Y-74930000D03*
X67945000Y-74930000D03*
X70485000Y-74930000D03*
X73025000Y-74930000D03*
X75565000Y-74930000D03*
G04 #@! TD*
D20*
G04 #@! TO.C,C10*
X158115000Y-58340000D03*
X158115000Y-53340000D03*
G04 #@! TD*
D18*
G04 #@! TO.C,U7*
X99060000Y-120650000D03*
D19*
X96520000Y-120650000D03*
X93980000Y-120650000D03*
X91440000Y-120650000D03*
X88900000Y-120650000D03*
X86360000Y-120650000D03*
X83820000Y-120650000D03*
X81280000Y-120650000D03*
X81280000Y-113030000D03*
X83820000Y-113030000D03*
X86360000Y-113030000D03*
X88900000Y-113030000D03*
X91440000Y-113030000D03*
X93980000Y-113030000D03*
X96520000Y-113030000D03*
X99060000Y-113030000D03*
G04 #@! TD*
D18*
G04 #@! TO.C,U14*
X140970000Y-99060000D03*
D19*
X140970000Y-101600000D03*
X140970000Y-104140000D03*
X140970000Y-106680000D03*
X140970000Y-109220000D03*
X140970000Y-111760000D03*
X140970000Y-114300000D03*
X140970000Y-116840000D03*
X140970000Y-119380000D03*
X140970000Y-121920000D03*
X133350000Y-121920000D03*
X133350000Y-119380000D03*
X133350000Y-116840000D03*
X133350000Y-114300000D03*
X133350000Y-111760000D03*
X133350000Y-109220000D03*
X133350000Y-106680000D03*
X133350000Y-104140000D03*
X133350000Y-101600000D03*
X133350000Y-99060000D03*
G04 #@! TD*
D20*
G04 #@! TO.C,R4*
X238760000Y-106680000D03*
D19*
X238760000Y-96520000D03*
G04 #@! TD*
D20*
G04 #@! TO.C,C11*
X134620000Y-94615000D03*
X139620000Y-94615000D03*
G04 #@! TD*
D18*
G04 #@! TO.C,D2*
X163830000Y-113030000D03*
D19*
X163830000Y-120650000D03*
G04 #@! TD*
D18*
G04 #@! TO.C,D5*
X163830000Y-67310000D03*
D19*
X163830000Y-74930000D03*
G04 #@! TD*
D20*
G04 #@! TO.C,R6*
X151130000Y-60325000D03*
D19*
X151130000Y-70485000D03*
G04 #@! TD*
D20*
G04 #@! TO.C,C2*
X53340000Y-114380000D03*
X53340000Y-119380000D03*
G04 #@! TD*
D18*
G04 #@! TO.C,D4*
X163830000Y-82550000D03*
D19*
X163830000Y-90170000D03*
G04 #@! TD*
D20*
G04 #@! TO.C,C5*
X134660000Y-59690000D03*
X139660000Y-59690000D03*
G04 #@! TD*
D18*
G04 #@! TO.C,U1*
X75565000Y-95250000D03*
D19*
X73025000Y-95250000D03*
X70485000Y-95250000D03*
X67945000Y-95250000D03*
X65405000Y-95250000D03*
X62865000Y-95250000D03*
X60325000Y-95250000D03*
X57785000Y-95250000D03*
X57785000Y-87630000D03*
X60325000Y-87630000D03*
X62865000Y-87630000D03*
X65405000Y-87630000D03*
X67945000Y-87630000D03*
X70485000Y-87630000D03*
X73025000Y-87630000D03*
X75565000Y-87630000D03*
G04 #@! TD*
D18*
G04 #@! TO.C,RN3*
X99075000Y-82550000D03*
D19*
X96535000Y-82550000D03*
X93995000Y-82550000D03*
X91455000Y-82550000D03*
X88915000Y-82550000D03*
X86375000Y-82550000D03*
X83835000Y-82550000D03*
X81295000Y-82550000D03*
X81295000Y-74930000D03*
X83835000Y-74930000D03*
X86375000Y-74930000D03*
X88915000Y-74930000D03*
X91455000Y-74930000D03*
X93995000Y-74930000D03*
X96535000Y-74930000D03*
X99075000Y-74930000D03*
G04 #@! TD*
D20*
G04 #@! TO.C,C4*
X128270000Y-114300000D03*
X128270000Y-119300000D03*
G04 #@! TD*
G04 #@! TO.C,C6*
X158115000Y-119300000D03*
X158115000Y-114300000D03*
G04 #@! TD*
D18*
G04 #@! TO.C,C12*
X150495000Y-116840000D03*
D20*
X147995000Y-116840000D03*
G04 #@! TD*
D18*
G04 #@! TO.C,U13*
X140970000Y-64135000D03*
D19*
X140970000Y-66675000D03*
X140970000Y-69215000D03*
X140970000Y-71755000D03*
X140970000Y-74295000D03*
X140970000Y-76835000D03*
X140970000Y-79375000D03*
X140970000Y-81915000D03*
X133350000Y-81915000D03*
X133350000Y-79375000D03*
X133350000Y-76835000D03*
X133350000Y-74295000D03*
X133350000Y-71755000D03*
X133350000Y-69215000D03*
X133350000Y-66675000D03*
X133350000Y-64135000D03*
G04 #@! TD*
D20*
G04 #@! TO.C,C1*
X53340000Y-88940000D03*
X53340000Y-93940000D03*
G04 #@! TD*
D16*
G04 #@! TO.C,JP4*
X153065000Y-80010000D03*
D17*
X151765000Y-80010000D03*
G04 #@! TD*
D20*
G04 #@! TO.C,R5*
X238760000Y-121920000D03*
D19*
X238760000Y-111760000D03*
G04 #@! TD*
D20*
G04 #@! TO.C,C8*
X158115000Y-88820000D03*
X158115000Y-83820000D03*
G04 #@! TD*
G04 #@! TO.C,R3*
X238760000Y-91440000D03*
D19*
X238760000Y-81280000D03*
G04 #@! TD*
D18*
G04 #@! TO.C,U3*
X99060000Y-95250000D03*
D19*
X96520000Y-95250000D03*
X93980000Y-95250000D03*
X91440000Y-95250000D03*
X88900000Y-95250000D03*
X86360000Y-95250000D03*
X83820000Y-95250000D03*
X81280000Y-95250000D03*
X81280000Y-87630000D03*
X83820000Y-87630000D03*
X86360000Y-87630000D03*
X88900000Y-87630000D03*
X91440000Y-87630000D03*
X93980000Y-87630000D03*
X96520000Y-87630000D03*
X99060000Y-87630000D03*
G04 #@! TD*
D18*
G04 #@! TO.C,D3*
X163830000Y-97790000D03*
D19*
X163830000Y-105410000D03*
G04 #@! TD*
D18*
G04 #@! TO.C,RN4*
X99060000Y-107950000D03*
D19*
X96520000Y-107950000D03*
X93980000Y-107950000D03*
X91440000Y-107950000D03*
X88900000Y-107950000D03*
X86360000Y-107950000D03*
X83820000Y-107950000D03*
X81280000Y-107950000D03*
X81280000Y-100330000D03*
X83820000Y-100330000D03*
X86360000Y-100330000D03*
X88900000Y-100330000D03*
X91440000Y-100330000D03*
X93980000Y-100330000D03*
X96520000Y-100330000D03*
X99060000Y-100330000D03*
G04 #@! TD*
D16*
G04 #@! TO.C,JP2*
X153065000Y-88900000D03*
D17*
X151765000Y-88900000D03*
G04 #@! TD*
D20*
G04 #@! TO.C,C9*
X158115000Y-73580000D03*
X158115000Y-68580000D03*
G04 #@! TD*
G04 #@! TO.C,R1*
X147320000Y-70485000D03*
D19*
X147320000Y-60325000D03*
G04 #@! TD*
D18*
G04 #@! TO.C,RN5*
X123175000Y-82550000D03*
D19*
X120635000Y-82550000D03*
X118095000Y-82550000D03*
X115555000Y-82550000D03*
X113015000Y-82550000D03*
X110475000Y-82550000D03*
X107935000Y-82550000D03*
X105395000Y-82550000D03*
X105395000Y-74930000D03*
X107935000Y-74930000D03*
X110475000Y-74930000D03*
X113015000Y-74930000D03*
X115555000Y-74930000D03*
X118095000Y-74930000D03*
X120635000Y-74930000D03*
X123175000Y-74930000D03*
G04 #@! TD*
D20*
G04 #@! TO.C,R2*
X238760000Y-76200000D03*
D19*
X238760000Y-66040000D03*
G04 #@! TD*
M02*
