G04 #@! TF.GenerationSoftware,KiCad,Pcbnew,8.0.9-8.0.9-0~ubuntu22.04.1*
G04 #@! TF.CreationDate,2025-05-11T08:50:37+10:00*
G04 #@! TF.ProjectId,Generic_Front_Panel,47656e65-7269-4635-9f46-726f6e745f50,rev?*
G04 #@! TF.SameCoordinates,Original*
G04 #@! TF.FileFunction,Copper,L2,Bot*
G04 #@! TF.FilePolarity,Positive*
%FSLAX46Y46*%
G04 Gerber Fmt 4.6, Leading zero omitted, Abs format (unit mm)*
G04 Created by KiCad (PCBNEW 8.0.9-8.0.9-0~ubuntu22.04.1) date 2025-05-11 08:50:37*
%MOMM*%
%LPD*%
G01*
G04 APERTURE LIST*
G04 Aperture macros list*
%AMFreePoly0*
4,1,19,0.500000,-0.750000,0.000000,-0.750000,0.000000,-0.744911,-0.071157,-0.744911,-0.207708,-0.704816,-0.327430,-0.627875,-0.420627,-0.520320,-0.479746,-0.390866,-0.500000,-0.250000,-0.500000,0.250000,-0.479746,0.390866,-0.420627,0.520320,-0.327430,0.627875,-0.207708,0.704816,-0.071157,0.744911,0.000000,0.744911,0.000000,0.750000,0.500000,0.750000,0.500000,-0.750000,0.500000,-0.750000,
$1*%
%AMFreePoly1*
4,1,19,0.000000,0.744911,0.071157,0.744911,0.207708,0.704816,0.327430,0.627875,0.420627,0.520320,0.479746,0.390866,0.500000,0.250000,0.500000,-0.250000,0.479746,-0.390866,0.420627,-0.520320,0.327430,-0.627875,0.207708,-0.704816,0.071157,-0.744911,0.000000,-0.744911,0.000000,-0.750000,-0.500000,-0.750000,-0.500000,0.750000,0.000000,0.750000,0.000000,0.744911,0.000000,0.744911,
$1*%
G04 Aperture macros list end*
G04 #@! TA.AperFunction,EtchedComponent*
%ADD10C,0.000000*%
G04 #@! TD*
G04 #@! TA.AperFunction,ComponentPad*
%ADD11O,3.200000X1.900000*%
G04 #@! TD*
G04 #@! TA.AperFunction,ComponentPad*
%ADD12R,1.500000X1.500000*%
G04 #@! TD*
G04 #@! TA.AperFunction,ComponentPad*
%ADD13C,1.500000*%
G04 #@! TD*
G04 #@! TA.AperFunction,ComponentPad*
%ADD14R,1.800000X1.800000*%
G04 #@! TD*
G04 #@! TA.AperFunction,ComponentPad*
%ADD15C,1.800000*%
G04 #@! TD*
G04 #@! TA.AperFunction,SMDPad,CuDef*
%ADD16FreePoly0,180.000000*%
G04 #@! TD*
G04 #@! TA.AperFunction,SMDPad,CuDef*
%ADD17FreePoly1,180.000000*%
G04 #@! TD*
G04 #@! TA.AperFunction,ComponentPad*
%ADD18R,1.600000X1.600000*%
G04 #@! TD*
G04 #@! TA.AperFunction,ComponentPad*
%ADD19O,1.600000X1.600000*%
G04 #@! TD*
G04 #@! TA.AperFunction,ComponentPad*
%ADD20C,1.600000*%
G04 #@! TD*
G04 #@! TA.AperFunction,ComponentPad*
%ADD21R,1.700000X1.700000*%
G04 #@! TD*
G04 #@! TA.AperFunction,ComponentPad*
%ADD22O,1.700000X1.700000*%
G04 #@! TD*
G04 #@! TA.AperFunction,ViaPad*
%ADD23C,0.600000*%
G04 #@! TD*
G04 #@! TA.AperFunction,Conductor*
%ADD24C,0.200000*%
G04 #@! TD*
G04 APERTURE END LIST*
D10*
G04 #@! TA.AperFunction,EtchedComponent*
G04 #@! TO.C,JP3*
G36*
X152665000Y-84755000D02*
G01*
X152165000Y-84755000D01*
X152165000Y-84155000D01*
X152665000Y-84155000D01*
X152665000Y-84755000D01*
G37*
G04 #@! TD.AperFunction*
G04 #@! TA.AperFunction,EtchedComponent*
G04 #@! TO.C,JP1*
G36*
X152665000Y-93645000D02*
G01*
X152165000Y-93645000D01*
X152165000Y-93045000D01*
X152665000Y-93045000D01*
X152665000Y-93645000D01*
G37*
G04 #@! TD.AperFunction*
G04 #@! TA.AperFunction,EtchedComponent*
G04 #@! TO.C,JP4*
G36*
X152665000Y-80310000D02*
G01*
X152165000Y-80310000D01*
X152165000Y-79710000D01*
X152665000Y-79710000D01*
X152665000Y-80310000D01*
G37*
G04 #@! TD.AperFunction*
G04 #@! TA.AperFunction,EtchedComponent*
G04 #@! TO.C,JP2*
G36*
X152665000Y-89200000D02*
G01*
X152165000Y-89200000D01*
X152165000Y-88600000D01*
X152665000Y-88600000D01*
X152665000Y-89200000D01*
G37*
G04 #@! TD.AperFunction*
G04 #@! TD*
D11*
G04 #@! TO.P,SW4,1,1*
G04 #@! TO.N,Net-(U14-I0a)*
X171550000Y-83860000D03*
X184050000Y-83860000D03*
G04 #@! TO.P,SW4,2,2*
G04 #@! TO.N,Net-(D4-A)*
X171550000Y-88860000D03*
X184050000Y-88860000D03*
G04 #@! TD*
G04 #@! TO.P,SW19,1,1*
G04 #@! TO.N,Net-(U14-I3a)*
X221080000Y-83860000D03*
X233580000Y-83860000D03*
G04 #@! TO.P,SW19,2,2*
G04 #@! TO.N,Net-(D4-A)*
X221080000Y-88860000D03*
X233580000Y-88860000D03*
G04 #@! TD*
D12*
G04 #@! TO.P,U11,1,A*
G04 #@! TO.N,Net-(RN5-R1.2)*
X104077500Y-50800000D03*
D13*
G04 #@! TO.P,U11,2,F*
G04 #@! TO.N,Net-(RN5-R6.2)*
X104077500Y-53340000D03*
G04 #@! TO.P,U11,3,CA*
G04 #@! TO.N,+5V*
X104077500Y-55880000D03*
G04 #@! TO.P,U11,4,NC*
G04 #@! TO.N,unconnected-(U11-NC-Pad4)*
X104077500Y-58420000D03*
G04 #@! TO.P,U11,5,NC*
G04 #@! TO.N,unconnected-(U11-NC-Pad5)*
X104077500Y-60960000D03*
G04 #@! TO.P,U11,6,NC*
G04 #@! TO.N,unconnected-(U11-NC-Pad6)*
X104077500Y-63500000D03*
G04 #@! TO.P,U11,7,E*
G04 #@! TO.N,Net-(RN5-R5.2)*
X104077500Y-66040000D03*
G04 #@! TO.P,U11,8,D*
G04 #@! TO.N,Net-(RN5-R4.2)*
X111697500Y-66040000D03*
G04 #@! TO.P,U11,9,D.P.*
G04 #@! TO.N,Net-(RN5-R8.2)*
X111697500Y-63500000D03*
G04 #@! TO.P,U11,10,C*
G04 #@! TO.N,Net-(RN5-R3.2)*
X111697500Y-60960000D03*
G04 #@! TO.P,U11,11,G*
G04 #@! TO.N,Net-(RN5-R7.2)*
X111697500Y-58420000D03*
G04 #@! TO.P,U11,12,NC*
G04 #@! TO.N,unconnected-(U11-NC-Pad12)*
X111697500Y-55880000D03*
G04 #@! TO.P,U11,13,B*
G04 #@! TO.N,Net-(RN5-R2.2)*
X111697500Y-53340000D03*
G04 #@! TO.P,U11,14,CA*
G04 #@! TO.N,+5V*
X111697500Y-50800000D03*
G04 #@! TD*
D11*
G04 #@! TO.P,SW18,1,1*
G04 #@! TO.N,Net-(U14-I3a)*
X221080000Y-99100000D03*
X233580000Y-99100000D03*
G04 #@! TO.P,SW18,2,2*
G04 #@! TO.N,Net-(D3-A)*
X221080000Y-104100000D03*
X233580000Y-104100000D03*
G04 #@! TD*
G04 #@! TO.P,SW15,1,1*
G04 #@! TO.N,Net-(U14-I2a)*
X204570000Y-68620000D03*
X217070000Y-68620000D03*
G04 #@! TO.P,SW15,2,2*
G04 #@! TO.N,Net-(D5-A)*
X204570000Y-73620000D03*
X217070000Y-73620000D03*
G04 #@! TD*
G04 #@! TO.P,SW14,1,1*
G04 #@! TO.N,Net-(U14-I2a)*
X204570000Y-83860000D03*
X217070000Y-83860000D03*
G04 #@! TO.P,SW14,2,2*
G04 #@! TO.N,Net-(D4-A)*
X204570000Y-88860000D03*
X217070000Y-88860000D03*
G04 #@! TD*
G04 #@! TO.P,SW8,1,1*
G04 #@! TO.N,Net-(U14-I1a)*
X188060000Y-99100000D03*
X200560000Y-99100000D03*
G04 #@! TO.P,SW8,2,2*
G04 #@! TO.N,Net-(D3-A)*
X188060000Y-104100000D03*
X200560000Y-104100000D03*
G04 #@! TD*
D12*
G04 #@! TO.P,U10,1,A*
G04 #@! TO.N,Net-(RN4-R1.2)*
X92442500Y-50800000D03*
D13*
G04 #@! TO.P,U10,2,F*
G04 #@! TO.N,Net-(RN4-R6.2)*
X92442500Y-53340000D03*
G04 #@! TO.P,U10,3,CA*
G04 #@! TO.N,+5V*
X92442500Y-55880000D03*
G04 #@! TO.P,U10,4,NC*
G04 #@! TO.N,unconnected-(U10-NC-Pad4)*
X92442500Y-58420000D03*
G04 #@! TO.P,U10,5,NC*
G04 #@! TO.N,unconnected-(U10-NC-Pad5)*
X92442500Y-60960000D03*
G04 #@! TO.P,U10,6,NC*
G04 #@! TO.N,unconnected-(U10-NC-Pad6)*
X92442500Y-63500000D03*
G04 #@! TO.P,U10,7,E*
G04 #@! TO.N,Net-(RN4-R5.2)*
X92442500Y-66040000D03*
G04 #@! TO.P,U10,8,D*
G04 #@! TO.N,Net-(RN4-R4.2)*
X100062500Y-66040000D03*
G04 #@! TO.P,U10,9,D.P.*
G04 #@! TO.N,Net-(RN4-R8.2)*
X100062500Y-63500000D03*
G04 #@! TO.P,U10,10,C*
G04 #@! TO.N,Net-(RN4-R3.2)*
X100062500Y-60960000D03*
G04 #@! TO.P,U10,11,G*
G04 #@! TO.N,Net-(RN4-R7.2)*
X100062500Y-58420000D03*
G04 #@! TO.P,U10,12,NC*
G04 #@! TO.N,unconnected-(U10-NC-Pad12)*
X100062500Y-55880000D03*
G04 #@! TO.P,U10,13,B*
G04 #@! TO.N,Net-(RN4-R2.2)*
X100062500Y-53340000D03*
G04 #@! TO.P,U10,14,CA*
G04 #@! TO.N,+5V*
X100062500Y-50800000D03*
G04 #@! TD*
D11*
G04 #@! TO.P,SW13,1,1*
G04 #@! TO.N,Net-(U14-I2a)*
X204570000Y-99100000D03*
X217070000Y-99100000D03*
G04 #@! TO.P,SW13,2,2*
G04 #@! TO.N,Net-(D3-A)*
X204570000Y-104100000D03*
X217070000Y-104100000D03*
G04 #@! TD*
D14*
G04 #@! TO.P,D1,1,K*
G04 #@! TO.N,GND*
X144775000Y-52070000D03*
D15*
G04 #@! TO.P,D1,2,A*
G04 #@! TO.N,Net-(D1-A)*
X147315000Y-52070000D03*
G04 #@! TD*
D11*
G04 #@! TO.P,SW11,1,1*
G04 #@! TO.N,Net-(U14-I1a)*
X187860000Y-53300000D03*
X200360000Y-53300000D03*
G04 #@! TO.P,SW11,2,2*
G04 #@! TO.N,Net-(D6-A)*
X187860000Y-58300000D03*
X200360000Y-58300000D03*
G04 #@! TD*
G04 #@! TO.P,SW17,1,1*
G04 #@! TO.N,Net-(U14-I3a)*
X221080000Y-114340000D03*
X233580000Y-114340000D03*
G04 #@! TO.P,SW17,2,2*
G04 #@! TO.N,Net-(D2-A)*
X221080000Y-119340000D03*
X233580000Y-119340000D03*
G04 #@! TD*
G04 #@! TO.P,SW2,1,1*
G04 #@! TO.N,Net-(U14-I0a)*
X171350000Y-114260000D03*
X183850000Y-114260000D03*
G04 #@! TO.P,SW2,2,2*
G04 #@! TO.N,Net-(D2-A)*
X171350000Y-119260000D03*
X183850000Y-119260000D03*
G04 #@! TD*
G04 #@! TO.P,SW1,1,1*
G04 #@! TO.N,GND*
X221180000Y-53420000D03*
X233680000Y-53420000D03*
G04 #@! TO.P,SW1,2,2*
G04 #@! TO.N,~{RESET}*
X221180000Y-58420000D03*
X233680000Y-58420000D03*
G04 #@! TD*
D12*
G04 #@! TO.P,U5,1,A*
G04 #@! TO.N,Net-(RN2-R1.2)*
X69172500Y-50800000D03*
D13*
G04 #@! TO.P,U5,2,F*
G04 #@! TO.N,Net-(RN2-R6.2)*
X69172500Y-53340000D03*
G04 #@! TO.P,U5,3,CA*
G04 #@! TO.N,+5V*
X69172500Y-55880000D03*
G04 #@! TO.P,U5,4,NC*
G04 #@! TO.N,unconnected-(U5-NC-Pad4)*
X69172500Y-58420000D03*
G04 #@! TO.P,U5,5,NC*
G04 #@! TO.N,unconnected-(U5-NC-Pad5)*
X69172500Y-60960000D03*
G04 #@! TO.P,U5,6,NC*
G04 #@! TO.N,unconnected-(U5-NC-Pad6)*
X69172500Y-63500000D03*
G04 #@! TO.P,U5,7,E*
G04 #@! TO.N,Net-(RN2-R5.2)*
X69172500Y-66040000D03*
G04 #@! TO.P,U5,8,D*
G04 #@! TO.N,Net-(RN2-R4.2)*
X76792500Y-66040000D03*
G04 #@! TO.P,U5,9,D.P.*
G04 #@! TO.N,Net-(RN2-R8.2)*
X76792500Y-63500000D03*
G04 #@! TO.P,U5,10,C*
G04 #@! TO.N,Net-(RN2-R3.2)*
X76792500Y-60960000D03*
G04 #@! TO.P,U5,11,G*
G04 #@! TO.N,Net-(RN2-R7.2)*
X76792500Y-58420000D03*
G04 #@! TO.P,U5,12,NC*
G04 #@! TO.N,unconnected-(U5-NC-Pad12)*
X76792500Y-55880000D03*
G04 #@! TO.P,U5,13,B*
G04 #@! TO.N,Net-(RN2-R2.2)*
X76792500Y-53340000D03*
G04 #@! TO.P,U5,14,CA*
G04 #@! TO.N,+5V*
X76792500Y-50800000D03*
G04 #@! TD*
D11*
G04 #@! TO.P,SW7,1,1*
G04 #@! TO.N,Net-(U14-I1a)*
X188060000Y-114340000D03*
X200560000Y-114340000D03*
G04 #@! TO.P,SW7,2,2*
G04 #@! TO.N,Net-(D2-A)*
X188060000Y-119340000D03*
X200560000Y-119340000D03*
G04 #@! TD*
G04 #@! TO.P,SW6,1,1*
G04 #@! TO.N,Net-(U14-I0a)*
X171550000Y-53380000D03*
X184050000Y-53380000D03*
G04 #@! TO.P,SW6,2,2*
G04 #@! TO.N,Net-(D6-A)*
X171550000Y-58380000D03*
X184050000Y-58380000D03*
G04 #@! TD*
G04 #@! TO.P,SW10,1,1*
G04 #@! TO.N,Net-(U14-I1a)*
X188060000Y-68620000D03*
X200560000Y-68620000D03*
G04 #@! TO.P,SW10,2,2*
G04 #@! TO.N,Net-(D5-A)*
X188060000Y-73620000D03*
X200560000Y-73620000D03*
G04 #@! TD*
G04 #@! TO.P,SW9,1,1*
G04 #@! TO.N,Net-(U14-I1a)*
X188060000Y-83860000D03*
X200560000Y-83860000D03*
G04 #@! TO.P,SW9,2,2*
G04 #@! TO.N,Net-(D4-A)*
X188060000Y-88860000D03*
X200560000Y-88860000D03*
G04 #@! TD*
D12*
G04 #@! TO.P,U12,1,A*
G04 #@! TO.N,Net-(RN6-R1.2)*
X115712500Y-50800000D03*
D13*
G04 #@! TO.P,U12,2,F*
G04 #@! TO.N,Net-(RN6-R6.2)*
X115712500Y-53340000D03*
G04 #@! TO.P,U12,3,CA*
G04 #@! TO.N,+5V*
X115712500Y-55880000D03*
G04 #@! TO.P,U12,4,NC*
G04 #@! TO.N,unconnected-(U12-NC-Pad4)*
X115712500Y-58420000D03*
G04 #@! TO.P,U12,5,NC*
G04 #@! TO.N,unconnected-(U12-NC-Pad5)*
X115712500Y-60960000D03*
G04 #@! TO.P,U12,6,NC*
G04 #@! TO.N,unconnected-(U12-NC-Pad6)*
X115712500Y-63500000D03*
G04 #@! TO.P,U12,7,E*
G04 #@! TO.N,Net-(RN6-R5.2)*
X115712500Y-66040000D03*
G04 #@! TO.P,U12,8,D*
G04 #@! TO.N,Net-(RN6-R4.2)*
X123332500Y-66040000D03*
G04 #@! TO.P,U12,9,D.P.*
G04 #@! TO.N,Net-(RN6-R8.2)*
X123332500Y-63500000D03*
G04 #@! TO.P,U12,10,C*
G04 #@! TO.N,Net-(RN6-R3.2)*
X123332500Y-60960000D03*
G04 #@! TO.P,U12,11,G*
G04 #@! TO.N,Net-(RN6-R7.2)*
X123332500Y-58420000D03*
G04 #@! TO.P,U12,12,NC*
G04 #@! TO.N,unconnected-(U12-NC-Pad12)*
X123332500Y-55880000D03*
G04 #@! TO.P,U12,13,B*
G04 #@! TO.N,Net-(RN6-R2.2)*
X123332500Y-53340000D03*
G04 #@! TO.P,U12,14,CA*
G04 #@! TO.N,+5V*
X123332500Y-50800000D03*
G04 #@! TD*
D11*
G04 #@! TO.P,SW5,1,1*
G04 #@! TO.N,Net-(U14-I0a)*
X171550000Y-68620000D03*
X184050000Y-68620000D03*
G04 #@! TO.P,SW5,2,2*
G04 #@! TO.N,Net-(D5-A)*
X171550000Y-73620000D03*
X184050000Y-73620000D03*
G04 #@! TD*
G04 #@! TO.P,SW16,1,1*
G04 #@! TO.N,Net-(U14-I2a)*
X204570000Y-53380000D03*
X217070000Y-53380000D03*
G04 #@! TO.P,SW16,2,2*
G04 #@! TO.N,Net-(D6-A)*
X204570000Y-58380000D03*
X217070000Y-58380000D03*
G04 #@! TD*
D12*
G04 #@! TO.P,U4,1,A*
G04 #@! TO.N,Net-(RN1-R1.2)*
X57537500Y-50800000D03*
D13*
G04 #@! TO.P,U4,2,F*
G04 #@! TO.N,Net-(RN1-R6.2)*
X57537500Y-53340000D03*
G04 #@! TO.P,U4,3,CA*
G04 #@! TO.N,+5V*
X57537500Y-55880000D03*
G04 #@! TO.P,U4,4,NC*
G04 #@! TO.N,unconnected-(U4-NC-Pad4)*
X57537500Y-58420000D03*
G04 #@! TO.P,U4,5,NC*
G04 #@! TO.N,unconnected-(U4-NC-Pad5)*
X57537500Y-60960000D03*
G04 #@! TO.P,U4,6,NC*
G04 #@! TO.N,unconnected-(U4-NC-Pad6)*
X57537500Y-63500000D03*
G04 #@! TO.P,U4,7,E*
G04 #@! TO.N,Net-(RN1-R5.2)*
X57537500Y-66040000D03*
G04 #@! TO.P,U4,8,D*
G04 #@! TO.N,Net-(RN1-R4.2)*
X65157500Y-66040000D03*
G04 #@! TO.P,U4,9,D.P.*
G04 #@! TO.N,Net-(RN1-R8.2)*
X65157500Y-63500000D03*
G04 #@! TO.P,U4,10,C*
G04 #@! TO.N,Net-(RN1-R3.2)*
X65157500Y-60960000D03*
G04 #@! TO.P,U4,11,G*
G04 #@! TO.N,Net-(RN1-R7.2)*
X65157500Y-58420000D03*
G04 #@! TO.P,U4,12,NC*
G04 #@! TO.N,unconnected-(U4-NC-Pad12)*
X65157500Y-55880000D03*
G04 #@! TO.P,U4,13,B*
G04 #@! TO.N,Net-(RN1-R2.2)*
X65157500Y-53340000D03*
G04 #@! TO.P,U4,14,CA*
G04 #@! TO.N,+5V*
X65157500Y-50800000D03*
G04 #@! TD*
D11*
G04 #@! TO.P,SW3,1,1*
G04 #@! TO.N,Net-(U14-I0a)*
X171550000Y-99100000D03*
X184050000Y-99100000D03*
G04 #@! TO.P,SW3,2,2*
G04 #@! TO.N,Net-(D3-A)*
X171550000Y-104100000D03*
X184050000Y-104100000D03*
G04 #@! TD*
G04 #@! TO.P,SW20,1,1*
G04 #@! TO.N,Net-(U14-I3a)*
X221080000Y-68620000D03*
X233580000Y-68620000D03*
G04 #@! TO.P,SW20,2,2*
G04 #@! TO.N,Net-(D5-A)*
X221080000Y-73620000D03*
X233580000Y-73620000D03*
G04 #@! TD*
D12*
G04 #@! TO.P,U6,1,A*
G04 #@! TO.N,Net-(RN3-R1.2)*
X80807500Y-50800000D03*
D13*
G04 #@! TO.P,U6,2,F*
G04 #@! TO.N,Net-(RN3-R6.2)*
X80807500Y-53340000D03*
G04 #@! TO.P,U6,3,CA*
G04 #@! TO.N,+5V*
X80807500Y-55880000D03*
G04 #@! TO.P,U6,4,NC*
G04 #@! TO.N,unconnected-(U6-NC-Pad4)*
X80807500Y-58420000D03*
G04 #@! TO.P,U6,5,NC*
G04 #@! TO.N,unconnected-(U6-NC-Pad5)*
X80807500Y-60960000D03*
G04 #@! TO.P,U6,6,NC*
G04 #@! TO.N,unconnected-(U6-NC-Pad6)*
X80807500Y-63500000D03*
G04 #@! TO.P,U6,7,E*
G04 #@! TO.N,Net-(RN3-R5.2)*
X80807500Y-66040000D03*
G04 #@! TO.P,U6,8,D*
G04 #@! TO.N,Net-(RN3-R4.2)*
X88427500Y-66040000D03*
G04 #@! TO.P,U6,9,D.P.*
G04 #@! TO.N,Net-(RN3-R8.2)*
X88427500Y-63500000D03*
G04 #@! TO.P,U6,10,C*
G04 #@! TO.N,Net-(RN3-R3.2)*
X88427500Y-60960000D03*
G04 #@! TO.P,U6,11,G*
G04 #@! TO.N,Net-(RN3-R7.2)*
X88427500Y-58420000D03*
G04 #@! TO.P,U6,12,NC*
G04 #@! TO.N,unconnected-(U6-NC-Pad12)*
X88427500Y-55880000D03*
G04 #@! TO.P,U6,13,B*
G04 #@! TO.N,Net-(RN3-R2.2)*
X88427500Y-53340000D03*
G04 #@! TO.P,U6,14,CA*
G04 #@! TO.N,+5V*
X88427500Y-50800000D03*
G04 #@! TD*
D11*
G04 #@! TO.P,SW12,1,1*
G04 #@! TO.N,Net-(U14-I2a)*
X204570000Y-114340000D03*
X217070000Y-114340000D03*
G04 #@! TO.P,SW12,2,2*
G04 #@! TO.N,Net-(D2-A)*
X204570000Y-119340000D03*
X217070000Y-119340000D03*
G04 #@! TD*
D16*
G04 #@! TO.P,JP3,1,A*
G04 #@! TO.N,Net-(JP1-A)*
X153065000Y-84455000D03*
D17*
G04 #@! TO.P,JP3,2,B*
G04 #@! TO.N,Net-(JP3-B)*
X151765000Y-84455000D03*
G04 #@! TD*
D18*
G04 #@! TO.P,RN6,1,R1.1*
G04 #@! TO.N,Net-(RN6-R1.1)*
X123175000Y-107950000D03*
D19*
G04 #@! TO.P,RN6,2,R2.1*
G04 #@! TO.N,Net-(RN6-R2.1)*
X120635000Y-107950000D03*
G04 #@! TO.P,RN6,3,R3.1*
G04 #@! TO.N,Net-(RN6-R3.1)*
X118095000Y-107950000D03*
G04 #@! TO.P,RN6,4,R4.1*
G04 #@! TO.N,Net-(RN6-R4.1)*
X115555000Y-107950000D03*
G04 #@! TO.P,RN6,5,R5.1*
G04 #@! TO.N,Net-(RN6-R5.1)*
X113015000Y-107950000D03*
G04 #@! TO.P,RN6,6,R6.1*
G04 #@! TO.N,Net-(RN6-R6.1)*
X110475000Y-107950000D03*
G04 #@! TO.P,RN6,7,R7.1*
G04 #@! TO.N,Net-(RN6-R7.1)*
X107935000Y-107950000D03*
G04 #@! TO.P,RN6,8,R8.1*
G04 #@! TO.N,Net-(RN6-R8.1)*
X105395000Y-107950000D03*
G04 #@! TO.P,RN6,9,R8.2*
G04 #@! TO.N,Net-(RN6-R8.2)*
X105395000Y-100330000D03*
G04 #@! TO.P,RN6,10,R7.2*
G04 #@! TO.N,Net-(RN6-R7.2)*
X107935000Y-100330000D03*
G04 #@! TO.P,RN6,11,R6.2*
G04 #@! TO.N,Net-(RN6-R6.2)*
X110475000Y-100330000D03*
G04 #@! TO.P,RN6,12,R5.2*
G04 #@! TO.N,Net-(RN6-R5.2)*
X113015000Y-100330000D03*
G04 #@! TO.P,RN6,13,R4.2*
G04 #@! TO.N,Net-(RN6-R4.2)*
X115555000Y-100330000D03*
G04 #@! TO.P,RN6,14,R3.2*
G04 #@! TO.N,Net-(RN6-R3.2)*
X118095000Y-100330000D03*
G04 #@! TO.P,RN6,15,R2.2*
G04 #@! TO.N,Net-(RN6-R2.2)*
X120635000Y-100330000D03*
G04 #@! TO.P,RN6,16,R1.2*
G04 #@! TO.N,Net-(RN6-R1.2)*
X123175000Y-100330000D03*
G04 #@! TD*
D18*
G04 #@! TO.P,U2,1,A0*
G04 #@! TO.N,A0*
X75565000Y-120650000D03*
D19*
G04 #@! TO.P,U2,2,A1*
G04 #@! TO.N,A1*
X73025000Y-120650000D03*
G04 #@! TO.P,U2,3,A2*
G04 #@! TO.N,A2*
X70485000Y-120650000D03*
G04 #@! TO.P,U2,4,Q0*
G04 #@! TO.N,Net-(RN2-R1.1)*
X67945000Y-120650000D03*
G04 #@! TO.P,U2,5,Q1*
G04 #@! TO.N,Net-(RN2-R2.1)*
X65405000Y-120650000D03*
G04 #@! TO.P,U2,6,Q2*
G04 #@! TO.N,Net-(RN2-R3.1)*
X62865000Y-120650000D03*
G04 #@! TO.P,U2,7,Q3*
G04 #@! TO.N,Net-(RN2-R4.1)*
X60325000Y-120650000D03*
G04 #@! TO.P,U2,8,GND*
G04 #@! TO.N,GND*
X57785000Y-120650000D03*
G04 #@! TO.P,U2,9,Q4*
G04 #@! TO.N,Net-(RN2-R5.1)*
X57785000Y-113030000D03*
G04 #@! TO.P,U2,10,Q5*
G04 #@! TO.N,Net-(RN2-R6.1)*
X60325000Y-113030000D03*
G04 #@! TO.P,U2,11,Q6*
G04 #@! TO.N,Net-(RN2-R7.1)*
X62865000Y-113030000D03*
G04 #@! TO.P,U2,12,Q7*
G04 #@! TO.N,Net-(RN2-R8.1)*
X65405000Y-113030000D03*
G04 #@! TO.P,U2,13,D*
G04 #@! TO.N,D0*
X67945000Y-113030000D03*
G04 #@! TO.P,U2,14,E*
G04 #@! TO.N,~{DISP2}*
X70485000Y-113030000D03*
G04 #@! TO.P,U2,15,Clr*
G04 #@! TO.N,~{SET_ALL}*
X73025000Y-113030000D03*
G04 #@! TO.P,U2,16,VCC*
G04 #@! TO.N,+5V*
X75565000Y-113030000D03*
G04 #@! TD*
D20*
G04 #@! TO.P,C7,1*
G04 #@! TO.N,Net-(D3-A)*
X158115000Y-104060000D03*
G04 #@! TO.P,C7,2*
G04 #@! TO.N,GND*
X158115000Y-99060000D03*
G04 #@! TD*
D18*
G04 #@! TO.P,RN2,1,R1.1*
G04 #@! TO.N,Net-(RN2-R1.1)*
X75565000Y-107950000D03*
D19*
G04 #@! TO.P,RN2,2,R2.1*
G04 #@! TO.N,Net-(RN2-R2.1)*
X73025000Y-107950000D03*
G04 #@! TO.P,RN2,3,R3.1*
G04 #@! TO.N,Net-(RN2-R3.1)*
X70485000Y-107950000D03*
G04 #@! TO.P,RN2,4,R4.1*
G04 #@! TO.N,Net-(RN2-R4.1)*
X67945000Y-107950000D03*
G04 #@! TO.P,RN2,5,R5.1*
G04 #@! TO.N,Net-(RN2-R5.1)*
X65405000Y-107950000D03*
G04 #@! TO.P,RN2,6,R6.1*
G04 #@! TO.N,Net-(RN2-R6.1)*
X62865000Y-107950000D03*
G04 #@! TO.P,RN2,7,R7.1*
G04 #@! TO.N,Net-(RN2-R7.1)*
X60325000Y-107950000D03*
G04 #@! TO.P,RN2,8,R8.1*
G04 #@! TO.N,Net-(RN2-R8.1)*
X57785000Y-107950000D03*
G04 #@! TO.P,RN2,9,R8.2*
G04 #@! TO.N,Net-(RN2-R8.2)*
X57785000Y-100330000D03*
G04 #@! TO.P,RN2,10,R7.2*
G04 #@! TO.N,Net-(RN2-R7.2)*
X60325000Y-100330000D03*
G04 #@! TO.P,RN2,11,R6.2*
G04 #@! TO.N,Net-(RN2-R6.2)*
X62865000Y-100330000D03*
G04 #@! TO.P,RN2,12,R5.2*
G04 #@! TO.N,Net-(RN2-R5.2)*
X65405000Y-100330000D03*
G04 #@! TO.P,RN2,13,R4.2*
G04 #@! TO.N,Net-(RN2-R4.2)*
X67945000Y-100330000D03*
G04 #@! TO.P,RN2,14,R3.2*
G04 #@! TO.N,Net-(RN2-R3.2)*
X70485000Y-100330000D03*
G04 #@! TO.P,RN2,15,R2.2*
G04 #@! TO.N,Net-(RN2-R2.2)*
X73025000Y-100330000D03*
G04 #@! TO.P,RN2,16,R1.2*
G04 #@! TO.N,Net-(RN2-R1.2)*
X75565000Y-100330000D03*
G04 #@! TD*
D18*
G04 #@! TO.P,U9,1,A0*
G04 #@! TO.N,A0*
X123175000Y-120650000D03*
D19*
G04 #@! TO.P,U9,2,A1*
G04 #@! TO.N,A1*
X120635000Y-120650000D03*
G04 #@! TO.P,U9,3,A2*
G04 #@! TO.N,A2*
X118095000Y-120650000D03*
G04 #@! TO.P,U9,4,Q0*
G04 #@! TO.N,Net-(RN6-R1.1)*
X115555000Y-120650000D03*
G04 #@! TO.P,U9,5,Q1*
G04 #@! TO.N,Net-(RN6-R2.1)*
X113015000Y-120650000D03*
G04 #@! TO.P,U9,6,Q2*
G04 #@! TO.N,Net-(RN6-R3.1)*
X110475000Y-120650000D03*
G04 #@! TO.P,U9,7,Q3*
G04 #@! TO.N,Net-(RN6-R4.1)*
X107935000Y-120650000D03*
G04 #@! TO.P,U9,8,GND*
G04 #@! TO.N,GND*
X105395000Y-120650000D03*
G04 #@! TO.P,U9,9,Q4*
G04 #@! TO.N,Net-(RN6-R5.1)*
X105395000Y-113030000D03*
G04 #@! TO.P,U9,10,Q5*
G04 #@! TO.N,Net-(RN6-R6.1)*
X107935000Y-113030000D03*
G04 #@! TO.P,U9,11,Q6*
G04 #@! TO.N,Net-(RN6-R7.1)*
X110475000Y-113030000D03*
G04 #@! TO.P,U9,12,Q7*
G04 #@! TO.N,Net-(RN6-R8.1)*
X113015000Y-113030000D03*
G04 #@! TO.P,U9,13,D*
G04 #@! TO.N,D0*
X115555000Y-113030000D03*
G04 #@! TO.P,U9,14,E*
G04 #@! TO.N,~{DISP6}*
X118095000Y-113030000D03*
G04 #@! TO.P,U9,15,Clr*
G04 #@! TO.N,~{SET_ALL}*
X120635000Y-113030000D03*
G04 #@! TO.P,U9,16,VCC*
G04 #@! TO.N,+5V*
X123175000Y-113030000D03*
G04 #@! TD*
D20*
G04 #@! TO.P,C3,1*
G04 #@! TO.N,+5V*
X128270000Y-88940000D03*
G04 #@! TO.P,C3,2*
G04 #@! TO.N,GND*
X128270000Y-93940000D03*
G04 #@! TD*
D18*
G04 #@! TO.P,D6,1,K*
G04 #@! TO.N,A4*
X163830000Y-52070000D03*
D19*
G04 #@! TO.P,D6,2,A*
G04 #@! TO.N,Net-(D6-A)*
X163830000Y-59690000D03*
G04 #@! TD*
D16*
G04 #@! TO.P,JP1,1,A*
G04 #@! TO.N,Net-(JP1-A)*
X153065000Y-93345000D03*
D17*
G04 #@! TO.P,JP1,2,B*
G04 #@! TO.N,Net-(JP1-B)*
X151765000Y-93345000D03*
G04 #@! TD*
D21*
G04 #@! TO.P,J1,1,Pin_1*
G04 #@! TO.N,+5V*
X170180000Y-127635000D03*
D22*
G04 #@! TO.P,J1,2,Pin_2*
G04 #@! TO.N,D0*
X167640000Y-127635000D03*
G04 #@! TO.P,J1,3,Pin_3*
G04 #@! TO.N,D1*
X165100000Y-127635000D03*
G04 #@! TO.P,J1,4,Pin_4*
G04 #@! TO.N,D2*
X162560000Y-127635000D03*
G04 #@! TO.P,J1,5,Pin_5*
G04 #@! TO.N,D3*
X160020000Y-127635000D03*
G04 #@! TO.P,J1,6,Pin_6*
G04 #@! TO.N,D4*
X157480000Y-127635000D03*
G04 #@! TO.P,J1,7,Pin_7*
G04 #@! TO.N,D5*
X154940000Y-127635000D03*
G04 #@! TO.P,J1,8,Pin_8*
G04 #@! TO.N,D6*
X152400000Y-127635000D03*
G04 #@! TO.P,J1,9,Pin_9*
G04 #@! TO.N,D7*
X149860000Y-127635000D03*
G04 #@! TO.P,J1,10,Pin_10*
G04 #@! TO.N,A0*
X147320000Y-127635000D03*
G04 #@! TO.P,J1,11,Pin_11*
G04 #@! TO.N,A1*
X144780000Y-127635000D03*
G04 #@! TO.P,J1,12,Pin_12*
G04 #@! TO.N,A2*
X142240000Y-127635000D03*
G04 #@! TO.P,J1,13,Pin_13*
G04 #@! TO.N,A3*
X139700000Y-127635000D03*
G04 #@! TO.P,J1,14,Pin_14*
G04 #@! TO.N,A4*
X137160000Y-127635000D03*
G04 #@! TO.P,J1,15,Pin_15*
G04 #@! TO.N,A5*
X134620000Y-127635000D03*
G04 #@! TO.P,J1,16,Pin_16*
G04 #@! TO.N,~{SEL_DISPLAY}*
X132080000Y-127635000D03*
G04 #@! TO.P,J1,17,Pin_17*
G04 #@! TO.N,~{SEL_KEYPAD}*
X129540000Y-127635000D03*
G04 #@! TO.P,J1,18,Pin_18*
G04 #@! TO.N,~{RESET}*
X127000000Y-127635000D03*
G04 #@! TO.P,J1,19,Pin_19*
G04 #@! TO.N,GND*
X124460000Y-127635000D03*
G04 #@! TO.P,J1,20,Pin_20*
X121920000Y-127635000D03*
G04 #@! TD*
D18*
G04 #@! TO.P,U8,1,A0*
G04 #@! TO.N,A0*
X123190000Y-95240000D03*
D19*
G04 #@! TO.P,U8,2,A1*
G04 #@! TO.N,A1*
X120650000Y-95240000D03*
G04 #@! TO.P,U8,3,A2*
G04 #@! TO.N,A2*
X118110000Y-95240000D03*
G04 #@! TO.P,U8,4,Q0*
G04 #@! TO.N,Net-(RN5-R1.1)*
X115570000Y-95240000D03*
G04 #@! TO.P,U8,5,Q1*
G04 #@! TO.N,Net-(RN5-R2.1)*
X113030000Y-95240000D03*
G04 #@! TO.P,U8,6,Q2*
G04 #@! TO.N,Net-(RN5-R3.1)*
X110490000Y-95240000D03*
G04 #@! TO.P,U8,7,Q3*
G04 #@! TO.N,Net-(RN5-R4.1)*
X107950000Y-95240000D03*
G04 #@! TO.P,U8,8,GND*
G04 #@! TO.N,GND*
X105410000Y-95240000D03*
G04 #@! TO.P,U8,9,Q4*
G04 #@! TO.N,Net-(RN5-R5.1)*
X105410000Y-87620000D03*
G04 #@! TO.P,U8,10,Q5*
G04 #@! TO.N,Net-(RN5-R6.1)*
X107950000Y-87620000D03*
G04 #@! TO.P,U8,11,Q6*
G04 #@! TO.N,Net-(RN5-R7.1)*
X110490000Y-87620000D03*
G04 #@! TO.P,U8,12,Q7*
G04 #@! TO.N,Net-(RN5-R8.1)*
X113030000Y-87620000D03*
G04 #@! TO.P,U8,13,D*
G04 #@! TO.N,D0*
X115570000Y-87620000D03*
G04 #@! TO.P,U8,14,E*
G04 #@! TO.N,~{DISP5}*
X118110000Y-87620000D03*
G04 #@! TO.P,U8,15,Clr*
G04 #@! TO.N,~{SET_ALL}*
X120650000Y-87620000D03*
G04 #@! TO.P,U8,16,VCC*
G04 #@! TO.N,+5V*
X123190000Y-87620000D03*
G04 #@! TD*
D18*
G04 #@! TO.P,RN1,1,R1.1*
G04 #@! TO.N,Net-(RN1-R1.1)*
X75565000Y-82550000D03*
D19*
G04 #@! TO.P,RN1,2,R2.1*
G04 #@! TO.N,Net-(RN1-R2.1)*
X73025000Y-82550000D03*
G04 #@! TO.P,RN1,3,R3.1*
G04 #@! TO.N,Net-(RN1-R3.1)*
X70485000Y-82550000D03*
G04 #@! TO.P,RN1,4,R4.1*
G04 #@! TO.N,Net-(RN1-R4.1)*
X67945000Y-82550000D03*
G04 #@! TO.P,RN1,5,R5.1*
G04 #@! TO.N,Net-(RN1-R5.1)*
X65405000Y-82550000D03*
G04 #@! TO.P,RN1,6,R6.1*
G04 #@! TO.N,Net-(RN1-R6.1)*
X62865000Y-82550000D03*
G04 #@! TO.P,RN1,7,R7.1*
G04 #@! TO.N,Net-(RN1-R7.1)*
X60325000Y-82550000D03*
G04 #@! TO.P,RN1,8,R8.1*
G04 #@! TO.N,Net-(RN1-R8.1)*
X57785000Y-82550000D03*
G04 #@! TO.P,RN1,9,R8.2*
G04 #@! TO.N,Net-(RN1-R8.2)*
X57785000Y-74930000D03*
G04 #@! TO.P,RN1,10,R7.2*
G04 #@! TO.N,Net-(RN1-R7.2)*
X60325000Y-74930000D03*
G04 #@! TO.P,RN1,11,R6.2*
G04 #@! TO.N,Net-(RN1-R6.2)*
X62865000Y-74930000D03*
G04 #@! TO.P,RN1,12,R5.2*
G04 #@! TO.N,Net-(RN1-R5.2)*
X65405000Y-74930000D03*
G04 #@! TO.P,RN1,13,R4.2*
G04 #@! TO.N,Net-(RN1-R4.2)*
X67945000Y-74930000D03*
G04 #@! TO.P,RN1,14,R3.2*
G04 #@! TO.N,Net-(RN1-R3.2)*
X70485000Y-74930000D03*
G04 #@! TO.P,RN1,15,R2.2*
G04 #@! TO.N,Net-(RN1-R2.2)*
X73025000Y-74930000D03*
G04 #@! TO.P,RN1,16,R1.2*
G04 #@! TO.N,Net-(RN1-R1.2)*
X75565000Y-74930000D03*
G04 #@! TD*
D20*
G04 #@! TO.P,C10,1*
G04 #@! TO.N,Net-(D6-A)*
X158115000Y-58340000D03*
G04 #@! TO.P,C10,2*
G04 #@! TO.N,GND*
X158115000Y-53340000D03*
G04 #@! TD*
D18*
G04 #@! TO.P,U7,1,A0*
G04 #@! TO.N,A0*
X99060000Y-120650000D03*
D19*
G04 #@! TO.P,U7,2,A1*
G04 #@! TO.N,A1*
X96520000Y-120650000D03*
G04 #@! TO.P,U7,3,A2*
G04 #@! TO.N,A2*
X93980000Y-120650000D03*
G04 #@! TO.P,U7,4,Q0*
G04 #@! TO.N,Net-(RN4-R1.1)*
X91440000Y-120650000D03*
G04 #@! TO.P,U7,5,Q1*
G04 #@! TO.N,Net-(RN4-R2.1)*
X88900000Y-120650000D03*
G04 #@! TO.P,U7,6,Q2*
G04 #@! TO.N,Net-(RN4-R3.1)*
X86360000Y-120650000D03*
G04 #@! TO.P,U7,7,Q3*
G04 #@! TO.N,Net-(RN4-R4.1)*
X83820000Y-120650000D03*
G04 #@! TO.P,U7,8,GND*
G04 #@! TO.N,GND*
X81280000Y-120650000D03*
G04 #@! TO.P,U7,9,Q4*
G04 #@! TO.N,Net-(RN4-R5.1)*
X81280000Y-113030000D03*
G04 #@! TO.P,U7,10,Q5*
G04 #@! TO.N,Net-(RN4-R6.1)*
X83820000Y-113030000D03*
G04 #@! TO.P,U7,11,Q6*
G04 #@! TO.N,Net-(RN4-R7.1)*
X86360000Y-113030000D03*
G04 #@! TO.P,U7,12,Q7*
G04 #@! TO.N,Net-(RN4-R8.1)*
X88900000Y-113030000D03*
G04 #@! TO.P,U7,13,D*
G04 #@! TO.N,D0*
X91440000Y-113030000D03*
G04 #@! TO.P,U7,14,E*
G04 #@! TO.N,~{DISP4}*
X93980000Y-113030000D03*
G04 #@! TO.P,U7,15,Clr*
G04 #@! TO.N,~{SET_ALL}*
X96520000Y-113030000D03*
G04 #@! TO.P,U7,16,VCC*
G04 #@! TO.N,+5V*
X99060000Y-113030000D03*
G04 #@! TD*
D18*
G04 #@! TO.P,U14,1,OEa*
G04 #@! TO.N,~{SEL_KEYPAD}*
X140970000Y-99060000D03*
D19*
G04 #@! TO.P,U14,2,I0a*
G04 #@! TO.N,Net-(U14-I0a)*
X140970000Y-101600000D03*
G04 #@! TO.P,U14,3,O3b*
G04 #@! TO.N,D7*
X140970000Y-104140000D03*
G04 #@! TO.P,U14,4,I1a*
G04 #@! TO.N,Net-(U14-I1a)*
X140970000Y-106680000D03*
G04 #@! TO.P,U14,5,O2b*
G04 #@! TO.N,D6*
X140970000Y-109220000D03*
G04 #@! TO.P,U14,6,I2a*
G04 #@! TO.N,Net-(U14-I2a)*
X140970000Y-111760000D03*
G04 #@! TO.P,U14,7,O1b*
G04 #@! TO.N,D5*
X140970000Y-114300000D03*
G04 #@! TO.P,U14,8,I3a*
G04 #@! TO.N,Net-(U14-I3a)*
X140970000Y-116840000D03*
G04 #@! TO.P,U14,9,O0b*
G04 #@! TO.N,D4*
X140970000Y-119380000D03*
G04 #@! TO.P,U14,10,GND*
G04 #@! TO.N,GND*
X140970000Y-121920000D03*
G04 #@! TO.P,U14,11,I0b*
G04 #@! TO.N,Net-(JP1-B)*
X133350000Y-121920000D03*
G04 #@! TO.P,U14,12,O3a*
G04 #@! TO.N,D3*
X133350000Y-119380000D03*
G04 #@! TO.P,U14,13,I1b*
G04 #@! TO.N,Net-(JP2-B)*
X133350000Y-116840000D03*
G04 #@! TO.P,U14,14,O2a*
G04 #@! TO.N,D2*
X133350000Y-114300000D03*
G04 #@! TO.P,U14,15,I2b*
G04 #@! TO.N,Net-(JP3-B)*
X133350000Y-111760000D03*
G04 #@! TO.P,U14,16,O1a*
G04 #@! TO.N,D1*
X133350000Y-109220000D03*
G04 #@! TO.P,U14,17,I3b*
G04 #@! TO.N,Net-(JP4-B)*
X133350000Y-106680000D03*
G04 #@! TO.P,U14,18,O0a*
G04 #@! TO.N,D0*
X133350000Y-104140000D03*
G04 #@! TO.P,U14,19,OEb*
G04 #@! TO.N,~{SEL_KEYPAD}*
X133350000Y-101600000D03*
G04 #@! TO.P,U14,20,VCC*
G04 #@! TO.N,+5V*
X133350000Y-99060000D03*
G04 #@! TD*
D20*
G04 #@! TO.P,R4,1*
G04 #@! TO.N,+5V*
X238760000Y-106680000D03*
D19*
G04 #@! TO.P,R4,2*
G04 #@! TO.N,Net-(U14-I2a)*
X238760000Y-96520000D03*
G04 #@! TD*
D20*
G04 #@! TO.P,C11,1*
G04 #@! TO.N,+5V*
X134620000Y-94615000D03*
G04 #@! TO.P,C11,2*
G04 #@! TO.N,GND*
X139620000Y-94615000D03*
G04 #@! TD*
D18*
G04 #@! TO.P,D2,1,K*
G04 #@! TO.N,A0*
X163830000Y-113030000D03*
D19*
G04 #@! TO.P,D2,2,A*
G04 #@! TO.N,Net-(D2-A)*
X163830000Y-120650000D03*
G04 #@! TD*
D18*
G04 #@! TO.P,D5,1,K*
G04 #@! TO.N,A3*
X163830000Y-67310000D03*
D19*
G04 #@! TO.P,D5,2,A*
G04 #@! TO.N,Net-(D5-A)*
X163830000Y-74930000D03*
G04 #@! TD*
D20*
G04 #@! TO.P,R6,1*
G04 #@! TO.N,+5V*
X151130000Y-60325000D03*
D19*
G04 #@! TO.P,R6,2*
G04 #@! TO.N,Net-(JP1-A)*
X151130000Y-70485000D03*
G04 #@! TD*
D20*
G04 #@! TO.P,C2,1*
G04 #@! TO.N,+5V*
X53340000Y-114380000D03*
G04 #@! TO.P,C2,2*
G04 #@! TO.N,GND*
X53340000Y-119380000D03*
G04 #@! TD*
D18*
G04 #@! TO.P,D4,1,K*
G04 #@! TO.N,A2*
X163830000Y-82550000D03*
D19*
G04 #@! TO.P,D4,2,A*
G04 #@! TO.N,Net-(D4-A)*
X163830000Y-90170000D03*
G04 #@! TD*
D20*
G04 #@! TO.P,C5,1*
G04 #@! TO.N,+5V*
X134660000Y-59690000D03*
G04 #@! TO.P,C5,2*
G04 #@! TO.N,GND*
X139660000Y-59690000D03*
G04 #@! TD*
D18*
G04 #@! TO.P,U1,1,A0*
G04 #@! TO.N,A0*
X75565000Y-95250000D03*
D19*
G04 #@! TO.P,U1,2,A1*
G04 #@! TO.N,A1*
X73025000Y-95250000D03*
G04 #@! TO.P,U1,3,A2*
G04 #@! TO.N,A2*
X70485000Y-95250000D03*
G04 #@! TO.P,U1,4,Q0*
G04 #@! TO.N,Net-(RN1-R1.1)*
X67945000Y-95250000D03*
G04 #@! TO.P,U1,5,Q1*
G04 #@! TO.N,Net-(RN1-R2.1)*
X65405000Y-95250000D03*
G04 #@! TO.P,U1,6,Q2*
G04 #@! TO.N,Net-(RN1-R3.1)*
X62865000Y-95250000D03*
G04 #@! TO.P,U1,7,Q3*
G04 #@! TO.N,Net-(RN1-R4.1)*
X60325000Y-95250000D03*
G04 #@! TO.P,U1,8,GND*
G04 #@! TO.N,GND*
X57785000Y-95250000D03*
G04 #@! TO.P,U1,9,Q4*
G04 #@! TO.N,Net-(RN1-R5.1)*
X57785000Y-87630000D03*
G04 #@! TO.P,U1,10,Q5*
G04 #@! TO.N,Net-(RN1-R6.1)*
X60325000Y-87630000D03*
G04 #@! TO.P,U1,11,Q6*
G04 #@! TO.N,Net-(RN1-R7.1)*
X62865000Y-87630000D03*
G04 #@! TO.P,U1,12,Q7*
G04 #@! TO.N,Net-(RN1-R8.1)*
X65405000Y-87630000D03*
G04 #@! TO.P,U1,13,D*
G04 #@! TO.N,D0*
X67945000Y-87630000D03*
G04 #@! TO.P,U1,14,E*
G04 #@! TO.N,~{DISP1}*
X70485000Y-87630000D03*
G04 #@! TO.P,U1,15,Clr*
G04 #@! TO.N,~{SET_ALL}*
X73025000Y-87630000D03*
G04 #@! TO.P,U1,16,VCC*
G04 #@! TO.N,+5V*
X75565000Y-87630000D03*
G04 #@! TD*
D18*
G04 #@! TO.P,RN3,1,R1.1*
G04 #@! TO.N,Net-(RN3-R1.1)*
X99075000Y-82550000D03*
D19*
G04 #@! TO.P,RN3,2,R2.1*
G04 #@! TO.N,Net-(RN3-R2.1)*
X96535000Y-82550000D03*
G04 #@! TO.P,RN3,3,R3.1*
G04 #@! TO.N,Net-(RN3-R3.1)*
X93995000Y-82550000D03*
G04 #@! TO.P,RN3,4,R4.1*
G04 #@! TO.N,Net-(RN3-R4.1)*
X91455000Y-82550000D03*
G04 #@! TO.P,RN3,5,R5.1*
G04 #@! TO.N,Net-(RN3-R5.1)*
X88915000Y-82550000D03*
G04 #@! TO.P,RN3,6,R6.1*
G04 #@! TO.N,Net-(RN3-R6.1)*
X86375000Y-82550000D03*
G04 #@! TO.P,RN3,7,R7.1*
G04 #@! TO.N,Net-(RN3-R7.1)*
X83835000Y-82550000D03*
G04 #@! TO.P,RN3,8,R8.1*
G04 #@! TO.N,Net-(RN3-R8.1)*
X81295000Y-82550000D03*
G04 #@! TO.P,RN3,9,R8.2*
G04 #@! TO.N,Net-(RN3-R8.2)*
X81295000Y-74930000D03*
G04 #@! TO.P,RN3,10,R7.2*
G04 #@! TO.N,Net-(RN3-R7.2)*
X83835000Y-74930000D03*
G04 #@! TO.P,RN3,11,R6.2*
G04 #@! TO.N,Net-(RN3-R6.2)*
X86375000Y-74930000D03*
G04 #@! TO.P,RN3,12,R5.2*
G04 #@! TO.N,Net-(RN3-R5.2)*
X88915000Y-74930000D03*
G04 #@! TO.P,RN3,13,R4.2*
G04 #@! TO.N,Net-(RN3-R4.2)*
X91455000Y-74930000D03*
G04 #@! TO.P,RN3,14,R3.2*
G04 #@! TO.N,Net-(RN3-R3.2)*
X93995000Y-74930000D03*
G04 #@! TO.P,RN3,15,R2.2*
G04 #@! TO.N,Net-(RN3-R2.2)*
X96535000Y-74930000D03*
G04 #@! TO.P,RN3,16,R1.2*
G04 #@! TO.N,Net-(RN3-R1.2)*
X99075000Y-74930000D03*
G04 #@! TD*
D20*
G04 #@! TO.P,C4,1*
G04 #@! TO.N,+5V*
X128270000Y-114300000D03*
G04 #@! TO.P,C4,2*
G04 #@! TO.N,GND*
X128270000Y-119300000D03*
G04 #@! TD*
G04 #@! TO.P,C6,1*
G04 #@! TO.N,Net-(D2-A)*
X158115000Y-119300000D03*
G04 #@! TO.P,C6,2*
G04 #@! TO.N,GND*
X158115000Y-114300000D03*
G04 #@! TD*
D18*
G04 #@! TO.P,C12,1*
G04 #@! TO.N,+5V*
X150495000Y-116840000D03*
D20*
G04 #@! TO.P,C12,2*
G04 #@! TO.N,GND*
X147995000Y-116840000D03*
G04 #@! TD*
D18*
G04 #@! TO.P,U13,1,A0*
G04 #@! TO.N,A3*
X140970000Y-64135000D03*
D19*
G04 #@! TO.P,U13,2,A1*
G04 #@! TO.N,A4*
X140970000Y-66675000D03*
G04 #@! TO.P,U13,3,A2*
G04 #@! TO.N,A5*
X140970000Y-69215000D03*
G04 #@! TO.P,U13,4,E1*
G04 #@! TO.N,~{SEL_DISPLAY}*
X140970000Y-71755000D03*
G04 #@! TO.P,U13,5,E2*
X140970000Y-74295000D03*
G04 #@! TO.P,U13,6,E3*
G04 #@! TO.N,+5V*
X140970000Y-76835000D03*
G04 #@! TO.P,U13,7,O7*
G04 #@! TO.N,~{SET_ALL}*
X140970000Y-79375000D03*
G04 #@! TO.P,U13,8,GND*
G04 #@! TO.N,GND*
X140970000Y-81915000D03*
G04 #@! TO.P,U13,9,O6*
G04 #@! TO.N,unconnected-(U13-O6-Pad9)*
X133350000Y-81915000D03*
G04 #@! TO.P,U13,10,O5*
G04 #@! TO.N,~{DISP6}*
X133350000Y-79375000D03*
G04 #@! TO.P,U13,11,O4*
G04 #@! TO.N,~{DISP5}*
X133350000Y-76835000D03*
G04 #@! TO.P,U13,12,O3*
G04 #@! TO.N,~{DISP4}*
X133350000Y-74295000D03*
G04 #@! TO.P,U13,13,O2*
G04 #@! TO.N,~{DISP3}*
X133350000Y-71755000D03*
G04 #@! TO.P,U13,14,O1*
G04 #@! TO.N,~{DISP2}*
X133350000Y-69215000D03*
G04 #@! TO.P,U13,15,O0*
G04 #@! TO.N,~{DISP1}*
X133350000Y-66675000D03*
G04 #@! TO.P,U13,16,VCC*
G04 #@! TO.N,+5V*
X133350000Y-64135000D03*
G04 #@! TD*
D20*
G04 #@! TO.P,C1,1*
G04 #@! TO.N,+5V*
X53340000Y-88940000D03*
G04 #@! TO.P,C1,2*
G04 #@! TO.N,GND*
X53340000Y-93940000D03*
G04 #@! TD*
D16*
G04 #@! TO.P,JP4,1,A*
G04 #@! TO.N,Net-(JP1-A)*
X153065000Y-80010000D03*
D17*
G04 #@! TO.P,JP4,2,B*
G04 #@! TO.N,Net-(JP4-B)*
X151765000Y-80010000D03*
G04 #@! TD*
D20*
G04 #@! TO.P,R5,1*
G04 #@! TO.N,+5V*
X238760000Y-121920000D03*
D19*
G04 #@! TO.P,R5,2*
G04 #@! TO.N,Net-(U14-I3a)*
X238760000Y-111760000D03*
G04 #@! TD*
D20*
G04 #@! TO.P,C8,1*
G04 #@! TO.N,Net-(D4-A)*
X158115000Y-88820000D03*
G04 #@! TO.P,C8,2*
G04 #@! TO.N,GND*
X158115000Y-83820000D03*
G04 #@! TD*
G04 #@! TO.P,R3,1*
G04 #@! TO.N,+5V*
X238760000Y-91440000D03*
D19*
G04 #@! TO.P,R3,2*
G04 #@! TO.N,Net-(U14-I1a)*
X238760000Y-81280000D03*
G04 #@! TD*
D18*
G04 #@! TO.P,U3,1,A0*
G04 #@! TO.N,A0*
X99060000Y-95250000D03*
D19*
G04 #@! TO.P,U3,2,A1*
G04 #@! TO.N,A1*
X96520000Y-95250000D03*
G04 #@! TO.P,U3,3,A2*
G04 #@! TO.N,A2*
X93980000Y-95250000D03*
G04 #@! TO.P,U3,4,Q0*
G04 #@! TO.N,Net-(RN3-R1.1)*
X91440000Y-95250000D03*
G04 #@! TO.P,U3,5,Q1*
G04 #@! TO.N,Net-(RN3-R2.1)*
X88900000Y-95250000D03*
G04 #@! TO.P,U3,6,Q2*
G04 #@! TO.N,Net-(RN3-R3.1)*
X86360000Y-95250000D03*
G04 #@! TO.P,U3,7,Q3*
G04 #@! TO.N,Net-(RN3-R4.1)*
X83820000Y-95250000D03*
G04 #@! TO.P,U3,8,GND*
G04 #@! TO.N,GND*
X81280000Y-95250000D03*
G04 #@! TO.P,U3,9,Q4*
G04 #@! TO.N,Net-(RN3-R5.1)*
X81280000Y-87630000D03*
G04 #@! TO.P,U3,10,Q5*
G04 #@! TO.N,Net-(RN3-R6.1)*
X83820000Y-87630000D03*
G04 #@! TO.P,U3,11,Q6*
G04 #@! TO.N,Net-(RN3-R7.1)*
X86360000Y-87630000D03*
G04 #@! TO.P,U3,12,Q7*
G04 #@! TO.N,Net-(RN3-R8.1)*
X88900000Y-87630000D03*
G04 #@! TO.P,U3,13,D*
G04 #@! TO.N,D0*
X91440000Y-87630000D03*
G04 #@! TO.P,U3,14,E*
G04 #@! TO.N,~{DISP3}*
X93980000Y-87630000D03*
G04 #@! TO.P,U3,15,Clr*
G04 #@! TO.N,~{SET_ALL}*
X96520000Y-87630000D03*
G04 #@! TO.P,U3,16,VCC*
G04 #@! TO.N,+5V*
X99060000Y-87630000D03*
G04 #@! TD*
D18*
G04 #@! TO.P,D3,1,K*
G04 #@! TO.N,A1*
X163830000Y-97790000D03*
D19*
G04 #@! TO.P,D3,2,A*
G04 #@! TO.N,Net-(D3-A)*
X163830000Y-105410000D03*
G04 #@! TD*
D18*
G04 #@! TO.P,RN4,1,R1.1*
G04 #@! TO.N,Net-(RN4-R1.1)*
X99060000Y-107950000D03*
D19*
G04 #@! TO.P,RN4,2,R2.1*
G04 #@! TO.N,Net-(RN4-R2.1)*
X96520000Y-107950000D03*
G04 #@! TO.P,RN4,3,R3.1*
G04 #@! TO.N,Net-(RN4-R3.1)*
X93980000Y-107950000D03*
G04 #@! TO.P,RN4,4,R4.1*
G04 #@! TO.N,Net-(RN4-R4.1)*
X91440000Y-107950000D03*
G04 #@! TO.P,RN4,5,R5.1*
G04 #@! TO.N,Net-(RN4-R5.1)*
X88900000Y-107950000D03*
G04 #@! TO.P,RN4,6,R6.1*
G04 #@! TO.N,Net-(RN4-R6.1)*
X86360000Y-107950000D03*
G04 #@! TO.P,RN4,7,R7.1*
G04 #@! TO.N,Net-(RN4-R7.1)*
X83820000Y-107950000D03*
G04 #@! TO.P,RN4,8,R8.1*
G04 #@! TO.N,Net-(RN4-R8.1)*
X81280000Y-107950000D03*
G04 #@! TO.P,RN4,9,R8.2*
G04 #@! TO.N,Net-(RN4-R8.2)*
X81280000Y-100330000D03*
G04 #@! TO.P,RN4,10,R7.2*
G04 #@! TO.N,Net-(RN4-R7.2)*
X83820000Y-100330000D03*
G04 #@! TO.P,RN4,11,R6.2*
G04 #@! TO.N,Net-(RN4-R6.2)*
X86360000Y-100330000D03*
G04 #@! TO.P,RN4,12,R5.2*
G04 #@! TO.N,Net-(RN4-R5.2)*
X88900000Y-100330000D03*
G04 #@! TO.P,RN4,13,R4.2*
G04 #@! TO.N,Net-(RN4-R4.2)*
X91440000Y-100330000D03*
G04 #@! TO.P,RN4,14,R3.2*
G04 #@! TO.N,Net-(RN4-R3.2)*
X93980000Y-100330000D03*
G04 #@! TO.P,RN4,15,R2.2*
G04 #@! TO.N,Net-(RN4-R2.2)*
X96520000Y-100330000D03*
G04 #@! TO.P,RN4,16,R1.2*
G04 #@! TO.N,Net-(RN4-R1.2)*
X99060000Y-100330000D03*
G04 #@! TD*
D16*
G04 #@! TO.P,JP2,1,A*
G04 #@! TO.N,Net-(JP1-A)*
X153065000Y-88900000D03*
D17*
G04 #@! TO.P,JP2,2,B*
G04 #@! TO.N,Net-(JP2-B)*
X151765000Y-88900000D03*
G04 #@! TD*
D20*
G04 #@! TO.P,C9,1*
G04 #@! TO.N,Net-(D5-A)*
X158115000Y-73580000D03*
G04 #@! TO.P,C9,2*
G04 #@! TO.N,GND*
X158115000Y-68580000D03*
G04 #@! TD*
G04 #@! TO.P,R1,1*
G04 #@! TO.N,+5V*
X147320000Y-70485000D03*
D19*
G04 #@! TO.P,R1,2*
G04 #@! TO.N,Net-(D1-A)*
X147320000Y-60325000D03*
G04 #@! TD*
D18*
G04 #@! TO.P,RN5,1,R1.1*
G04 #@! TO.N,Net-(RN5-R1.1)*
X123175000Y-82550000D03*
D19*
G04 #@! TO.P,RN5,2,R2.1*
G04 #@! TO.N,Net-(RN5-R2.1)*
X120635000Y-82550000D03*
G04 #@! TO.P,RN5,3,R3.1*
G04 #@! TO.N,Net-(RN5-R3.1)*
X118095000Y-82550000D03*
G04 #@! TO.P,RN5,4,R4.1*
G04 #@! TO.N,Net-(RN5-R4.1)*
X115555000Y-82550000D03*
G04 #@! TO.P,RN5,5,R5.1*
G04 #@! TO.N,Net-(RN5-R5.1)*
X113015000Y-82550000D03*
G04 #@! TO.P,RN5,6,R6.1*
G04 #@! TO.N,Net-(RN5-R6.1)*
X110475000Y-82550000D03*
G04 #@! TO.P,RN5,7,R7.1*
G04 #@! TO.N,Net-(RN5-R7.1)*
X107935000Y-82550000D03*
G04 #@! TO.P,RN5,8,R8.1*
G04 #@! TO.N,Net-(RN5-R8.1)*
X105395000Y-82550000D03*
G04 #@! TO.P,RN5,9,R8.2*
G04 #@! TO.N,Net-(RN5-R8.2)*
X105395000Y-74930000D03*
G04 #@! TO.P,RN5,10,R7.2*
G04 #@! TO.N,Net-(RN5-R7.2)*
X107935000Y-74930000D03*
G04 #@! TO.P,RN5,11,R6.2*
G04 #@! TO.N,Net-(RN5-R6.2)*
X110475000Y-74930000D03*
G04 #@! TO.P,RN5,12,R5.2*
G04 #@! TO.N,Net-(RN5-R5.2)*
X113015000Y-74930000D03*
G04 #@! TO.P,RN5,13,R4.2*
G04 #@! TO.N,Net-(RN5-R4.2)*
X115555000Y-74930000D03*
G04 #@! TO.P,RN5,14,R3.2*
G04 #@! TO.N,Net-(RN5-R3.2)*
X118095000Y-74930000D03*
G04 #@! TO.P,RN5,15,R2.2*
G04 #@! TO.N,Net-(RN5-R2.2)*
X120635000Y-74930000D03*
G04 #@! TO.P,RN5,16,R1.2*
G04 #@! TO.N,Net-(RN5-R1.2)*
X123175000Y-74930000D03*
G04 #@! TD*
D20*
G04 #@! TO.P,R2,1*
G04 #@! TO.N,+5V*
X238760000Y-76200000D03*
D19*
G04 #@! TO.P,R2,2*
G04 #@! TO.N,Net-(U14-I0a)*
X238760000Y-66040000D03*
G04 #@! TD*
D23*
G04 #@! TO.N,GND*
X128920500Y-122033900D03*
G04 #@! TO.N,+5V*
X153126400Y-124892000D03*
X96776900Y-115976100D03*
G04 #@! TO.N,A1*
X120413200Y-97601600D03*
X126551300Y-97533000D03*
X120192000Y-124482400D03*
G04 #@! TO.N,A4*
X159143000Y-63033300D03*
X134553600Y-125859800D03*
G04 #@! TO.N,Net-(RN1-R6.2)*
X57357700Y-72424200D03*
G04 #@! TO.N,Net-(RN1-R1.2)*
X59284800Y-67334800D03*
G04 #@! TO.N,Net-(RN2-R8.2)*
X53756800Y-69503200D03*
G04 #@! TO.N,Net-(RN2-R7.2)*
X77437700Y-97663100D03*
G04 #@! TO.N,Net-(RN2-R2.2)*
X77247400Y-98687000D03*
G04 #@! TO.N,Net-(RN2-R5.2)*
X71830300Y-85793200D03*
X69892400Y-84815500D03*
G04 #@! TO.N,Net-(RN2-R6.2)*
X57121500Y-57150000D03*
G04 #@! TO.N,Net-(RN2-R5.1)*
X61623500Y-111353800D03*
G04 #@! TO.N,Net-(RN3-R1.1)*
X98002200Y-92035700D03*
G04 #@! TO.N,Net-(RN3-R8.2)*
X84958300Y-63672800D03*
G04 #@! TO.N,Net-(RN3-R1.2)*
X92456600Y-52070000D03*
G04 #@! TO.N,Net-(RN3-R3.1)*
X90125500Y-84322000D03*
G04 #@! TO.N,Net-(RN3-R2.1)*
X96402600Y-90858500D03*
G04 #@! TO.N,Net-(RN3-R7.2)*
X84637800Y-58162900D03*
G04 #@! TO.N,Net-(RN4-R4.2)*
X97954700Y-96978300D03*
G04 #@! TO.N,Net-(RN4-R6.2)*
X79154200Y-54445500D03*
G04 #@! TO.N,Net-(RN4-R8.2)*
X98728300Y-97602600D03*
G04 #@! TO.N,Net-(RN4-R3.2)*
X98237100Y-98275000D03*
G04 #@! TO.N,Net-(RN4-R7.2)*
X89686300Y-63840100D03*
G04 #@! TO.N,Net-(RN4-R2.2)*
X102779100Y-77553300D03*
X99950900Y-98672200D03*
X102820500Y-78363200D03*
G04 #@! TO.N,Net-(RN5-R2.1)*
X105817600Y-80728200D03*
X107059400Y-94138300D03*
G04 #@! TO.N,Net-(RN6-R4.1)*
X113781500Y-109792500D03*
G04 #@! TO.N,Net-(RN6-R7.2)*
X124433200Y-98073600D03*
G04 #@! TO.N,Net-(RN6-R8.2)*
X105696300Y-66072000D03*
G04 #@! TO.N,Net-(RN6-R2.2)*
X124556300Y-99001400D03*
G04 #@! TO.N,Net-(RN6-R4.2)*
X124943000Y-100143000D03*
X126598400Y-66072000D03*
G04 #@! TO.N,~{DISP1}*
X73593100Y-66588000D03*
G04 #@! TO.N,D0*
X158411400Y-105482800D03*
G04 #@! TO.N,~{DISP2}*
X134910900Y-100806400D03*
X70353200Y-110414900D03*
G04 #@! TO.N,~{DISP3}*
X93862400Y-84443400D03*
G04 #@! TO.N,~{DISP4}*
X103629900Y-96819900D03*
X100822100Y-111871600D03*
X134698900Y-96869200D03*
G04 #@! TO.N,~{DISP6}*
X127680500Y-109111700D03*
G04 #@! TO.N,~{RESET}*
X132100200Y-60757600D03*
G04 #@! TO.N,D1*
X164452200Y-114365800D03*
G04 #@! TO.N,D2*
X132428800Y-125466000D03*
G04 #@! TO.N,Net-(JP1-B)*
X149565500Y-119481300D03*
G04 #@! TO.N,Net-(JP2-B)*
X148023300Y-115520200D03*
G04 #@! TO.N,Net-(JP3-B)*
X135971100Y-97315300D03*
X146828900Y-95740000D03*
G04 #@! TO.N,Net-(JP4-B)*
X144816100Y-107819200D03*
G04 #@! TD*
D24*
G04 #@! TO.N,GND*
X105410000Y-95240000D02*
X105410000Y-96341700D01*
X143797800Y-98792800D02*
X143797800Y-112642800D01*
X139660000Y-58386700D02*
X139660000Y-59690000D01*
X128920500Y-119950500D02*
X128920500Y-122033900D01*
X159243600Y-69394600D02*
X158429000Y-68580000D01*
X158429000Y-60466000D02*
X159218400Y-59676600D01*
X124460000Y-123110000D02*
X124460000Y-126483300D01*
X81280000Y-95250000D02*
X81280000Y-96351700D01*
X140970000Y-93265000D02*
X139620000Y-94615000D01*
X104291200Y-97460500D02*
X104291200Y-118444500D01*
X139620000Y-94615000D02*
X143797800Y-98792800D01*
X159243600Y-84948600D02*
X158115000Y-83820000D01*
X144775000Y-52070000D02*
X144775000Y-53271700D01*
X158115000Y-114300000D02*
X157006300Y-113191300D01*
X128270000Y-119300000D02*
X128920500Y-119950500D01*
X157006300Y-113191300D02*
X157006300Y-100168700D01*
X105410000Y-96341700D02*
X104291200Y-97460500D01*
X159218400Y-54443400D02*
X158115000Y-53340000D01*
X144775000Y-53271700D02*
X139660000Y-58386700D01*
X105395000Y-120650000D02*
X105395000Y-119548300D01*
X139620000Y-94615000D02*
X139435200Y-94799800D01*
X140970000Y-81915000D02*
X140970000Y-93265000D01*
X57785000Y-120650000D02*
X57785000Y-119548300D01*
X140970000Y-121920000D02*
X140970000Y-120818300D01*
X158115000Y-83820000D02*
X159243600Y-82691400D01*
X140741700Y-120818300D02*
X140970000Y-120818300D01*
X58896200Y-97462900D02*
X57785000Y-96351700D01*
X58896200Y-118437100D02*
X58896200Y-97462900D01*
X158429000Y-68580000D02*
X158115000Y-68580000D01*
X158115000Y-99060000D02*
X159243600Y-97931400D01*
X157006300Y-100168700D02*
X158115000Y-99060000D01*
X81280000Y-120650000D02*
X81280000Y-119548300D01*
X80163800Y-97467900D02*
X81280000Y-96351700D01*
X139435200Y-94799800D02*
X139435200Y-119511800D01*
X80163800Y-118432100D02*
X80163800Y-97467900D01*
X159243600Y-97931400D02*
X159243600Y-84948600D01*
X57785000Y-119548300D02*
X58896200Y-118437100D01*
X139435200Y-119511800D02*
X140741700Y-120818300D01*
X159243600Y-82691400D02*
X159243600Y-69394600D01*
X81280000Y-119548300D02*
X80163800Y-118432100D01*
X57785000Y-95250000D02*
X57785000Y-96351700D01*
X158429000Y-68580000D02*
X158429000Y-60466000D01*
X104291200Y-118444500D02*
X105395000Y-119548300D01*
X159218400Y-59676600D02*
X159218400Y-54443400D01*
X128270000Y-119300000D02*
X124460000Y-123110000D01*
X124460000Y-127635000D02*
X124460000Y-126483300D01*
X143797800Y-112642800D02*
X147995000Y-116840000D01*
G04 #@! TO.N,+5V*
X142071700Y-76835000D02*
X142071700Y-75733300D01*
X128282200Y-105001200D02*
X133121700Y-100161700D01*
X97400500Y-90391200D02*
X97400500Y-92667300D01*
X54444500Y-113275500D02*
X53340000Y-114380000D01*
X134451700Y-78918600D02*
X133806400Y-78273300D01*
X67682700Y-53325200D02*
X65157500Y-50800000D01*
X133207200Y-80476700D02*
X133806400Y-80476700D01*
X133121700Y-100161700D02*
X133350000Y-100161700D01*
X239861700Y-107781700D02*
X238760000Y-106680000D01*
X113187300Y-52289800D02*
X111697500Y-50800000D01*
X80807500Y-55247900D02*
X76792500Y-51232900D01*
X239876800Y-92556800D02*
X239876800Y-105563200D01*
X132226400Y-78273300D02*
X132226400Y-66132000D01*
X128282200Y-114287800D02*
X128282200Y-105001200D01*
X89917300Y-52289800D02*
X88427500Y-50800000D01*
X239876800Y-105563200D02*
X238760000Y-106680000D01*
X128270000Y-82229700D02*
X132226400Y-78273300D01*
X54444500Y-90044500D02*
X54444500Y-113275500D01*
X133121700Y-65236700D02*
X133350000Y-65236700D01*
X53155100Y-60262400D02*
X53155100Y-88755100D01*
X134451700Y-79831400D02*
X134451700Y-78918600D01*
X76792500Y-51232900D02*
X76792500Y-50800000D01*
X97635400Y-97509800D02*
X97635400Y-110503700D01*
X133350000Y-64135000D02*
X133350000Y-65236700D01*
X239861700Y-120818300D02*
X239861700Y-107781700D01*
X133350000Y-61000000D02*
X133350000Y-64135000D01*
X134620000Y-94615000D02*
X133350000Y-94615000D01*
X142071700Y-75733300D02*
X147320000Y-70485000D01*
X133350000Y-94615000D02*
X132229600Y-93494600D01*
X151130000Y-60325000D02*
X147320000Y-64135000D01*
X53340000Y-88940000D02*
X54444500Y-90044500D01*
X128270000Y-114300000D02*
X128282200Y-114287800D01*
X67682700Y-54390200D02*
X67682700Y-53325200D01*
X140970000Y-76835000D02*
X142071700Y-76835000D01*
X115712500Y-55880000D02*
X113187300Y-53354800D01*
X57537500Y-55880000D02*
X53155100Y-60262400D01*
X133350000Y-99060000D02*
X133350000Y-100161700D01*
X97353000Y-97227400D02*
X97635400Y-97509800D01*
X97353000Y-96729200D02*
X97353000Y-97227400D01*
X133806400Y-78273300D02*
X132226400Y-78273300D01*
X97635400Y-92902200D02*
X97635400Y-96446800D01*
X153126400Y-120573100D02*
X150495000Y-117941700D01*
X239876800Y-77316800D02*
X239876800Y-90323200D01*
X97635400Y-110503700D02*
X99060000Y-111928300D01*
X80807500Y-55880000D02*
X80807500Y-55247900D01*
X238760000Y-121920000D02*
X239861700Y-120818300D01*
X147320000Y-64135000D02*
X147320000Y-70485000D01*
X113187300Y-53354800D02*
X113187300Y-52289800D01*
X150495000Y-116840000D02*
X150495000Y-117941700D01*
X132226400Y-66132000D02*
X133121700Y-65236700D01*
X133350000Y-94615000D02*
X133350000Y-99060000D01*
X97400500Y-92667300D02*
X97635400Y-92902200D01*
X134660000Y-59690000D02*
X133350000Y-61000000D01*
X132229600Y-81454300D02*
X133207200Y-80476700D01*
X102587700Y-54390200D02*
X104077500Y-55880000D01*
X69172500Y-55880000D02*
X67682700Y-54390200D01*
X238760000Y-91440000D02*
X239876800Y-92556800D01*
X92442500Y-55880000D02*
X89917300Y-53354800D01*
X99060000Y-87630000D02*
X99060000Y-88731700D01*
X99060000Y-88731700D02*
X97400500Y-90391200D01*
X153126400Y-124892000D02*
X153126400Y-120573100D01*
X238760000Y-76200000D02*
X239876800Y-77316800D01*
X100062500Y-50800000D02*
X102587700Y-53325200D01*
X96776900Y-115976100D02*
X99060000Y-113693000D01*
X99060000Y-113693000D02*
X99060000Y-113030000D01*
X128270000Y-88940000D02*
X128270000Y-82229700D01*
X102587700Y-53325200D02*
X102587700Y-54390200D01*
X239876800Y-90323200D02*
X238760000Y-91440000D01*
X89917300Y-53354800D02*
X89917300Y-52289800D01*
X132229600Y-93494600D02*
X132229600Y-81454300D01*
X99060000Y-113030000D02*
X99060000Y-111928300D01*
X133806400Y-80476700D02*
X134451700Y-79831400D01*
X97635400Y-96446800D02*
X97353000Y-96729200D01*
X53155100Y-88755100D02*
X53340000Y-88940000D01*
G04 #@! TO.N,Net-(D1-A)*
X147320000Y-52075000D02*
X147315000Y-52070000D01*
X147320000Y-60325000D02*
X147320000Y-52075000D01*
G04 #@! TO.N,A0*
X75565000Y-120650000D02*
X75565000Y-119548300D01*
X75565000Y-97855400D02*
X76666700Y-98957100D01*
X163830000Y-117568500D02*
X163830000Y-113030000D01*
X76666700Y-98957100D02*
X76666700Y-118446600D01*
X75565000Y-95250000D02*
X75565000Y-96351700D01*
X148471700Y-127922900D02*
X149768100Y-129219300D01*
X155024900Y-129219300D02*
X156170100Y-128074100D01*
X75565000Y-96351700D02*
X75565000Y-97855400D01*
X148471700Y-127635000D02*
X148471700Y-127922900D01*
X149768100Y-129219300D02*
X155024900Y-129219300D01*
X156170100Y-125228400D02*
X163830000Y-117568500D01*
X147320000Y-127635000D02*
X148471700Y-127635000D01*
X156170100Y-128074100D02*
X156170100Y-125228400D01*
X76666700Y-118446600D02*
X75565000Y-119548300D01*
G04 #@! TO.N,A1*
X120635000Y-119548300D02*
X126551300Y-113632000D01*
X120413200Y-97601600D02*
X120650000Y-97364800D01*
X120635000Y-120650000D02*
X120635000Y-119548300D01*
X120650000Y-97364800D02*
X120650000Y-95240000D01*
X120635000Y-124039400D02*
X120635000Y-120650000D01*
X120192000Y-124482400D02*
X120635000Y-124039400D01*
X126551300Y-113632000D02*
X126551300Y-97533000D01*
G04 #@! TO.N,A2*
X118110000Y-97778600D02*
X118110000Y-95240000D01*
X119773200Y-102521500D02*
X118720700Y-102521500D01*
X118720700Y-102521500D02*
X116993300Y-100794100D01*
X116993300Y-98895300D02*
X118110000Y-97778600D01*
X124299400Y-113481600D02*
X124299400Y-107047700D01*
X124299400Y-107047700D02*
X119773200Y-102521500D01*
X116993300Y-100794100D02*
X116993300Y-98895300D01*
X118095000Y-120650000D02*
X118095000Y-119548300D01*
X118232700Y-119548300D02*
X124299400Y-113481600D01*
X118095000Y-119548300D02*
X118232700Y-119548300D01*
G04 #@! TO.N,A3*
X141107700Y-65236700D02*
X142089500Y-66218500D01*
X138509500Y-77670700D02*
X138509500Y-125292800D01*
X138509500Y-125292800D02*
X139700000Y-126483300D01*
X140970000Y-65236700D02*
X141107700Y-65236700D01*
X141405400Y-75423400D02*
X140756800Y-75423400D01*
X140970000Y-64135000D02*
X140970000Y-65236700D01*
X139700000Y-127635000D02*
X139700000Y-126483300D01*
X140756800Y-75423400D02*
X138509500Y-77670700D01*
X142089500Y-74739300D02*
X141405400Y-75423400D01*
X142089500Y-66218500D02*
X142089500Y-74739300D01*
G04 #@! TO.N,A4*
X134553600Y-125859800D02*
X136573600Y-123839800D01*
X140741700Y-67776700D02*
X140970000Y-67776700D01*
X161938100Y-55063600D02*
X163830000Y-53171700D01*
X140970000Y-66675000D02*
X140970000Y-67776700D01*
X159143000Y-63033300D02*
X161938100Y-60238200D01*
X161938100Y-60238200D02*
X161938100Y-55063600D01*
X136573600Y-123839800D02*
X136573600Y-71944800D01*
X163830000Y-52070000D02*
X163830000Y-53171700D01*
X136573600Y-71944800D02*
X140741700Y-67776700D01*
G04 #@! TO.N,Net-(RN1-R4.1)*
X60325000Y-95250000D02*
X60325000Y-94148300D01*
X60325000Y-94148300D02*
X64048600Y-90424700D01*
X64048600Y-90424700D02*
X64048600Y-87319800D01*
X67945000Y-82550000D02*
X67945000Y-83651700D01*
X67716700Y-83651700D02*
X67945000Y-83651700D01*
X64048600Y-87319800D02*
X67716700Y-83651700D01*
G04 #@! TO.N,Net-(RN1-R2.1)*
X69344200Y-86230800D02*
X73025000Y-82550000D01*
X65405000Y-94148300D02*
X69344200Y-90209100D01*
X65405000Y-95250000D02*
X65405000Y-94148300D01*
X69344200Y-90209100D02*
X69344200Y-86230800D01*
G04 #@! TO.N,Net-(RN1-R5.1)*
X57754200Y-81006800D02*
X56655300Y-82105700D01*
X56655300Y-82105700D02*
X56655300Y-85398600D01*
X65405000Y-82550000D02*
X64303300Y-82550000D01*
X64303300Y-82550000D02*
X64303300Y-82412300D01*
X62897800Y-81006800D02*
X57754200Y-81006800D01*
X56655300Y-85398600D02*
X57785000Y-86528300D01*
X57785000Y-87630000D02*
X57785000Y-86528300D01*
X64303300Y-82412300D02*
X62897800Y-81006800D01*
G04 #@! TO.N,Net-(RN1-R6.1)*
X60325000Y-84436200D02*
X59223300Y-83334500D01*
X61763300Y-82550000D02*
X62865000Y-82550000D01*
X59868600Y-81448300D02*
X60781400Y-81448300D01*
X60325000Y-87630000D02*
X60325000Y-84436200D01*
X61763300Y-82430200D02*
X61763300Y-82550000D01*
X59223300Y-82093600D02*
X59868600Y-81448300D01*
X59223300Y-83334500D02*
X59223300Y-82093600D01*
X60781400Y-81448300D02*
X61763300Y-82430200D01*
G04 #@! TO.N,Net-(RN1-R6.2)*
X57357700Y-67707200D02*
X57357700Y-72424200D01*
X57537500Y-53340000D02*
X58623600Y-54426100D01*
X58623600Y-66441300D02*
X57357700Y-67707200D01*
X58623600Y-54426100D02*
X58623600Y-66441300D01*
G04 #@! TO.N,Net-(RN1-R7.2)*
X64876900Y-64833300D02*
X65395700Y-64833300D01*
X64105100Y-61436900D02*
X64105100Y-59472400D01*
X65410700Y-62230000D02*
X64898200Y-62230000D01*
X64898200Y-62230000D02*
X64105100Y-61436900D01*
X60325000Y-74930000D02*
X60325000Y-69385200D01*
X60325000Y-69385200D02*
X64876900Y-64833300D01*
X65395700Y-64833300D02*
X66216700Y-64012300D01*
X66216700Y-64012300D02*
X66216700Y-63036000D01*
X64105100Y-59472400D02*
X65157500Y-58420000D01*
X66216700Y-63036000D02*
X65410700Y-62230000D01*
G04 #@! TO.N,Net-(RN1-R7.1)*
X62865000Y-86191700D02*
X60325000Y-83651700D01*
X62865000Y-87630000D02*
X62865000Y-86191700D01*
X60325000Y-83651700D02*
X60325000Y-82550000D01*
G04 #@! TO.N,Net-(RN1-R5.2)*
X57489500Y-76254600D02*
X56635500Y-75400600D01*
X65405000Y-74930000D02*
X64303300Y-74930000D01*
X61134000Y-76254600D02*
X61298800Y-76089800D01*
X64303300Y-75158300D02*
X64303300Y-74930000D01*
X63371800Y-76089800D02*
X64303300Y-75158300D01*
X56635500Y-66942000D02*
X57537500Y-66040000D01*
X61134000Y-76254600D02*
X57489500Y-76254600D01*
X61134000Y-76254600D02*
X61298800Y-76089800D01*
X56635500Y-75400600D02*
X56635500Y-66942000D01*
X61298800Y-76089800D02*
X63371800Y-76089800D01*
G04 #@! TO.N,Net-(RN1-R8.2)*
X57959400Y-73653900D02*
X57959400Y-70698100D01*
X57959400Y-70698100D02*
X65157500Y-63500000D01*
X57785000Y-74930000D02*
X57785000Y-73828300D01*
X57785000Y-73828300D02*
X57959400Y-73653900D01*
G04 #@! TO.N,Net-(RN1-R3.2)*
X65157500Y-60960000D02*
X67165100Y-62967600D01*
X70485000Y-74930000D02*
X70485000Y-73828300D01*
X67165100Y-62967600D02*
X67165100Y-70508400D01*
X67165100Y-70508400D02*
X70485000Y-73828300D01*
G04 #@! TO.N,Net-(RN1-R1.2)*
X59284800Y-67334800D02*
X59284800Y-53599000D01*
X59284800Y-53599000D02*
X57537500Y-51851700D01*
X57537500Y-50800000D02*
X57537500Y-51851700D01*
G04 #@! TO.N,Net-(RN1-R3.1)*
X70485000Y-83651700D02*
X70139800Y-83651700D01*
X70139800Y-83651700D02*
X66560800Y-87230700D01*
X66560800Y-90452500D02*
X62865000Y-94148300D01*
X62865000Y-95250000D02*
X62865000Y-94148300D01*
X66560800Y-87230700D02*
X66560800Y-90452500D01*
X70485000Y-82550000D02*
X70485000Y-83651700D01*
G04 #@! TO.N,Net-(RN1-R4.2)*
X65157500Y-66040000D02*
X65157500Y-71040800D01*
X65157500Y-71040800D02*
X67945000Y-73828300D01*
X67945000Y-74930000D02*
X67945000Y-73828300D01*
G04 #@! TO.N,Net-(RN1-R1.1)*
X74463300Y-84753400D02*
X75565000Y-83651700D01*
X74463300Y-87767700D02*
X74463300Y-84753400D01*
X67945000Y-94148300D02*
X68082700Y-94148300D01*
X75565000Y-82550000D02*
X75565000Y-83651700D01*
X68082700Y-94148300D02*
X74463300Y-87767700D01*
X67945000Y-95250000D02*
X67945000Y-94148300D01*
G04 #@! TO.N,Net-(RN1-R2.2)*
X65157500Y-53340000D02*
X67134100Y-55316600D01*
X67134100Y-57890300D02*
X68933800Y-59690000D01*
X73025000Y-74930000D02*
X73025000Y-73828300D01*
X67134100Y-55316600D02*
X67134100Y-57890300D01*
X68933800Y-59690000D02*
X69420700Y-59690000D01*
X72991400Y-73794700D02*
X73025000Y-73828300D01*
X72991400Y-63260700D02*
X72991400Y-73794700D01*
X69420700Y-59690000D02*
X72991400Y-63260700D01*
G04 #@! TO.N,Net-(RN2-R2.1)*
X69370700Y-107464800D02*
X69370700Y-115582600D01*
X73025000Y-107950000D02*
X71923300Y-107950000D01*
X65405000Y-120650000D02*
X65405000Y-119548300D01*
X69370700Y-115582600D02*
X65405000Y-119548300D01*
X70020900Y-106814600D02*
X69370700Y-107464800D01*
X71923300Y-107721700D02*
X71016200Y-106814600D01*
X71016200Y-106814600D02*
X70020900Y-106814600D01*
X71923300Y-107950000D02*
X71923300Y-107721700D01*
G04 #@! TO.N,Net-(RN2-R8.2)*
X53756800Y-87331900D02*
X53756800Y-69503200D01*
X56683300Y-90258400D02*
X53756800Y-87331900D01*
X57785000Y-99228300D02*
X56683300Y-98126600D01*
X57785000Y-100330000D02*
X57785000Y-99228300D01*
X56683300Y-98126600D02*
X56683300Y-90258400D01*
G04 #@! TO.N,Net-(RN2-R7.2)*
X78740200Y-60367700D02*
X78740200Y-96360600D01*
X76792500Y-58420000D02*
X78740200Y-60367700D01*
X78740200Y-96360600D02*
X77437700Y-97663100D01*
G04 #@! TO.N,Net-(RN2-R2.2)*
X78752500Y-58932600D02*
X78741700Y-58921800D01*
X77264700Y-98687000D02*
X77247400Y-98687000D01*
X79143400Y-59323500D02*
X79143400Y-96808300D01*
X79143400Y-96808300D02*
X77264700Y-98687000D01*
X76792500Y-53340000D02*
X78741700Y-55289200D01*
X78752500Y-58932600D02*
X78741700Y-58921800D01*
X78741700Y-55289200D02*
X78741700Y-58921800D01*
X78752500Y-58932600D02*
X79143400Y-59323500D01*
G04 #@! TO.N,Net-(RN2-R4.2)*
X70727800Y-94072800D02*
X70034800Y-94072800D01*
X69215000Y-94892600D02*
X69215000Y-97958300D01*
X67945000Y-100330000D02*
X67945000Y-99228300D01*
X69215000Y-97958300D02*
X67945000Y-99228300D01*
X76792500Y-88008100D02*
X70727800Y-94072800D01*
X70034800Y-94072800D02*
X69215000Y-94892600D01*
X76792500Y-66040000D02*
X76792500Y-88008100D01*
G04 #@! TO.N,Net-(RN2-R5.2)*
X69172500Y-66040000D02*
X71586700Y-68454200D01*
X71830300Y-85793200D02*
X71830300Y-88848600D01*
X66675000Y-94003900D02*
X66675000Y-97958300D01*
X71586700Y-83121200D02*
X69892400Y-84815500D01*
X71586700Y-68454200D02*
X71586700Y-83121200D01*
X66675000Y-97958300D02*
X65405000Y-99228300D01*
X65405000Y-100330000D02*
X65405000Y-99228300D01*
X71830300Y-88848600D02*
X66675000Y-94003900D01*
G04 #@! TO.N,Net-(RN2-R3.2)*
X70485000Y-100330000D02*
X70485000Y-99228300D01*
X71755000Y-97958300D02*
X70485000Y-99228300D01*
X77896900Y-87945700D02*
X71755000Y-94087600D01*
X77896900Y-62064400D02*
X77896900Y-87945700D01*
X71755000Y-94087600D02*
X71755000Y-97958300D01*
X76792500Y-60960000D02*
X77896900Y-62064400D01*
G04 #@! TO.N,Net-(RN2-R1.2)*
X77048600Y-59690000D02*
X76548000Y-59690000D01*
X74454700Y-98118000D02*
X74454700Y-92231500D01*
X70224200Y-53366200D02*
X70224200Y-52903400D01*
X75565000Y-100330000D02*
X75565000Y-99228300D01*
X75565000Y-99228300D02*
X74454700Y-98118000D01*
X78315400Y-88370800D02*
X78315400Y-60956800D01*
X70224200Y-52903400D02*
X69172500Y-51851700D01*
X76548000Y-59690000D02*
X70224200Y-53366200D01*
X78315400Y-60956800D02*
X77048600Y-59690000D01*
X69172500Y-50800000D02*
X69172500Y-51851700D01*
X74454700Y-92231500D02*
X78315400Y-88370800D01*
G04 #@! TO.N,Net-(RN2-R4.1)*
X66843300Y-110153400D02*
X66843300Y-113258300D01*
X60553300Y-119548300D02*
X60325000Y-119548300D01*
X67945000Y-109051700D02*
X66843300Y-110153400D01*
X67945000Y-107950000D02*
X67945000Y-109051700D01*
X60325000Y-120650000D02*
X60325000Y-119548300D01*
X66843300Y-113258300D02*
X60553300Y-119548300D01*
G04 #@! TO.N,Net-(RN2-R6.2)*
X62865000Y-99228300D02*
X62727300Y-99228300D01*
X59141400Y-95642400D02*
X59141400Y-90544500D01*
X59141400Y-90544500D02*
X56200300Y-87603400D01*
X62727300Y-99228300D02*
X59141400Y-95642400D01*
X56200300Y-87603400D02*
X56200300Y-58071200D01*
X62865000Y-100330000D02*
X62865000Y-99228300D01*
X56200300Y-58071200D02*
X57121500Y-57150000D01*
G04 #@! TO.N,Net-(RN2-R7.1)*
X62865000Y-113030000D02*
X62865000Y-111928300D01*
X61426700Y-107721700D02*
X61426700Y-107950000D01*
X63002700Y-111928300D02*
X66506700Y-108424300D01*
X62372300Y-106776100D02*
X61426700Y-107721700D01*
X65797200Y-106776100D02*
X62372300Y-106776100D01*
X60325000Y-107950000D02*
X61426700Y-107950000D01*
X66506700Y-108424300D02*
X66506700Y-107485600D01*
X66506700Y-107485600D02*
X65797200Y-106776100D01*
X62865000Y-111928300D02*
X63002700Y-111928300D01*
G04 #@! TO.N,Net-(RN2-R6.1)*
X60325000Y-111591700D02*
X62865000Y-109051700D01*
X60325000Y-113030000D02*
X60325000Y-111591700D01*
X62865000Y-107950000D02*
X62865000Y-109051700D01*
G04 #@! TO.N,Net-(RN2-R3.1)*
X63966700Y-120878300D02*
X63966700Y-120650000D01*
X66675000Y-120120000D02*
X66675000Y-120943400D01*
X71599800Y-110166500D02*
X71599800Y-115195200D01*
X70485000Y-107950000D02*
X70485000Y-109051700D01*
X71599800Y-115195200D02*
X66675000Y-120120000D01*
X62865000Y-120650000D02*
X63966700Y-120650000D01*
X65815300Y-121803100D02*
X64891500Y-121803100D01*
X70485000Y-109051700D02*
X71599800Y-110166500D01*
X66675000Y-120943400D02*
X65815300Y-121803100D01*
X64891500Y-121803100D02*
X63966700Y-120878300D01*
G04 #@! TO.N,Net-(RN2-R1.1)*
X75565000Y-107950000D02*
X75565000Y-109051700D01*
X75565000Y-109051700D02*
X74463300Y-110153400D01*
X69961200Y-121792800D02*
X69046700Y-120878300D01*
X74463300Y-120811600D02*
X73482100Y-121792800D01*
X74463300Y-110153400D02*
X74463300Y-120811600D01*
X73482100Y-121792800D02*
X69961200Y-121792800D01*
X67945000Y-120650000D02*
X69046700Y-120650000D01*
X69046700Y-120878300D02*
X69046700Y-120650000D01*
G04 #@! TO.N,Net-(RN2-R5.1)*
X64303300Y-108674000D02*
X61623500Y-111353800D01*
X64303300Y-107950000D02*
X64303300Y-108674000D01*
X65405000Y-107950000D02*
X64303300Y-107950000D01*
G04 #@! TO.N,Net-(RN3-R1.1)*
X100210600Y-84236400D02*
X100210600Y-89827300D01*
X100210600Y-89827300D02*
X98002200Y-92035700D01*
X99075000Y-83100800D02*
X100210600Y-84236400D01*
X99075000Y-82550000D02*
X99075000Y-83100800D01*
G04 #@! TO.N,Net-(RN3-R8.2)*
X81295000Y-74930000D02*
X81295000Y-73828300D01*
X84958300Y-70165000D02*
X81295000Y-73828300D01*
X84958300Y-63672800D02*
X84958300Y-70165000D01*
G04 #@! TO.N,Net-(RN3-R4.1)*
X90353300Y-83236900D02*
X87469500Y-86120700D01*
X91455000Y-82550000D02*
X90353300Y-82550000D01*
X87469500Y-86120700D02*
X87469500Y-90498800D01*
X90353300Y-82550000D02*
X90353300Y-83236900D01*
X87469500Y-90498800D02*
X83820000Y-94148300D01*
X83820000Y-95250000D02*
X83820000Y-94148300D01*
G04 #@! TO.N,Net-(RN3-R3.2)*
X89917300Y-63220300D02*
X89917300Y-62449800D01*
X90319000Y-63621900D02*
X89917400Y-63220300D01*
X90319000Y-70152300D02*
X90319000Y-63621900D01*
X93995000Y-74930000D02*
X93995000Y-73828300D01*
X89917300Y-62449800D02*
X88427500Y-60960000D01*
X93995000Y-73828300D02*
X90319000Y-70152300D01*
X89917400Y-63220300D02*
X89917300Y-63220300D01*
G04 #@! TO.N,Net-(RN3-R5.2)*
X80189600Y-75393200D02*
X80189600Y-66657900D01*
X86927900Y-76043700D02*
X80840100Y-76043700D01*
X80840100Y-76043700D02*
X80189600Y-75393200D01*
X87813300Y-74930000D02*
X87813300Y-75158300D01*
X80189600Y-66657900D02*
X80807500Y-66040000D01*
X88915000Y-74930000D02*
X87813300Y-74930000D01*
X87813300Y-75158300D02*
X86927900Y-76043700D01*
G04 #@! TO.N,Net-(RN3-R1.2)*
X93628900Y-53022400D02*
X92676500Y-52070000D01*
X99075000Y-70584600D02*
X93628900Y-65138500D01*
X93628900Y-65138500D02*
X93628900Y-53022400D01*
X99075000Y-74930000D02*
X99075000Y-70584600D01*
X92676500Y-52070000D02*
X92456600Y-52070000D01*
G04 #@! TO.N,Net-(RN3-R3.1)*
X90125500Y-84322000D02*
X90125500Y-90380700D01*
X86360000Y-94146200D02*
X86360000Y-94148300D01*
X86360000Y-95250000D02*
X86360000Y-94148300D01*
X90125500Y-90380700D02*
X86360000Y-94146200D01*
G04 #@! TO.N,Net-(RN3-R6.2)*
X86375000Y-58907500D02*
X86375000Y-74930000D01*
X80807500Y-53340000D02*
X86375000Y-58907500D01*
G04 #@! TO.N,Net-(RN3-R7.1)*
X86360000Y-87630000D02*
X86360000Y-86528300D01*
X83835000Y-84003300D02*
X86360000Y-86528300D01*
X83835000Y-82550000D02*
X83835000Y-84003300D01*
G04 #@! TO.N,Net-(RN3-R2.2)*
X96535000Y-68629600D02*
X96535000Y-74930000D01*
X88427500Y-53340000D02*
X90960100Y-55872600D01*
X90960100Y-55872600D02*
X90960100Y-63527100D01*
X92675400Y-64770000D02*
X96535000Y-68629600D01*
X92203000Y-64770000D02*
X92675400Y-64770000D01*
X90960100Y-63527100D02*
X92203000Y-64770000D01*
G04 #@! TO.N,Net-(RN3-R2.1)*
X97629500Y-89036500D02*
X97629500Y-84746200D01*
X96402600Y-90858500D02*
X96402600Y-90263400D01*
X96402600Y-90263400D02*
X97629500Y-89036500D01*
X97629500Y-84746200D02*
X96535000Y-83651700D01*
X96535000Y-82550000D02*
X96535000Y-83651700D01*
G04 #@! TO.N,Net-(RN3-R5.1)*
X82640200Y-82127300D02*
X83365200Y-81402300D01*
X82640200Y-85168100D02*
X82640200Y-82127300D01*
X87813300Y-82321700D02*
X87813300Y-82550000D01*
X81280000Y-87630000D02*
X81280000Y-86528300D01*
X81280000Y-86528300D02*
X82640200Y-85168100D01*
X88915000Y-82550000D02*
X87813300Y-82550000D01*
X86893900Y-81402300D02*
X87813300Y-82321700D01*
X83365200Y-81402300D02*
X86893900Y-81402300D01*
G04 #@! TO.N,Net-(RN3-R4.2)*
X91455000Y-74930000D02*
X91455000Y-73828300D01*
X88427500Y-70800800D02*
X88427500Y-66040000D01*
X91455000Y-73828300D02*
X88427500Y-70800800D01*
G04 #@! TO.N,Net-(RN3-R7.2)*
X85568400Y-72094900D02*
X83835000Y-73828300D01*
X84637800Y-58162900D02*
X85568400Y-59093500D01*
X83835000Y-74930000D02*
X83835000Y-73828300D01*
X85568400Y-59093500D02*
X85568400Y-72094900D01*
G04 #@! TO.N,Net-(RN4-R4.2)*
X100062500Y-66040000D02*
X100687700Y-66665200D01*
X100687700Y-95675500D02*
X99497800Y-96865400D01*
X98067600Y-96865400D02*
X97954700Y-96978300D01*
X100687700Y-66665200D02*
X100687700Y-95675500D01*
X99497800Y-96865400D02*
X98067600Y-96865400D01*
G04 #@! TO.N,Net-(RN4-R3.1)*
X86360000Y-120650000D02*
X86360000Y-119548300D01*
X90170000Y-112633400D02*
X93751700Y-109051700D01*
X93751700Y-109051700D02*
X93980000Y-109051700D01*
X90170000Y-115738300D02*
X90170000Y-112633400D01*
X86360000Y-119548300D02*
X90170000Y-115738300D01*
X93980000Y-107950000D02*
X93980000Y-109051700D01*
G04 #@! TO.N,Net-(RN4-R5.2)*
X90170000Y-97958300D02*
X88900000Y-99228300D01*
X95105300Y-88691600D02*
X90170000Y-93626900D01*
X90170000Y-93626900D02*
X90170000Y-97958300D01*
X88900000Y-100330000D02*
X88900000Y-99228300D01*
X92442500Y-66040000D02*
X95105300Y-68702800D01*
X95105300Y-68702800D02*
X95105300Y-88691600D01*
G04 #@! TO.N,Net-(RN4-R6.2)*
X82550000Y-100623400D02*
X83409700Y-101483100D01*
X84333500Y-101483100D02*
X85258300Y-100558300D01*
X79727700Y-55019000D02*
X79727700Y-90406000D01*
X86360000Y-100330000D02*
X85258300Y-100330000D01*
X83409700Y-101483100D02*
X84333500Y-101483100D01*
X85258300Y-100558300D02*
X85258300Y-100330000D01*
X79154200Y-54445500D02*
X79727700Y-55019000D01*
X82550000Y-93228300D02*
X82550000Y-100623400D01*
X79727700Y-90406000D02*
X82550000Y-93228300D01*
G04 #@! TO.N,Net-(RN4-R1.2)*
X101721600Y-64621800D02*
X101555300Y-64455500D01*
X101555300Y-62483500D02*
X101555300Y-64455500D01*
X92442500Y-50800000D02*
X93494200Y-50800000D01*
X100215600Y-98070600D02*
X100200200Y-98070600D01*
X100336500Y-57150000D02*
X99844200Y-57150000D01*
X101319900Y-62248100D02*
X101555300Y-62483500D01*
X101957000Y-96329200D02*
X100215600Y-98070600D01*
X99844200Y-57150000D02*
X93494200Y-50800000D01*
X101319900Y-62248100D02*
X101153600Y-62081800D01*
X101721600Y-64621800D02*
X101957000Y-64857200D01*
X101721600Y-64621800D02*
X101555300Y-64455500D01*
X101153600Y-57967100D02*
X100336500Y-57150000D01*
X99701800Y-98070500D02*
X99349200Y-98423100D01*
X101153600Y-62081800D02*
X101153600Y-57967100D01*
X101957000Y-64857200D02*
X101957000Y-96329200D01*
X101319900Y-62248100D02*
X101153600Y-62081800D01*
X99060000Y-100330000D02*
X99060000Y-99228300D01*
X100200200Y-98070600D02*
X100200100Y-98070500D01*
X99349200Y-98939100D02*
X99060000Y-99228300D01*
X100200100Y-98070500D02*
X99701800Y-98070500D01*
X99349200Y-98423100D02*
X99349200Y-98939100D01*
G04 #@! TO.N,Net-(RN4-R6.1)*
X83820000Y-111928300D02*
X86360000Y-109388300D01*
X83820000Y-113030000D02*
X83820000Y-111928300D01*
X86360000Y-109388300D02*
X86360000Y-109051700D01*
X86360000Y-107950000D02*
X86360000Y-109051700D01*
G04 #@! TO.N,Net-(RN4-R8.2)*
X100062500Y-64307500D02*
X101133200Y-65378200D01*
X98791500Y-97539400D02*
X98728300Y-97602600D01*
X99133800Y-97502500D02*
X99096900Y-97539400D01*
X101133200Y-65378200D02*
X101133200Y-95804900D01*
X99133800Y-97502500D02*
X99096900Y-97539400D01*
X99369200Y-97267100D02*
X99133800Y-97502500D01*
X99096900Y-97539400D02*
X98791500Y-97539400D01*
X99671000Y-97267100D02*
X99369200Y-97267100D01*
X101133200Y-95804900D02*
X99671000Y-97267100D01*
X100062500Y-63500000D02*
X100062500Y-64307500D01*
G04 #@! TO.N,Net-(RN4-R5.1)*
X81280000Y-113030000D02*
X81280000Y-111928300D01*
X87798300Y-107812300D02*
X86831400Y-106845400D01*
X82550000Y-107654700D02*
X82550000Y-110658300D01*
X83359300Y-106845400D02*
X82550000Y-107654700D01*
X88900000Y-107950000D02*
X87798300Y-107950000D01*
X87798300Y-107950000D02*
X87798300Y-107812300D01*
X82550000Y-110658300D02*
X81280000Y-111928300D01*
X86831400Y-106845400D02*
X83359300Y-106845400D01*
G04 #@! TO.N,Net-(RN4-R3.2)*
X101319900Y-64788100D02*
X101153600Y-64621800D01*
X99837300Y-97668800D02*
X99535500Y-97668800D01*
X101153600Y-62850000D02*
X100062500Y-61758900D01*
X101553800Y-65022000D02*
X101553800Y-95952300D01*
X101553800Y-95952300D02*
X99837300Y-97668800D01*
X99535500Y-97668800D02*
X98929300Y-98275000D01*
X98929300Y-98275000D02*
X98237100Y-98275000D01*
X101319900Y-64788100D02*
X101153600Y-64621800D01*
X101153600Y-64621800D02*
X101153600Y-62850000D01*
X101319900Y-64788100D02*
X101553800Y-65022000D01*
X100062500Y-61758900D02*
X100062500Y-60960000D01*
G04 #@! TO.N,Net-(RN4-R1.1)*
X91440000Y-120650000D02*
X92541700Y-120650000D01*
X100161700Y-110153400D02*
X100161700Y-113555000D01*
X95116200Y-118600500D02*
X94362900Y-118600500D01*
X92541700Y-120421700D02*
X92541700Y-120650000D01*
X100161700Y-113555000D02*
X95116200Y-118600500D01*
X99060000Y-107950000D02*
X99060000Y-109051700D01*
X94362900Y-118600500D02*
X92541700Y-120421700D01*
X99060000Y-109051700D02*
X100161700Y-110153400D01*
G04 #@! TO.N,Net-(RN4-R2.1)*
X97621700Y-111577200D02*
X96520000Y-110475500D01*
X96520000Y-107950000D02*
X96520000Y-109051700D01*
X91559800Y-119548300D02*
X97621700Y-113486400D01*
X96520000Y-110475500D02*
X96520000Y-109051700D01*
X88900000Y-119548300D02*
X91559800Y-119548300D01*
X88900000Y-120650000D02*
X88900000Y-119548300D01*
X97621700Y-113486400D02*
X97621700Y-111577200D01*
G04 #@! TO.N,Net-(RN4-R7.1)*
X85258300Y-113167700D02*
X84264900Y-114161100D01*
X85258300Y-113030000D02*
X85258300Y-113167700D01*
X83335800Y-114161100D02*
X82679300Y-113504600D01*
X83820000Y-111025800D02*
X83820000Y-107950000D01*
X82679300Y-112166500D02*
X83820000Y-111025800D01*
X82679300Y-113504600D02*
X82679300Y-112166500D01*
X84264900Y-114161100D02*
X83335800Y-114161100D01*
X86360000Y-113030000D02*
X85258300Y-113030000D01*
G04 #@! TO.N,Net-(RN4-R4.1)*
X91211700Y-109051700D02*
X91440000Y-109051700D01*
X87630000Y-115738300D02*
X87630000Y-112633400D01*
X83820000Y-119548300D02*
X87630000Y-115738300D01*
X91440000Y-107950000D02*
X91440000Y-109051700D01*
X83820000Y-120650000D02*
X83820000Y-119548300D01*
X87630000Y-112633400D02*
X91211700Y-109051700D01*
G04 #@! TO.N,Net-(RN4-R7.2)*
X84048300Y-99228300D02*
X83820000Y-99228300D01*
X92619400Y-73578300D02*
X92619400Y-88454800D01*
X92619400Y-88454800D02*
X87787100Y-93287100D01*
X89686300Y-70645200D02*
X92619400Y-73578300D01*
X83820000Y-100330000D02*
X83820000Y-99228300D01*
X87787100Y-95489500D02*
X84048300Y-99228300D01*
X89686300Y-63840100D02*
X89686300Y-70645200D01*
X87787100Y-93287100D02*
X87787100Y-95489500D01*
G04 #@! TO.N,Net-(RN4-R2.2)*
X102820500Y-78363200D02*
X102820500Y-96033700D01*
X102620700Y-77394900D02*
X102779100Y-77553300D01*
X100182000Y-98672200D02*
X99950900Y-98672200D01*
X102620700Y-55898200D02*
X102620700Y-77394900D01*
X100062500Y-53340000D02*
X102620700Y-55898200D01*
X102820500Y-96033700D02*
X100182000Y-98672200D01*
G04 #@! TO.N,Net-(RN5-R3.1)*
X116993300Y-87863300D02*
X110718300Y-94138300D01*
X110718300Y-94138300D02*
X110490000Y-94138300D01*
X118095000Y-83651700D02*
X116993300Y-84753400D01*
X118095000Y-82550000D02*
X118095000Y-83651700D01*
X110490000Y-95240000D02*
X110490000Y-94138300D01*
X116993300Y-84753400D02*
X116993300Y-87863300D01*
G04 #@! TO.N,Net-(RN5-R1.2)*
X104077500Y-50800000D02*
X105129200Y-50800000D01*
X115849100Y-51928400D02*
X121818900Y-57898200D01*
X106180900Y-49748300D02*
X112684300Y-49748300D01*
X123175000Y-74930000D02*
X123175000Y-73828300D01*
X121818900Y-72472200D02*
X123175000Y-73828300D01*
X114864400Y-51928400D02*
X115849100Y-51928400D01*
X121818900Y-57898200D02*
X121818900Y-72472200D01*
X112684300Y-49748300D02*
X114864400Y-51928400D01*
X105129200Y-50800000D02*
X106180900Y-49748300D01*
G04 #@! TO.N,Net-(RN5-R5.1)*
X106511700Y-87620000D02*
X106511700Y-87757700D01*
X105410000Y-87620000D02*
X106511700Y-87620000D01*
X110950800Y-88724500D02*
X111760000Y-87915300D01*
X107478500Y-88724500D02*
X110950800Y-88724500D01*
X106511700Y-87757700D02*
X107478500Y-88724500D01*
X113015000Y-82550000D02*
X113015000Y-83651700D01*
X111760000Y-84906700D02*
X113015000Y-83651700D01*
X111760000Y-87915300D02*
X111760000Y-84906700D01*
G04 #@! TO.N,Net-(RN5-R7.1)*
X109036700Y-82550000D02*
X109036700Y-82412300D01*
X109036700Y-82412300D02*
X110010800Y-81438200D01*
X110982500Y-81438200D02*
X111623100Y-82078800D01*
X111623100Y-82078800D02*
X111623100Y-83411100D01*
X110490000Y-84544200D02*
X110490000Y-87620000D01*
X110010800Y-81438200D02*
X110982500Y-81438200D01*
X111623100Y-83411100D02*
X110490000Y-84544200D01*
X107935000Y-82550000D02*
X109036700Y-82550000D01*
G04 #@! TO.N,Net-(RN5-R2.2)*
X115450800Y-59690000D02*
X115942800Y-59690000D01*
X113924900Y-58164100D02*
X115450800Y-59690000D01*
X120635000Y-74930000D02*
X120635000Y-73828300D01*
X113924900Y-55567400D02*
X113924900Y-58164100D01*
X120633500Y-73826800D02*
X120635000Y-73828300D01*
X120633500Y-64380700D02*
X120633500Y-73826800D01*
X115942800Y-59690000D02*
X120633500Y-64380700D01*
X111697500Y-53340000D02*
X113924900Y-55567400D01*
G04 #@! TO.N,Net-(RN5-R4.2)*
X115555000Y-74930000D02*
X115555000Y-73828300D01*
X111697500Y-66040000D02*
X111697500Y-69970800D01*
X111697500Y-69970800D02*
X115555000Y-73828300D01*
G04 #@! TO.N,Net-(RN5-R4.1)*
X115555000Y-82550000D02*
X115555000Y-83651700D01*
X115555000Y-83651700D02*
X114453300Y-84753400D01*
X114453300Y-84753400D02*
X114453300Y-87863300D01*
X108178300Y-94138300D02*
X107950000Y-94138300D01*
X114453300Y-87863300D02*
X108178300Y-94138300D01*
X107950000Y-95240000D02*
X107950000Y-94138300D01*
G04 #@! TO.N,Net-(RN5-R8.2)*
X110640300Y-64557200D02*
X110640300Y-72013400D01*
X111697500Y-63500000D02*
X110640300Y-64557200D01*
X111591900Y-72965000D02*
X111591900Y-75392600D01*
X106900600Y-76435600D02*
X105395000Y-74930000D01*
X111591900Y-75392600D02*
X110548900Y-76435600D01*
X110640300Y-72013400D02*
X111591900Y-72965000D01*
X110548900Y-76435600D02*
X106900600Y-76435600D01*
G04 #@! TO.N,Net-(RN5-R6.2)*
X104077500Y-53340000D02*
X106665000Y-55927500D01*
X106665000Y-75276500D02*
X107421200Y-76032700D01*
X107421200Y-76032700D02*
X108498900Y-76032700D01*
X106665000Y-55927500D02*
X106665000Y-75276500D01*
X110475000Y-74930000D02*
X109373300Y-74930000D01*
X108498900Y-76032700D02*
X109373300Y-75158300D01*
X109373300Y-75158300D02*
X109373300Y-74930000D01*
G04 #@! TO.N,Net-(RN5-R5.2)*
X104077500Y-66040000D02*
X104077500Y-75215500D01*
X105699300Y-76837300D02*
X111107700Y-76837300D01*
X111107700Y-76837300D02*
X113015000Y-74930000D01*
X104077500Y-75215500D02*
X105699300Y-76837300D01*
G04 #@! TO.N,Net-(RN5-R3.2)*
X113187300Y-68920600D02*
X113187300Y-62449800D01*
X118095000Y-73828300D02*
X113187300Y-68920600D01*
X113187300Y-62449800D02*
X111697500Y-60960000D01*
X118095000Y-74930000D02*
X118095000Y-73828300D01*
G04 #@! TO.N,Net-(RN5-R2.1)*
X104247600Y-91326500D02*
X104247600Y-82087400D01*
X104247600Y-82087400D02*
X105606800Y-80728200D01*
X107059400Y-94138300D02*
X104247600Y-91326500D01*
X105606800Y-80728200D02*
X105817600Y-80728200D01*
G04 #@! TO.N,Net-(RN5-R1.1)*
X122073300Y-87772700D02*
X122073300Y-84753400D01*
X123175000Y-82550000D02*
X123175000Y-83651700D01*
X122073300Y-84753400D02*
X123175000Y-83651700D01*
X115707700Y-94138300D02*
X122073300Y-87772700D01*
X115570000Y-95240000D02*
X115570000Y-94138300D01*
X115570000Y-94138300D02*
X115707700Y-94138300D01*
G04 #@! TO.N,Net-(RN5-R7.2)*
X107935000Y-62182500D02*
X111697500Y-58420000D01*
X107935000Y-74930000D02*
X107935000Y-62182500D01*
G04 #@! TO.N,Net-(RN5-R6.1)*
X110475000Y-82550000D02*
X110475000Y-83651700D01*
X110475000Y-83651700D02*
X107950000Y-86176700D01*
X107950000Y-87620000D02*
X107950000Y-86518300D01*
X107950000Y-86176700D02*
X107950000Y-86518300D01*
G04 #@! TO.N,Net-(RN6-R1.2)*
X124435400Y-95556500D02*
X124435400Y-95889100D01*
X123785100Y-70447200D02*
X123785100Y-73982000D01*
X124435400Y-96021300D02*
X123175000Y-97281700D01*
X123175000Y-97281700D02*
X123175000Y-100330000D01*
X115712500Y-50800000D02*
X122280800Y-57368300D01*
X124435400Y-95889100D02*
X124435400Y-96021300D01*
X122280800Y-57368300D02*
X122280800Y-68942900D01*
X122280800Y-68942900D02*
X123785100Y-70447200D01*
X124738200Y-74935100D02*
X124738200Y-95253700D01*
X124738200Y-95253700D02*
X124435400Y-95556500D01*
X123785100Y-73982000D02*
X124738200Y-74935100D01*
G04 #@! TO.N,Net-(RN6-R2.1)*
X113243300Y-119548300D02*
X113015000Y-119548300D01*
X120635000Y-107950000D02*
X120635000Y-109051700D01*
X119533300Y-113258300D02*
X113243300Y-119548300D01*
X113015000Y-120650000D02*
X113015000Y-119548300D01*
X120635000Y-109051700D02*
X119533300Y-110153400D01*
X119533300Y-110153400D02*
X119533300Y-113258300D01*
G04 #@! TO.N,Net-(RN6-R6.1)*
X110475000Y-109388300D02*
X110475000Y-107950000D01*
X107935000Y-113030000D02*
X107935000Y-111928300D01*
X107935000Y-111928300D02*
X110475000Y-109388300D01*
G04 #@! TO.N,Net-(RN6-R4.1)*
X111603500Y-115879800D02*
X111603500Y-111970500D01*
X107935000Y-120650000D02*
X107935000Y-119548300D01*
X107935000Y-119548300D02*
X111603500Y-115879800D01*
X111603500Y-111970500D02*
X113781500Y-109792500D01*
G04 #@! TO.N,Net-(RN6-R5.1)*
X106496700Y-107773000D02*
X107451000Y-106818700D01*
X111913300Y-107721700D02*
X111913300Y-107950000D01*
X106496700Y-110826600D02*
X106496700Y-107773000D01*
X113015000Y-107950000D02*
X111913300Y-107950000D01*
X111010300Y-106818700D02*
X111913300Y-107721700D01*
X105395000Y-111928300D02*
X106496700Y-110826600D01*
X105395000Y-113030000D02*
X105395000Y-111928300D01*
X107451000Y-106818700D02*
X111010300Y-106818700D01*
G04 #@! TO.N,Net-(RN6-R6.2)*
X121035200Y-72814100D02*
X121905000Y-73683900D01*
X116840000Y-96675100D02*
X114286400Y-99228700D01*
X121905000Y-73683900D02*
X121905000Y-78600800D01*
X121905000Y-78600800D02*
X124333500Y-81029300D01*
X114286400Y-99228700D02*
X114286400Y-100675100D01*
X114286400Y-100675100D02*
X113528800Y-101432700D01*
X124333500Y-88035400D02*
X118306100Y-94062800D01*
X118306100Y-94062800D02*
X117724900Y-94062800D01*
X117724900Y-94062800D02*
X116840000Y-94947700D01*
X113528800Y-101432700D02*
X112451100Y-101432700D01*
X116840000Y-94947700D02*
X116840000Y-96675100D01*
X110475000Y-100330000D02*
X111576700Y-100330000D01*
X112451100Y-101432700D02*
X111576700Y-100558300D01*
X121035200Y-58662700D02*
X121035200Y-72814100D01*
X111576700Y-100558300D02*
X111576700Y-100330000D01*
X115712500Y-53340000D02*
X121035200Y-58662700D01*
X124333500Y-81029300D02*
X124333500Y-88035400D01*
G04 #@! TO.N,Net-(RN6-R7.2)*
X123332500Y-58420000D02*
X125590100Y-60677600D01*
X124332000Y-97972400D02*
X124433200Y-98073600D01*
X125146200Y-96871200D02*
X125146200Y-97441300D01*
X124513700Y-98073800D02*
X124513500Y-98073600D01*
X124633300Y-97954200D02*
X124513700Y-98073800D01*
X125590100Y-95537800D02*
X125238800Y-95889100D01*
X124513500Y-98073600D02*
X124433200Y-98073600D01*
X125238800Y-96778600D02*
X125146200Y-96871200D01*
X124633300Y-97954200D02*
X124513700Y-98073800D01*
X125590100Y-60677600D02*
X125590100Y-95537800D01*
X124433200Y-98073600D02*
X124332000Y-97972400D01*
X125146200Y-97441300D02*
X124633300Y-97954200D01*
X125238800Y-95889100D02*
X125238800Y-96778600D01*
G04 #@! TO.N,Net-(RN6-R3.2)*
X124555200Y-74148100D02*
X124394900Y-73987800D01*
X124609400Y-74220300D02*
X124555200Y-74166100D01*
X124555200Y-74166100D02*
X124555200Y-74148100D01*
X123332500Y-60960000D02*
X124394900Y-62022400D01*
X124555200Y-74148100D02*
X124394900Y-73987800D01*
X125177400Y-95382500D02*
X124837100Y-95722800D01*
X125177400Y-74788300D02*
X125177400Y-95382500D01*
X124323100Y-99619000D02*
X124323100Y-100813500D01*
X124394900Y-62022400D02*
X124394900Y-73987800D01*
X124323100Y-100813500D02*
X123685900Y-101450700D01*
X120089100Y-101450700D02*
X119196700Y-100558300D01*
X123804400Y-97645000D02*
X123804400Y-99100300D01*
X124609400Y-74220300D02*
X124555200Y-74166100D01*
X119196700Y-100558300D02*
X119196700Y-100330000D01*
X124609400Y-74220300D02*
X125177400Y-74788300D01*
X124837100Y-95722800D02*
X124837100Y-96612300D01*
X123804400Y-99100300D02*
X124323100Y-99619000D01*
X123685900Y-101450700D02*
X120089100Y-101450700D01*
X118095000Y-100330000D02*
X119196700Y-100330000D01*
X124837100Y-96612300D02*
X123804400Y-97645000D01*
G04 #@! TO.N,Net-(RN6-R8.2)*
X103022400Y-76945700D02*
X103380800Y-77304100D01*
X106534100Y-94463800D02*
X106534100Y-98089200D01*
X105395000Y-100330000D02*
X105395000Y-99228300D01*
X103705600Y-91635300D02*
X106534100Y-94463800D01*
X105696300Y-66072000D02*
X104560700Y-64936400D01*
X103693700Y-64936400D02*
X103022400Y-65607700D01*
X103380800Y-77802500D02*
X103245800Y-77937500D01*
X104560700Y-64936400D02*
X103693700Y-64936400D01*
X103245800Y-77937500D02*
X103245800Y-77937600D01*
X106534100Y-98089200D02*
X105395000Y-99228300D01*
X103705600Y-78397400D02*
X103705600Y-91635300D01*
X103380800Y-77304100D02*
X103380800Y-77802500D01*
X103022400Y-65607700D02*
X103022400Y-76945700D01*
X103245800Y-77937600D02*
X103705600Y-78397400D01*
G04 #@! TO.N,Net-(RN6-R5.2)*
X114441600Y-93921200D02*
X114441600Y-95784800D01*
X114441600Y-95784800D02*
X113015000Y-97211400D01*
X119221500Y-69549000D02*
X119221500Y-89141300D01*
X113015000Y-97211400D02*
X113015000Y-100330000D01*
X119221500Y-89141300D02*
X114441600Y-93921200D01*
X115712500Y-66040000D02*
X119221500Y-69549000D01*
G04 #@! TO.N,Net-(RN6-R2.2)*
X125996700Y-95699200D02*
X125640500Y-96055400D01*
X125547900Y-98009800D02*
X124556300Y-99001400D01*
X125547900Y-97037500D02*
X125547900Y-98009800D01*
X125640500Y-96944900D02*
X125547900Y-97037500D01*
X125996700Y-56004200D02*
X125996700Y-95699200D01*
X125640500Y-96055400D02*
X125640500Y-96944900D01*
X123332500Y-53340000D02*
X125996700Y-56004200D01*
G04 #@! TO.N,Net-(RN6-R1.1)*
X123175000Y-107950000D02*
X123175000Y-109051700D01*
X122073300Y-113258300D02*
X122073300Y-110153400D01*
X115555000Y-119548300D02*
X115783300Y-119548300D01*
X115783300Y-119548300D02*
X122073300Y-113258300D01*
X115555000Y-120650000D02*
X115555000Y-119548300D01*
X122073300Y-110153400D02*
X123175000Y-109051700D01*
G04 #@! TO.N,Net-(RN6-R4.2)*
X126598400Y-96555000D02*
X126598400Y-66072000D01*
X124943000Y-100143000D02*
X125949600Y-99136400D01*
X125949600Y-97203800D02*
X126598400Y-96555000D01*
X125949600Y-99136400D02*
X125949600Y-97203800D01*
G04 #@! TO.N,Net-(RN6-R3.1)*
X110703300Y-119548300D02*
X110475000Y-119548300D01*
X118095000Y-109051700D02*
X116993300Y-110153400D01*
X110475000Y-120650000D02*
X110475000Y-119548300D01*
X116993300Y-110153400D02*
X116993300Y-113258300D01*
X116993300Y-113258300D02*
X110703300Y-119548300D01*
X118095000Y-107950000D02*
X118095000Y-109051700D01*
G04 #@! TO.N,Net-(RN6-R7.1)*
X107935000Y-111360200D02*
X107935000Y-107950000D01*
X109373300Y-113030000D02*
X109373300Y-113167700D01*
X109373300Y-113167700D02*
X108379900Y-114161100D01*
X110475000Y-113030000D02*
X109373300Y-113030000D01*
X106803500Y-113513800D02*
X106803500Y-112491700D01*
X108379900Y-114161100D02*
X107450800Y-114161100D01*
X106803500Y-112491700D02*
X107935000Y-111360200D01*
X107450800Y-114161100D02*
X106803500Y-113513800D01*
G04 #@! TO.N,Net-(U14-I0a)*
X184050000Y-53380000D02*
X185951700Y-53380000D01*
X185951700Y-53380000D02*
X185951700Y-68620000D01*
X184050000Y-99100000D02*
X185951700Y-99100000D01*
X171550000Y-83860000D02*
X169648300Y-83860000D01*
X186002600Y-81907400D02*
X184050000Y-83860000D01*
X186002600Y-68672400D02*
X186002600Y-81907400D01*
X184050000Y-68620000D02*
X185850900Y-68620000D01*
X185950200Y-68620000D02*
X186002600Y-68672400D01*
X185850900Y-68620000D02*
X185950200Y-68620000D01*
X183850000Y-114260000D02*
X185751700Y-114260000D01*
X169648300Y-99100000D02*
X169648300Y-83860000D01*
X185951700Y-99100000D02*
X185951700Y-114060000D01*
X171550000Y-99100000D02*
X169648300Y-99100000D01*
X185950200Y-68620000D02*
X185951700Y-68620000D01*
X185951700Y-114060000D02*
X185751700Y-114260000D01*
G04 #@! TO.N,Net-(U14-I1a)*
X202461700Y-53500000D02*
X202261700Y-53300000D01*
X188060000Y-83860000D02*
X186158300Y-83860000D01*
X202461700Y-81958300D02*
X202461700Y-68620000D01*
X186158300Y-97198300D02*
X188060000Y-99100000D01*
X202461700Y-68620000D02*
X202461700Y-53500000D01*
X186158300Y-83860000D02*
X186158300Y-97198300D01*
X202461700Y-101001700D02*
X202461700Y-114340000D01*
X200560000Y-99100000D02*
X202461700Y-101001700D01*
X200360000Y-53300000D02*
X202261700Y-53300000D01*
X200560000Y-83860000D02*
X202461700Y-81958300D01*
X200560000Y-68620000D02*
X202461700Y-68620000D01*
X200560000Y-114340000D02*
X202461700Y-114340000D01*
G04 #@! TO.N,Net-(U14-I2a)*
X203720000Y-83860000D02*
X206471700Y-81108300D01*
X204570000Y-83860000D02*
X203720000Y-83860000D01*
X204570000Y-53380000D02*
X206471700Y-53380000D01*
X204570000Y-68620000D02*
X206471700Y-68620000D01*
X206471700Y-81108300D02*
X206471700Y-68620000D01*
X206471700Y-68620000D02*
X206471700Y-53380000D01*
X218971700Y-101001700D02*
X218971700Y-114340000D01*
X204570000Y-99100000D02*
X202668300Y-99100000D01*
X217070000Y-99100000D02*
X218971700Y-101001700D01*
X202668300Y-83860000D02*
X202668300Y-99100000D01*
X217070000Y-114340000D02*
X218971700Y-114340000D01*
X203720000Y-83860000D02*
X202668300Y-83860000D01*
G04 #@! TO.N,Net-(U14-I3a)*
X221080000Y-68620000D02*
X219178300Y-68620000D01*
X221080000Y-83860000D02*
X219279200Y-83860000D01*
X219179800Y-83860000D02*
X219178300Y-83860000D01*
X238760000Y-110658300D02*
X235481700Y-107380000D01*
X219179800Y-83860000D02*
X219178300Y-83858500D01*
X233580000Y-99100000D02*
X235481700Y-99100000D01*
X221080000Y-99100000D02*
X219178300Y-99100000D01*
X219279200Y-83860000D02*
X219179800Y-83860000D01*
X219178300Y-83860000D02*
X219178300Y-99100000D01*
X235481700Y-107380000D02*
X235481700Y-99100000D01*
X238760000Y-111760000D02*
X238760000Y-110658300D01*
X219178300Y-83858500D02*
X219178300Y-68620000D01*
G04 #@! TO.N,~{SET_ALL}*
X95404600Y-89847100D02*
X95404600Y-110812900D01*
X95404600Y-110812900D02*
X96520000Y-111928300D01*
X96520000Y-113030000D02*
X96520000Y-111928300D01*
X96520000Y-87630000D02*
X96520000Y-88731700D01*
X96520000Y-88731700D02*
X95404600Y-89847100D01*
G04 #@! TO.N,~{DISP1}*
X70485000Y-87630000D02*
X70485000Y-86528300D01*
X71581200Y-85191500D02*
X70485000Y-86287700D01*
X72050100Y-85191500D02*
X71581200Y-85191500D01*
X74161200Y-67156100D02*
X74161200Y-83080400D01*
X73593100Y-66588000D02*
X74161200Y-67156100D01*
X74161200Y-83080400D02*
X72050100Y-85191500D01*
X70485000Y-86287700D02*
X70485000Y-86528300D01*
G04 #@! TO.N,D0*
X115555000Y-113030000D02*
X115555000Y-111928300D01*
X109306400Y-93883600D02*
X115570000Y-87620000D01*
X115555000Y-111928300D02*
X114453300Y-110826600D01*
X114453300Y-110826600D02*
X114453300Y-107820000D01*
X114453300Y-107820000D02*
X109306400Y-102673100D01*
X167640000Y-114711400D02*
X158411400Y-105482800D01*
X109306400Y-102673100D02*
X109306400Y-93883600D01*
X167640000Y-127635000D02*
X167640000Y-114711400D01*
G04 #@! TO.N,~{DISP2}*
X70485000Y-113030000D02*
X70485000Y-110546700D01*
X136123700Y-93548500D02*
X135888300Y-93313100D01*
X133350000Y-69215000D02*
X133350000Y-70316700D01*
X135722000Y-72463200D02*
X133575500Y-70316700D01*
X133575500Y-70316700D02*
X133350000Y-70316700D01*
X135888300Y-93313100D02*
X135722000Y-93146800D01*
X136123700Y-96311900D02*
X136123700Y-93548500D01*
X135888300Y-93313100D02*
X135722000Y-93146800D01*
X134910900Y-100806400D02*
X134910900Y-97524700D01*
X134910900Y-97524700D02*
X136123700Y-96311900D01*
X70485000Y-110546700D02*
X70353200Y-110414900D01*
X135722000Y-93146800D02*
X135722000Y-72463200D01*
G04 #@! TO.N,~{DISP3}*
X93862400Y-84443400D02*
X93980000Y-84561000D01*
X93980000Y-84561000D02*
X93980000Y-87630000D01*
G04 #@! TO.N,~{DISP4}*
X134698900Y-96869200D02*
X135722000Y-95846100D01*
X133350000Y-74295000D02*
X133350000Y-75396700D01*
X135251400Y-93444400D02*
X135251400Y-77160400D01*
X135722000Y-93915000D02*
X135251400Y-93444400D01*
X100822100Y-111871600D02*
X100822100Y-99627700D01*
X133487700Y-75396700D02*
X133350000Y-75396700D01*
X135251400Y-77160400D02*
X133487700Y-75396700D01*
X100822100Y-99627700D02*
X103629900Y-96819900D01*
X135722000Y-95846100D02*
X135722000Y-93915000D01*
G04 #@! TO.N,~{DISP6}*
X127680500Y-109111700D02*
X127680500Y-96087600D01*
X131815100Y-80909900D02*
X133350000Y-79375000D01*
X131815100Y-91953000D02*
X131815100Y-80909900D01*
X127680500Y-96087600D02*
X131815100Y-91953000D01*
G04 #@! TO.N,~{SEL_DISPLAY}*
X135890000Y-127002900D02*
X137426600Y-125466300D01*
X133231700Y-127635000D02*
X133231700Y-127903500D01*
X140970000Y-73564900D02*
X140970000Y-73025000D01*
X135890000Y-128027600D02*
X135890000Y-127002900D01*
X140970000Y-74295000D02*
X140970000Y-73025000D01*
X134118000Y-128789800D02*
X135127800Y-128789800D01*
X133231700Y-127903500D02*
X134118000Y-128789800D01*
X132080000Y-127635000D02*
X133231700Y-127635000D01*
X137426600Y-125466300D02*
X137426600Y-77298600D01*
X139869800Y-74665100D02*
X140970000Y-73564900D01*
X137426600Y-77298600D02*
X139869800Y-74855400D01*
X140970000Y-73025000D02*
X140970000Y-71755000D01*
X139869800Y-74855400D02*
X139869800Y-74665100D01*
X135127800Y-128789800D02*
X135890000Y-128027600D01*
G04 #@! TO.N,A5*
X134781000Y-126483300D02*
X137024900Y-124239400D01*
X137024900Y-74033500D02*
X140741700Y-70316700D01*
X140970000Y-69215000D02*
X140970000Y-70316700D01*
X137024900Y-124239400D02*
X137024900Y-74033500D01*
X134620000Y-126483300D02*
X134781000Y-126483300D01*
X134620000Y-127635000D02*
X134620000Y-126483300D01*
X140741700Y-70316700D02*
X140970000Y-70316700D01*
G04 #@! TO.N,~{RESET}*
X132100200Y-61421100D02*
X132100200Y-60757600D01*
X129540000Y-123943300D02*
X129540000Y-119011900D01*
X127154500Y-66366800D02*
X132100200Y-61421100D01*
X127154500Y-97820000D02*
X127154500Y-66366800D01*
X129540000Y-119011900D02*
X127078800Y-116550700D01*
X127000000Y-127635000D02*
X127000000Y-126483300D01*
X127000000Y-126483300D02*
X129540000Y-123943300D01*
X127078800Y-97895700D02*
X127154500Y-97820000D01*
X127078800Y-116550700D02*
X127078800Y-97895700D01*
G04 #@! TO.N,D1*
X165100000Y-127635000D02*
X165100000Y-126483300D01*
X164452200Y-114365800D02*
X165100000Y-115013600D01*
X165100000Y-115013600D02*
X165100000Y-126483300D01*
G04 #@! TO.N,D5*
X151130000Y-124460000D02*
X140970000Y-114300000D01*
X153788300Y-127635000D02*
X153788300Y-127903500D01*
X152890400Y-128801400D02*
X151861700Y-128801400D01*
X151130000Y-128069700D02*
X151130000Y-124460000D01*
X153788300Y-127903500D02*
X152890400Y-128801400D01*
X151861700Y-128801400D02*
X151130000Y-128069700D01*
X154940000Y-127635000D02*
X153788300Y-127635000D01*
G04 #@! TO.N,~{SEL_KEYPAD}*
X129541500Y-106374500D02*
X133214300Y-102701700D01*
X129941700Y-118782300D02*
X129706300Y-118546900D01*
X133214300Y-102701700D02*
X133350000Y-102701700D01*
X129706300Y-118546900D02*
X129541500Y-118382100D01*
X129706300Y-118546900D02*
X129541500Y-118382100D01*
X129540000Y-127635000D02*
X129540000Y-126483300D01*
X129540000Y-126483300D02*
X129941700Y-126081600D01*
X133350000Y-101600000D02*
X133350000Y-102701700D01*
X129541500Y-118382100D02*
X129541500Y-106374500D01*
X129941700Y-126081600D02*
X129941700Y-118782300D01*
G04 #@! TO.N,D6*
X152400000Y-124324700D02*
X142071700Y-113996400D01*
X140970000Y-109220000D02*
X140970000Y-110321700D01*
X152400000Y-127635000D02*
X152400000Y-124324700D01*
X141107800Y-110321700D02*
X140970000Y-110321700D01*
X142071700Y-111285600D02*
X141107800Y-110321700D01*
X142071700Y-113996400D02*
X142071700Y-111285600D01*
G04 #@! TO.N,D7*
X139845000Y-106138400D02*
X140741700Y-105241700D01*
X140500100Y-115428400D02*
X139845000Y-114773300D01*
X140741700Y-105241700D02*
X140970000Y-105241700D01*
X139845000Y-114773300D02*
X139845000Y-106138400D01*
X149860000Y-127635000D02*
X149860000Y-126483300D01*
X149860000Y-126483300D02*
X149860000Y-124131200D01*
X141157200Y-115428400D02*
X140500100Y-115428400D01*
X149860000Y-124131200D02*
X141157200Y-115428400D01*
X140970000Y-104140000D02*
X140970000Y-105241700D01*
G04 #@! TO.N,D2*
X132234300Y-116289100D02*
X133121700Y-115401700D01*
X133350000Y-114300000D02*
X133350000Y-115401700D01*
X132234300Y-125271500D02*
X132234300Y-116289100D01*
X133121700Y-115401700D02*
X133350000Y-115401700D01*
X132428800Y-125466000D02*
X132234300Y-125271500D01*
G04 #@! TO.N,Net-(JP1-B)*
X149393300Y-95716700D02*
X149393300Y-119309100D01*
X151765000Y-93345000D02*
X149393300Y-95716700D01*
X149393300Y-119309100D02*
X149565500Y-119481300D01*
G04 #@! TO.N,Net-(JP2-B)*
X148023300Y-92641700D02*
X151765000Y-88900000D01*
X148023300Y-115520200D02*
X148023300Y-92641700D01*
G04 #@! TO.N,Net-(JP3-B)*
X147050700Y-91612600D02*
X147050700Y-95518200D01*
X147050700Y-95518200D02*
X146828900Y-95740000D01*
X133350000Y-111760000D02*
X133350000Y-110658300D01*
X135971100Y-108265500D02*
X133578300Y-110658300D01*
X151765000Y-84455000D02*
X151765000Y-86898300D01*
X151765000Y-86898300D02*
X147050700Y-91612600D01*
X133578300Y-110658300D02*
X133350000Y-110658300D01*
X135971100Y-97315300D02*
X135971100Y-108265500D01*
G04 #@! TO.N,Net-(JP4-B)*
X149499100Y-82275900D02*
X149499100Y-88596200D01*
X149499100Y-88596200D02*
X144816100Y-93279200D01*
X151765000Y-80010000D02*
X149499100Y-82275900D01*
X144816100Y-93279200D02*
X144816100Y-107819200D01*
G04 #@! TO.N,Net-(JP1-A)*
X151130000Y-70485000D02*
X151130000Y-71586700D01*
X153065000Y-73521700D02*
X153065000Y-80010000D01*
X153065000Y-88900000D02*
X153065000Y-93345000D01*
X151130000Y-71586700D02*
X153065000Y-73521700D01*
X153065000Y-84455000D02*
X153065000Y-88900000D01*
X153065000Y-84455000D02*
X153065000Y-80010000D01*
G04 #@! TD*
M02*
