M48
INCH,TZ
T1C0.0118
T2C0.0276
T3C0.0315
T4C0.0354
T5C0.0394
T6C0.0512
%
G90
G05
T1
X21164Y-27363
X22489Y-22500
X22582Y-28513
X23340Y-26510
X24261Y-43840
X27517Y-33392
X27698Y-43470
X28280Y-33777
X28974Y-26216
X30412Y-38853
X30487Y-38450
X31163Y-21435
X33322Y-22899
X33448Y-25068
X35310Y-25134
X35482Y-33198
X36400Y-20500
X36954Y-33245
X37954Y-35771
X38101Y-45660
X38565Y-38180
X38584Y-36235
X38676Y-38691
X38869Y-38426
X39351Y-38847
X39694Y-44044
X40464Y-30533
X40481Y-30852
X40799Y-38118
X41613Y-26013
X41660Y-31783
X42149Y-37062
X44796Y-43225
X47320Y-49009
X47407Y-38426
X48989Y-38612
X49038Y-38977
X49190Y-39426
X49823Y-38399
X49842Y-26013
X50268Y-42957
X50756Y-48045
X52008Y-23920
X52137Y-49396
X52974Y-49551
X53031Y-38137
X53115Y-39688
X53532Y-38313
X57014Y-42449
X57807Y-37693
X58277Y-45480
X58884Y-47040
X60286Y-49170
X62367Y-41529
X62655Y-24816
X64745Y-45026
T2
X22653Y-20000
X22653Y-21000
X22653Y-22000
X22653Y-23000
X22653Y-24000
X22653Y-25000
X22653Y-26000
X25653Y-20000
X25653Y-21000
X25653Y-22000
X25653Y-23000
X25653Y-24000
X25653Y-25000
X25653Y-26000
X27233Y-20000
X27233Y-21000
X27233Y-22000
X27233Y-23000
X27233Y-24000
X27233Y-25000
X27233Y-26000
X30233Y-20000
X30233Y-21000
X30233Y-22000
X30233Y-23000
X30233Y-24000
X30233Y-25000
X30233Y-26000
X31814Y-20000
X31814Y-21000
X31814Y-22000
X31814Y-23000
X31814Y-24000
X31814Y-25000
X31814Y-26000
X34814Y-20000
X34814Y-21000
X34814Y-22000
X34814Y-23000
X34814Y-24000
X34814Y-25000
X34814Y-26000
X36395Y-20000
X36395Y-21000
X36395Y-22000
X36395Y-23000
X36395Y-24000
X36395Y-25000
X36395Y-26000
X39395Y-20000
X39395Y-21000
X39395Y-22000
X39395Y-23000
X39395Y-24000
X39395Y-25000
X39395Y-26000
X40975Y-20000
X40975Y-21000
X40975Y-22000
X40975Y-23000
X40975Y-24000
X40975Y-25000
X40975Y-26000
X43975Y-20000
X43975Y-21000
X43975Y-22000
X43975Y-23000
X43975Y-24000
X43975Y-25000
X43975Y-26000
X45556Y-20000
X45556Y-21000
X45556Y-22000
X45556Y-23000
X45556Y-24000
X45556Y-25000
X45556Y-26000
X48556Y-20000
X48556Y-21000
X48556Y-22000
X48556Y-23000
X48556Y-24000
X48556Y-25000
X48556Y-26000
T3
X21000Y-35016
X21000Y-36984
X21000Y-45031
X21000Y-47000
X22750Y-29500
X22750Y-32500
X22750Y-34500
X22750Y-37500
X22750Y-39500
X22750Y-42500
X22750Y-44500
X22750Y-47500
X23750Y-29500
X23750Y-32500
X23750Y-34500
X23750Y-37500
X23750Y-39500
X23750Y-42500
X23750Y-44500
X23750Y-47500
X24750Y-29500
X24750Y-32500
X24750Y-34500
X24750Y-37500
X24750Y-39500
X24750Y-42500
X24750Y-44500
X24750Y-47500
X25750Y-29500
X25750Y-32500
X25750Y-34500
X25750Y-37500
X25750Y-39500
X25750Y-42500
X25750Y-44500
X25750Y-47500
X26750Y-29500
X26750Y-32500
X26750Y-34500
X26750Y-37500
X26750Y-39500
X26750Y-42500
X26750Y-44500
X26750Y-47500
X27750Y-29500
X27750Y-32500
X27750Y-34500
X27750Y-37500
X27750Y-39500
X27750Y-42500
X27750Y-44500
X27750Y-47500
X28750Y-29500
X28750Y-32500
X28750Y-34500
X28750Y-37500
X28750Y-39500
X28750Y-42500
X28750Y-44500
X28750Y-47500
X29750Y-29500
X29750Y-32500
X29750Y-34500
X29750Y-37500
X29750Y-39500
X29750Y-42500
X29750Y-44500
X29750Y-47500
X32000Y-34500
X32000Y-37500
X32000Y-39500
X32000Y-42500
X32000Y-44500
X32000Y-47500
X32006Y-29500
X32006Y-32500
X33000Y-34500
X33000Y-37500
X33000Y-39500
X33000Y-42500
X33000Y-44500
X33000Y-47500
X33006Y-29500
X33006Y-32500
X34000Y-34500
X34000Y-37500
X34000Y-39500
X34000Y-42500
X34000Y-44500
X34000Y-47500
X34006Y-29500
X34006Y-32500
X35000Y-34500
X35000Y-37500
X35000Y-39500
X35000Y-42500
X35000Y-44500
X35000Y-47500
X35006Y-29500
X35006Y-32500
X36000Y-34500
X36000Y-37500
X36000Y-39500
X36000Y-42500
X36000Y-44500
X36000Y-47500
X36006Y-29500
X36006Y-32500
X37000Y-34500
X37000Y-37500
X37000Y-39500
X37000Y-42500
X37000Y-44500
X37000Y-47500
X37006Y-29500
X37006Y-32500
X38000Y-34500
X38000Y-37500
X38000Y-39500
X38000Y-42500
X38000Y-44500
X38000Y-47500
X38006Y-29500
X38006Y-32500
X39000Y-34500
X39000Y-37500
X39000Y-39500
X39000Y-42500
X39000Y-44500
X39000Y-47500
X39006Y-29500
X39006Y-32500
X41494Y-29500
X41494Y-32500
X41494Y-39500
X41494Y-42500
X41494Y-44500
X41494Y-47500
X41500Y-34496
X41500Y-37496
X42494Y-29500
X42494Y-32500
X42494Y-39500
X42494Y-42500
X42494Y-44500
X42494Y-47500
X42500Y-34496
X42500Y-37496
X43494Y-29500
X43494Y-32500
X43494Y-39500
X43494Y-42500
X43494Y-44500
X43494Y-47500
X43500Y-34496
X43500Y-37496
X44494Y-29500
X44494Y-32500
X44494Y-39500
X44494Y-42500
X44494Y-44500
X44494Y-47500
X44500Y-34496
X44500Y-37496
X45494Y-29500
X45494Y-32500
X45494Y-39500
X45494Y-42500
X45494Y-44500
X45494Y-47500
X45500Y-34496
X45500Y-37496
X46494Y-29500
X46494Y-32500
X46494Y-39500
X46494Y-42500
X46494Y-44500
X46494Y-47500
X46500Y-34496
X46500Y-37496
X47494Y-29500
X47494Y-32500
X47494Y-39500
X47494Y-42500
X47494Y-44500
X47494Y-47500
X47500Y-34496
X47500Y-37496
X48494Y-29500
X48494Y-32500
X48494Y-39500
X48494Y-42500
X48494Y-44500
X48494Y-47500
X48500Y-34496
X48500Y-37496
X50500Y-35016
X50500Y-36984
X50500Y-45000
X50500Y-46969
X52500Y-25250
X52500Y-26250
X52500Y-27250
X52500Y-28250
X52500Y-29250
X52500Y-30250
X52500Y-31250
X52500Y-32250
X52500Y-39000
X52500Y-40000
X52500Y-41000
X52500Y-42000
X52500Y-43000
X52500Y-44000
X52500Y-45000
X52500Y-46000
X52500Y-47000
X52500Y-48000
X53000Y-37250
X53016Y-23500
X54969Y-37250
X54984Y-23500
X55500Y-25250
X55500Y-26250
X55500Y-27250
X55500Y-28250
X55500Y-29250
X55500Y-30250
X55500Y-31250
X55500Y-32250
X55500Y-39000
X55500Y-40000
X55500Y-41000
X55500Y-42000
X55500Y-43000
X55500Y-44000
X55500Y-45000
X55500Y-46000
X55500Y-47000
X55500Y-48000
X58000Y-23750
X58000Y-27750
X58266Y-46000
X59250Y-46000
X59500Y-23750
X59500Y-27750
X62250Y-21000
X62250Y-22969
X62250Y-27000
X62250Y-28969
X62250Y-33000
X62250Y-34969
X62250Y-39000
X62250Y-40969
X62250Y-45000
X62250Y-46969
X64500Y-20500
X64500Y-23500
X64500Y-26500
X64500Y-29500
X64500Y-32500
X64500Y-35500
X64500Y-38500
X64500Y-41500
X64500Y-44500
X64500Y-47500
X94000Y-26000
X94000Y-30000
X94000Y-32000
X94000Y-36000
X94000Y-38000
X94000Y-42000
X94000Y-44000
X94000Y-48000
T4
X56998Y-20500
X57998Y-20500
T5
X48000Y-50250
X49000Y-50250
X50000Y-50250
X51000Y-50250
X52000Y-50250
X53000Y-50250
X54000Y-50250
X55000Y-50250
X56000Y-50250
X57000Y-50250
X58000Y-50250
X59000Y-50250
X60000Y-50250
X61000Y-50250
X62000Y-50250
X63000Y-50250
X64000Y-50250
X65000Y-50250
X66000Y-50250
X67000Y-50250
T6
X67461Y-44984
X67461Y-46953
X67539Y-21016
X67539Y-22984
X67539Y-27016
X67539Y-28984
X67539Y-33016
X67539Y-34984
X67539Y-39016
X67539Y-40984
X72382Y-44984
X72382Y-46953
X72461Y-21016
X72461Y-22984
X72461Y-27016
X72461Y-28984
X72461Y-33016
X72461Y-34984
X72461Y-39016
X72461Y-40984
X73961Y-20984
X73961Y-22953
X74039Y-27016
X74039Y-28984
X74039Y-33016
X74039Y-34984
X74039Y-39016
X74039Y-40984
X74039Y-45016
X74039Y-46984
X78882Y-20984
X78882Y-22953
X78961Y-27016
X78961Y-28984
X78961Y-33016
X78961Y-34984
X78961Y-39016
X78961Y-40984
X78961Y-45016
X78961Y-46984
X80539Y-21016
X80539Y-22984
X80539Y-27016
X80539Y-28984
X80539Y-33016
X80539Y-34984
X80539Y-39016
X80539Y-40984
X80539Y-45016
X80539Y-46984
X85461Y-21016
X85461Y-22984
X85461Y-27016
X85461Y-28984
X85461Y-33016
X85461Y-34984
X85461Y-39016
X85461Y-40984
X85461Y-45016
X85461Y-46984
X87039Y-27016
X87039Y-28984
X87039Y-33016
X87039Y-34984
X87039Y-39016
X87039Y-40984
X87039Y-45016
X87039Y-46984
X87079Y-21031
X87079Y-23000
X91961Y-27016
X91961Y-28984
X91961Y-33016
X91961Y-34984
X91961Y-39016
X91961Y-40984
X91961Y-45016
X91961Y-46984
X92000Y-21031
X92000Y-23000
M30
